<svg width="26.000000" height="26.000000" viewBox="0 0 26 26" fill="none" xmlns="http://www.w3.org/2000/svg" xmlns:xlink="http://www.w3.org/1999/xlink">
	<desc>
			Created with Pixso.
	</desc>
	<defs/>
	<g opacity="0.200000">
		<path id="Vector" d="M8.46094 21.9375C6.90625 21.2246 5.58594 20.0781 4.66406 18.6387C3.74219 17.1992 3.25 15.5234 3.25 13.8125L3.25 8.9375L21.125 8.9375L21.125 13.8125C21.125 15.5234 20.6328 17.1992 19.7109 18.6387C18.7891 20.0781 17.4688 21.2246 15.9141 21.9375L8.46094 21.9375Z" fill="#FFFFFF" fill-opacity="1.000000" fill-rule="nonzero"/>
	</g>
	<path id="Vector" d="M8.46094 21.9375C6.90625 21.2246 5.58594 20.0781 4.66406 18.6387C3.74219 17.1992 3.25 15.5234 3.25 13.8125L3.25 8.9375L21.125 8.9375L21.125 13.8125C21.125 15.5234 20.6328 17.1992 19.7109 18.6387C18.7891 20.0781 17.4688 21.2246 15.9141 21.9375" stroke="#FFFFFF" stroke-opacity="1.000000" stroke-width="1.200000" stroke-linejoin="round" stroke-linecap="round"/>
	<path id="Vector" d="M8.9375 2.4375L8.9375 5.6875" stroke="#FFFFFF" stroke-opacity="1.000000" stroke-width="1.200000" stroke-linejoin="round" stroke-linecap="round"/>
	<path id="Vector" d="M12.1875 2.4375L12.1875 5.6875" stroke="#FFFFFF" stroke-opacity="1.000000" stroke-width="1.200000" stroke-linejoin="round" stroke-linecap="round"/>
	<path id="Vector" d="M15.4375 2.4375L15.4375 5.6875" stroke="#FFFFFF" stroke-opacity="1.000000" stroke-width="1.200000" stroke-linejoin="round" stroke-linecap="round"/>
	<path id="Vector" d="M3.25 21.9395L21.125 21.9395" stroke="#FFFFFF" stroke-opacity="1.000000" stroke-width="1.200000" stroke-linejoin="round" stroke-linecap="round"/>
	<path id="Vector" d="M21.1328 8.9375C21.9922 8.9375 22.8203 9.2793 23.4297 9.88867C24.0391 10.498 24.3828 11.3262 24.3828 12.1875L24.3828 13C24.3828 13.8613 24.0391 14.6895 23.4297 15.2988C22.8203 15.9082 21.9922 16.25 21.1328 16.25L20.7891 16.25" stroke="#FFFFFF" stroke-opacity="1.000000" stroke-width="1.200000" stroke-linejoin="round" stroke-linecap="round"/>
</svg>
