<svg width="26.000000" height="26.000000" viewBox="0 0 26 26" fill="none" xmlns="http://www.w3.org/2000/svg" xmlns:xlink="http://www.w3.org/1999/xlink">
	<desc>
			Created with Pixso.
	</desc>
	<defs>
		<clipPath id="clip2385_102565">
			<rect id="House" width="26.000000" height="26.000000" fill="white" fill-opacity="0"/>
		</clipPath>
	</defs>
	<rect id="House" width="26.000000" height="26.000000" fill="#FFFFFF" fill-opacity="0"/>
	<g clip-path="url(#clip2385_102565)">
		<g opacity="0.200000">
			<path id="Vector" d="M15.4453 21.123L15.4453 16.248C15.4453 16.0332 15.3594 15.8262 15.2109 15.6738C15.0547 15.5215 14.8516 15.4355 14.6328 15.4355L11.3828 15.4355C11.1641 15.4355 10.9609 15.5215 10.8047 15.6738C10.6562 15.8262 10.5703 16.0332 10.5703 16.248L10.5703 21.123C10.5703 21.3398 10.4844 21.5449 10.3359 21.6973C10.1797 21.8496 9.97656 21.9355 9.75781 21.9355L4.88281 21.9355C4.66406 21.9355 4.46094 21.8496 4.30469 21.6973C4.15625 21.5449 4.07031 21.3398 4.07031 21.123L4.07031 11.7324C4.07031 11.6191 4.09375 11.5078 4.14062 11.4043C4.1875 11.3008 4.25 11.207 4.33594 11.1309L12.4609 3.45898C12.6094 3.32422 12.8047 3.24805 13.0078 3.24805C13.2109 3.24805 13.4062 3.32422 13.5547 3.45898L21.6797 11.1309C21.7656 11.207 21.8281 11.3008 21.875 11.4043C21.9219 11.5078 21.9453 11.6191 21.9453 11.7324L21.9453 21.123C21.9453 21.3398 21.8594 21.5449 21.7109 21.6973C21.5547 21.8496 21.3516 21.9355 21.1328 21.9355L16.2578 21.9355C16.0391 21.9355 15.8359 21.8496 15.6797 21.6973C15.5312 21.5449 15.4453 21.3398 15.4453 21.123Z" fill="#FFFFFF" fill-opacity="1.000000" fill-rule="nonzero"/>
		</g>
		<path id="Vector" d="M15.4453 16.248C15.4453 16.0332 15.3594 15.8262 15.2109 15.6738C15.0547 15.5215 14.8516 15.4355 14.6328 15.4355L11.3828 15.4355C11.1641 15.4355 10.9609 15.5215 10.8047 15.6738C10.6562 15.8262 10.5703 16.0332 10.5703 16.248L10.5703 21.123C10.5703 21.3398 10.4844 21.5449 10.3359 21.6973C10.1797 21.8496 9.97656 21.9355 9.75781 21.9355L4.88281 21.9355C4.66406 21.9355 4.46094 21.8496 4.30469 21.6973C4.15625 21.5449 4.07031 21.3398 4.07031 21.123L4.07031 11.7324C4.07031 11.6191 4.09375 11.5078 4.14062 11.4043C4.1875 11.3008 4.25 11.207 4.33594 11.1309L12.4609 3.45898C12.6094 3.32422 12.8047 3.24805 13.0078 3.24805C13.2109 3.24805 13.4062 3.32422 13.5547 3.45898L21.6797 11.1309C21.7656 11.207 21.8281 11.3008 21.875 11.4043C21.9219 11.5078 21.9453 11.6191 21.9453 11.7324L21.9453 21.123C21.9453 21.3398 21.8594 21.5449 21.7109 21.6973C21.5547 21.8496 21.3516 21.9355 21.1328 21.9355L16.2578 21.9355C16.0391 21.9355 15.8359 21.8496 15.6797 21.6973C15.5312 21.5449 15.4453 21.3398 15.4453 21.123L15.4453 16.248Z" stroke="#FFFFFF" stroke-opacity="1.000000" stroke-width="0.806452" stroke-linejoin="round"/>
	</g>
</svg>
