<svg width="1024" height="1024" viewBox="0 0 1024 1024" fill="none" xmlns="http://www.w3.org/2000/svg">
<style>
  @media (prefers-color-scheme: dark) {
  	.logo { fill: #F9BF42 }
	.bg { fill: #282C32 }
  }
</style>
<g clip-path="url(#clip0_2664_8799)">
<rect class="bg" width="1024" height="1024" fill="#F9BF42"/>
<path class="logo" fill-rule="evenodd" clip-rule="evenodd" d="M912.374 336.436C849.505 296.843 780.23 313.368 722.749 351.111C665.306 388.829 612.922 451.223 574.3 519.74C535.645 588.315 508.775 666.565 505.671 737.975C505.572 740.266 505.497 742.555 505.447 744.843C472.384 756.914 449.835 752.987 431.675 742.471C419.582 735.469 407.163 721.993 403.401 698.444C399.586 674.566 404.174 636.721 434.049 581.389C435.056 579.523 434.429 577.173 432.602 576.096L380.988 545.648C379.162 544.57 376.803 545.158 375.645 546.934C343.188 596.725 306.89 611.948 277.225 614.82C245.236 617.916 216.832 606.948 203.795 598.925C203.354 598.617 202.904 598.319 202.444 598.029C178.635 583.035 163.116 559.927 155.923 529.578L160.19 527.86C167.371 525.621 174.761 523.041 182.226 520.23C205.478 511.475 232.121 499.441 260.081 485.03C315.906 456.255 378.687 417.115 431.96 373.59C484.132 330.964 531.72 280.516 550.711 228.2C560.555 201.079 563.33 171.68 553.051 142.764C542.814 113.968 521.206 90.0905 490.705 70.8814C427.836 31.2879 358.56 47.8127 301.08 85.5558C243.637 123.274 191.253 185.668 152.631 254.185C113.976 322.76 87.1061 401.01 84.0018 472.42C83.854 475.822 83.7607 479.221 83.724 482.616C57.8467 487.379 39.5375 482.057 24.687 472.182C13.051 464.445 1.48994 450.226 -0.807476 426.49C-1.67216 417.556 -18.4838 409.621 -37.8372 400.486C-71.4863 384.603 -112.819 365.094 -91.3797 330.404C-91.2466 330.189 -91.0854 329.979 -90.9068 329.788C-73.0983 323.94 -54.0333 312.685 -35.0644 292.621C-31.9315 289.307 -35.6958 285.534 -39.2558 288.384L-90.5068 329.416C-90.6462 329.527 -90.7809 329.653 -90.9068 329.788C-101.687 333.327 -112.007 334.885 -121.566 335.216C-154.138 336.341 -182.135 323.26 -194.392 314.436C-209.534 303.535 -230.648 306.973 -241.549 322.116C-252.45 337.259 -249.012 358.372 -233.869 369.273C-211.853 385.123 -169.457 404.48 -119.232 402.744C-102.177 402.155 -84.6236 399.141 -67.0563 393.054C-68.9947 407.093 -69.281 420.406 -68.0622 432.999C-63.6713 478.365 -40.079 510.26 -12.7266 528.448C17.9415 548.84 52.675 555.945 91.3969 549.804C102.283 591.788 125.491 629.184 165.811 654.809C166.279 655.137 166.756 655.455 167.245 655.763C190.2 670.22 233.713 686.916 283.734 682.074C300.72 680.43 318.053 676.335 335.21 669.173C334.144 683.305 334.682 696.611 336.678 709.104C343.869 754.111 369.39 784.484 397.816 800.944C432.311 820.919 470.596 825.063 512.577 813.435C523.303 856.417 546.783 894.735 588.106 920.76L588.198 920.818C588.238 920.843 588.279 920.868 588.32 920.894C588.776 921.213 589.241 921.522 589.717 921.822C612.673 936.279 656.185 952.975 706.206 948.133C723.192 946.489 740.525 942.394 757.682 935.232C756.617 949.364 757.155 962.67 759.151 975.163C766.341 1020.17 791.862 1050.54 820.288 1067C865.096 1092.95 916.297 1092.18 973.687 1064.84L1000.65 1051.99C1002.6 1051.06 1003.43 1048.72 1002.5 1046.77L976.807 992.847C975.876 990.892 973.537 990.063 971.583 990.994L944.622 1003.84C902.185 1024.06 875.213 1020.73 854.147 1008.53C842.055 1001.53 829.636 988.052 825.874 964.503C822.059 940.625 826.647 902.78 856.521 847.448C857.528 845.582 856.901 843.232 855.075 842.154L803.461 811.707C801.634 810.629 799.275 811.217 798.118 812.993C765.661 862.784 729.363 878.007 699.697 880.879C667.258 884.018 638.504 872.695 625.725 864.647L625.618 864.579L625.511 864.513C625.278 864.35 625.042 864.189 624.804 864.031C624.576 863.88 624.346 863.731 624.113 863.584C600.046 848.428 584.45 824.981 577.361 794.145C584.996 791.808 592.883 789.076 600.857 786.082C624.185 777.324 650.944 765.284 679.044 750.864C735.153 722.07 798.314 682.908 851.971 639.365C904.521 596.719 952.497 546.277 971.821 493.985C981.837 466.882 984.805 437.448 974.63 408.459C964.492 379.579 942.894 355.657 912.374 336.436ZM577.108 722.824C576.214 723.16 575.332 723.487 574.462 723.807C580.157 669.882 601.507 609.075 633.162 552.92C668.244 490.682 713.983 437.7 759.836 407.592C805.65 377.509 844.842 373.758 876.366 393.612C897.813 407.119 907.114 420.124 910.875 430.838C914.597 441.444 914.463 454.27 908.442 470.563C895.693 505.062 859.858 545.945 809.393 586.898C760.035 626.953 700.977 663.662 648.195 690.748C621.85 704.268 597.495 715.17 577.108 722.824ZM152.705 459.097C154.55 458.434 156.454 457.734 158.416 456.995C178.707 449.355 202.931 438.47 229.123 424.97C281.599 397.921 340.252 361.263 389.209 321.265C439.265 280.367 474.703 239.563 487.197 205.145C493.094 188.898 493.176 176.06 489.385 165.398C485.552 154.616 476.162 141.575 454.697 128.057C423.173 108.203 383.981 111.954 338.167 142.037C292.314 172.145 246.575 225.127 211.492 287.364C179.673 343.814 158.264 404.963 152.705 459.097ZM432.727 453.068C433.757 451.314 435.891 450.542 437.804 451.233L500.887 474.009C503.517 474.958 504.515 478.156 502.891 480.433L460.654 539.654C459.384 541.434 456.965 541.951 455.078 540.844L403.779 510.736C401.767 509.555 401.094 506.968 402.274 504.956L432.727 453.068ZM860.04 717.139C858.127 716.448 855.993 717.219 854.964 718.973L824.51 770.862C823.33 772.873 824.003 775.461 826.015 776.641L877.315 806.749C879.201 807.856 881.62 807.34 882.89 805.559L925.127 746.339C926.751 744.062 925.753 740.864 923.123 739.914L860.04 717.139Z" fill="#282C32"/>
<mask id="mask0_2664_8799" style="mask-type:alpha" maskUnits="userSpaceOnUse" x="-248" y="48" width="1251" height="1038">
<path class="logo" fill-rule="evenodd" clip-rule="evenodd" d="M912.374 336.436C849.505 296.843 780.23 313.368 722.749 351.111C665.306 388.829 612.922 451.223 574.3 519.74C535.645 588.315 508.775 666.565 505.671 737.975C505.572 740.266 505.497 742.555 505.447 744.843C472.384 756.914 449.835 752.987 431.675 742.471C419.582 735.469 407.163 721.993 403.401 698.444C399.586 674.566 404.174 636.721 434.049 581.389C435.056 579.523 434.429 577.173 432.602 576.096L380.988 545.648C379.162 544.57 376.803 545.158 375.645 546.934C343.188 596.725 306.89 611.948 277.225 614.82C245.236 617.916 216.832 606.948 203.795 598.925C203.354 598.617 202.904 598.319 202.444 598.029C178.635 583.035 163.116 559.927 155.923 529.578L160.19 527.86C167.371 525.621 174.761 523.041 182.226 520.23C205.478 511.475 232.121 499.441 260.081 485.03C315.906 456.255 378.687 417.115 431.96 373.59C484.132 330.964 531.72 280.516 550.711 228.2C560.555 201.079 563.33 171.68 553.051 142.764C542.814 113.968 521.206 90.0905 490.705 70.8814C427.836 31.2879 358.56 47.8127 301.08 85.5558C243.637 123.274 191.253 185.668 152.631 254.185C113.976 322.76 87.1061 401.01 84.0018 472.42C83.854 475.822 83.7607 479.221 83.724 482.616C57.8467 487.379 39.5375 482.057 24.687 472.182C13.051 464.445 1.48994 450.226 -0.807476 426.49C-1.67216 417.556 -18.4838 409.621 -37.8372 400.486C-71.4863 384.603 -112.819 365.094 -91.3797 330.404C-91.2466 330.189 -91.0854 329.979 -90.9068 329.788C-73.0983 323.94 -54.0333 312.685 -35.0644 292.621C-31.9315 289.307 -35.6958 285.534 -39.2558 288.384L-90.5068 329.416C-90.6462 329.527 -90.7809 329.653 -90.9068 329.788C-101.687 333.327 -112.007 334.885 -121.566 335.216C-154.138 336.341 -182.135 323.26 -194.392 314.436C-209.534 303.535 -230.648 306.973 -241.549 322.116C-252.45 337.259 -249.012 358.372 -233.869 369.273C-211.853 385.123 -169.457 404.48 -119.232 402.744C-102.177 402.155 -84.6236 399.141 -67.0563 393.054C-68.9947 407.093 -69.281 420.406 -68.0622 432.999C-63.6713 478.365 -40.079 510.26 -12.7266 528.448C17.9415 548.84 52.675 555.945 91.3969 549.804C102.283 591.788 125.491 629.184 165.811 654.809C166.279 655.137 166.756 655.455 167.245 655.763C190.2 670.22 233.713 686.916 283.734 682.074C300.72 680.43 318.053 676.335 335.21 669.173C334.144 683.305 334.682 696.611 336.678 709.104C343.869 754.111 369.39 784.484 397.816 800.944C432.311 820.919 470.596 825.063 512.577 813.435C523.303 856.417 546.783 894.735 588.106 920.76L588.198 920.818C588.238 920.843 588.279 920.868 588.32 920.894C588.776 921.213 589.241 921.522 589.717 921.822C612.673 936.279 656.185 952.975 706.206 948.133C723.192 946.489 740.525 942.394 757.682 935.232C756.617 949.364 757.155 962.67 759.151 975.163C766.341 1020.17 791.862 1050.54 820.288 1067C865.096 1092.95 916.297 1092.18 973.687 1064.84L1000.65 1051.99C1002.6 1051.06 1003.43 1048.72 1002.5 1046.77L976.807 992.847C975.876 990.892 973.537 990.063 971.583 990.994L944.622 1003.84C902.185 1024.06 875.213 1020.73 854.147 1008.53C842.055 1001.53 829.636 988.052 825.874 964.503C822.059 940.625 826.647 902.78 856.521 847.448C857.528 845.582 856.901 843.232 855.075 842.154L803.461 811.707C801.634 810.629 799.275 811.217 798.118 812.993C765.661 862.784 729.363 878.007 699.697 880.879C667.258 884.018 638.504 872.695 625.725 864.647L625.618 864.579L625.511 864.513C625.278 864.35 625.042 864.189 624.804 864.031C624.576 863.88 624.346 863.731 624.113 863.584C600.046 848.428 584.45 824.981 577.361 794.145C584.996 791.808 592.883 789.076 600.857 786.082C624.185 777.324 650.944 765.284 679.044 750.864C735.153 722.07 798.314 682.908 851.971 639.365C904.521 596.719 952.497 546.277 971.821 493.985C981.837 466.882 984.805 437.448 974.63 408.459C964.492 379.579 942.894 355.657 912.374 336.436ZM577.108 722.824C576.214 723.16 575.332 723.487 574.462 723.807C580.157 669.882 601.507 609.075 633.162 552.92C668.244 490.682 713.983 437.7 759.836 407.592C805.65 377.509 844.842 373.758 876.366 393.612C897.813 407.119 907.114 420.124 910.875 430.838C914.597 441.444 914.463 454.27 908.442 470.563C895.693 505.062 859.858 545.945 809.393 586.898C760.035 626.953 700.977 663.662 648.195 690.748C621.85 704.268 597.495 715.17 577.108 722.824ZM152.705 459.097C154.55 458.434 156.454 457.734 158.416 456.995C178.707 449.355 202.931 438.47 229.123 424.97C281.599 397.921 340.252 361.263 389.209 321.265C439.265 280.367 474.703 239.563 487.197 205.145C493.094 188.898 493.176 176.06 489.385 165.398C485.552 154.616 476.162 141.575 454.697 128.057C423.173 108.203 383.981 111.954 338.167 142.037C292.314 172.145 246.575 225.127 211.492 287.364C179.673 343.814 158.264 404.963 152.705 459.097ZM432.727 453.068C433.757 451.314 435.891 450.542 437.804 451.233L500.887 474.009C503.517 474.958 504.515 478.156 502.891 480.433L460.654 539.654C459.384 541.434 456.965 541.951 455.078 540.844L403.779 510.736C401.767 509.555 401.094 506.968 402.274 504.956L432.727 453.068ZM860.04 717.139C858.127 716.448 855.993 717.219 854.964 718.973L824.51 770.862C823.33 772.873 824.003 775.461 826.015 776.641L877.315 806.749C879.201 807.856 881.62 807.34 882.89 805.559L925.127 746.339C926.751 744.062 925.753 740.864 923.123 739.914L860.04 717.139Z" fill="#282C32"/>
</mask>
<g mask="url(#mask0_2664_8799)">
</g>
</g>
<defs>
<clipPath id="clip0_2664_8799">
<rect width="1024" height="1024" fill="white"/>
</clipPath>
</defs>
</svg>
