<svg width="1024" height="1024" viewBox="0 0 1024 1024" fill="none" xmlns="http://www.w3.org/2000/svg">
<g clip-path="url(#clip0_3044_9713)">
<rect width="1024" height="1024" rx="500" fill="#282C32"/>
<path fill-rule="evenodd" clip-rule="evenodd" d="M912.374 336.437C849.506 296.843 780.23 313.368 722.749 351.111C665.307 388.829 612.923 451.223 574.3 519.74C535.646 588.315 508.776 666.565 505.672 737.975C505.572 740.265 505.497 742.555 505.448 744.843C472.384 756.914 449.834 752.987 431.674 742.471C419.582 735.469 407.163 721.993 403.4 698.444C399.586 674.566 404.174 636.721 434.048 581.389C435.055 579.523 434.428 577.173 432.602 576.096L380.987 545.648C379.161 544.57 376.802 545.158 375.644 546.934C343.187 596.725 306.89 611.948 277.224 614.82C245.243 617.915 216.844 606.953 203.803 598.931C203.36 598.621 202.907 598.321 202.444 598.029C178.635 583.035 163.116 559.927 155.922 529.578L160.189 527.86C167.37 525.621 174.761 523.041 182.226 520.23C205.478 511.475 232.121 499.441 260.081 485.029C315.906 456.254 378.686 417.115 431.96 373.59C484.132 330.963 531.72 280.516 550.71 228.2C560.555 201.079 563.33 171.679 553.051 142.764C542.814 113.968 521.206 90.0903 490.705 70.8812C427.836 31.2877 358.56 47.8125 301.08 85.5556C243.637 123.274 191.253 185.668 152.631 254.185C113.976 322.759 87.106 401.01 84.0018 472.42C83.8539 475.821 83.7606 479.221 83.7239 482.615C57.8466 487.379 39.5374 482.057 24.687 472.182C13.0509 464.445 1.4899 450.226 -0.807508 426.489C-1.6722 417.556 -18.4838 409.621 -37.8372 400.486C-71.4863 384.603 -112.819 365.094 -91.3797 330.404C-91.2466 330.188 -91.0854 329.979 -90.9069 329.788C-73.0984 323.94 -54.0333 312.685 -35.0644 292.62C-31.9315 289.306 -35.6959 285.534 -39.2558 288.384L-90.5068 329.416C-90.6463 329.527 -90.7809 329.653 -90.9069 329.788C-101.687 333.327 -112.007 334.885 -121.566 335.215C-154.138 336.341 -182.135 323.26 -194.392 314.436C-209.535 303.535 -230.648 306.973 -241.549 322.116C-252.451 337.259 -249.012 358.372 -233.869 369.273C-211.853 385.123 -169.457 404.48 -119.232 402.744C-102.177 402.155 -84.6236 399.14 -67.0563 393.054C-68.9948 407.093 -69.2811 420.406 -68.0623 432.999C-63.6714 478.365 -40.079 510.259 -12.7266 528.447C17.9415 548.84 52.6749 555.945 91.3969 549.803C102.282 591.784 125.487 629.176 165.8 654.802C166.27 655.132 166.752 655.453 167.244 655.763C190.199 670.22 233.712 686.916 283.733 682.074C300.719 680.43 318.052 676.335 335.209 669.173C334.143 683.305 334.682 696.611 336.678 709.104C343.868 754.111 369.389 784.484 397.815 800.944C432.311 820.919 470.596 825.063 512.577 813.435C523.303 856.417 546.783 894.735 588.106 920.76L588.161 920.794L588.266 920.86L588.311 920.888C588.424 920.967 588.537 921.045 588.651 921.123C589 921.361 589.356 921.595 589.717 921.822C612.672 936.279 656.184 952.975 706.206 948.134C723.192 946.49 740.525 942.394 757.682 935.232C756.616 949.364 757.154 962.67 759.15 975.163C766.341 1020.17 791.862 1050.54 820.288 1067C865.095 1092.95 916.297 1092.18 973.686 1064.84L1000.65 1051.99C1002.6 1051.06 1003.43 1048.72 1002.5 1046.77L976.806 992.847C975.875 990.893 973.536 990.063 971.582 990.994L944.621 1003.84C902.184 1024.06 875.212 1020.73 854.147 1008.53C842.054 1001.53 829.635 988.052 825.873 964.503C822.058 940.625 826.646 902.78 856.521 847.448C857.528 845.583 856.901 843.232 855.074 842.155L803.46 811.707C801.634 810.629 799.275 811.217 798.117 812.993C765.66 862.785 729.362 878.008 699.697 880.879C667.257 884.018 638.504 872.695 625.724 864.647C625.656 864.604 625.588 864.561 625.52 864.519C625.061 864.198 624.593 863.886 624.114 863.584C600.047 848.428 584.45 824.981 577.362 794.145C584.996 791.808 592.883 789.076 600.857 786.082C624.185 777.324 650.944 765.284 679.045 750.864C735.153 722.07 798.314 682.908 851.971 639.365C904.521 596.719 952.497 546.277 971.822 493.985C981.838 466.883 984.806 437.448 974.63 408.459C964.493 379.579 942.894 355.657 912.374 336.437ZM577.109 722.824C576.215 723.16 575.333 723.487 574.462 723.807C580.157 669.882 601.508 609.075 633.162 552.92C668.245 490.682 713.984 437.7 759.836 407.592C805.651 377.509 844.842 373.758 876.367 393.612C897.814 407.119 907.114 420.124 910.875 430.838C914.598 441.444 914.463 454.27 908.442 470.563C895.693 505.062 859.859 545.945 809.394 586.898C760.035 626.953 700.977 663.662 648.195 690.748C621.85 704.268 597.495 715.17 577.109 722.824ZM152.705 459.097C154.55 458.434 156.454 457.734 158.416 456.995C178.707 449.355 202.931 438.47 229.123 424.97C281.599 397.921 340.252 361.263 389.209 321.265C439.265 280.367 474.703 239.563 487.197 205.145C493.094 188.898 493.176 176.06 489.385 165.397C485.552 154.615 476.162 141.575 454.697 128.056C423.173 108.203 383.981 111.954 338.167 142.037C292.314 172.145 246.575 225.127 211.492 287.364C179.673 343.813 158.264 404.962 152.705 459.097ZM432.728 453.067C433.757 451.313 435.891 450.542 437.804 451.233L500.887 474.008C503.518 474.958 504.515 478.156 502.891 480.433L460.655 539.653C459.385 541.434 456.965 541.95 455.079 540.843L403.779 510.736C401.768 509.555 401.094 506.967 402.275 504.956L432.728 453.067ZM860.041 717.139C858.127 716.448 855.994 717.219 854.964 718.973L824.511 770.862C823.33 772.873 824.004 775.461 826.016 776.641L877.315 806.749C879.202 807.856 881.621 807.34 882.891 805.559L925.128 746.338C926.751 744.062 925.754 740.864 923.124 739.914L860.041 717.139Z" fill="#F9BF42"/>
<mask id="mask0_3044_9713" style="mask-type:alpha" maskUnits="userSpaceOnUse" x="-248" y="48" width="1251" height="1038">
<path fill-rule="evenodd" clip-rule="evenodd" d="M912.374 336.437C849.506 296.843 780.23 313.368 722.749 351.111C665.307 388.829 612.923 451.223 574.3 519.74C535.646 588.315 508.776 666.565 505.672 737.975C505.572 740.265 505.497 742.555 505.448 744.843C472.384 756.914 449.834 752.987 431.674 742.471C419.582 735.469 407.163 721.993 403.4 698.444C399.586 674.566 404.174 636.721 434.048 581.389C435.055 579.523 434.428 577.173 432.602 576.096L380.987 545.648C379.161 544.57 376.802 545.158 375.644 546.934C343.187 596.725 306.89 611.948 277.224 614.82C245.243 617.915 216.844 606.953 203.803 598.931C203.36 598.621 202.907 598.321 202.444 598.029C178.635 583.035 163.116 559.927 155.922 529.578L160.189 527.86C167.37 525.621 174.761 523.041 182.226 520.23C205.478 511.475 232.121 499.441 260.081 485.029C315.906 456.254 378.686 417.115 431.96 373.59C484.132 330.963 531.72 280.516 550.71 228.2C560.555 201.079 563.33 171.679 553.051 142.764C542.814 113.968 521.206 90.0903 490.705 70.8812C427.836 31.2877 358.56 47.8125 301.08 85.5556C243.637 123.274 191.253 185.668 152.631 254.185C113.976 322.759 87.106 401.01 84.0018 472.42C83.8539 475.821 83.7606 479.221 83.7239 482.615C57.8466 487.379 39.5374 482.057 24.687 472.182C13.0509 464.445 1.4899 450.226 -0.807508 426.489C-1.6722 417.556 -18.4838 409.621 -37.8372 400.486C-71.4863 384.603 -112.819 365.094 -91.3797 330.404C-91.2466 330.188 -91.0854 329.979 -90.9069 329.788C-73.0984 323.94 -54.0333 312.685 -35.0644 292.62C-31.9315 289.306 -35.6959 285.534 -39.2558 288.384L-90.5068 329.416C-90.6463 329.527 -90.7809 329.653 -90.9069 329.788C-101.687 333.327 -112.007 334.885 -121.566 335.215C-154.138 336.341 -182.135 323.26 -194.392 314.436C-209.535 303.535 -230.648 306.973 -241.549 322.116C-252.451 337.259 -249.012 358.372 -233.869 369.273C-211.853 385.123 -169.457 404.48 -119.232 402.744C-102.177 402.155 -84.6236 399.14 -67.0563 393.054C-68.9948 407.093 -69.2811 420.406 -68.0623 432.999C-63.6714 478.365 -40.079 510.259 -12.7266 528.447C17.9415 548.84 52.6749 555.945 91.3969 549.803C102.282 591.784 125.487 629.176 165.8 654.802C166.27 655.132 166.752 655.453 167.244 655.763C190.199 670.22 233.712 686.916 283.733 682.074C300.719 680.43 318.052 676.335 335.209 669.173C334.143 683.305 334.682 696.611 336.678 709.104C343.868 754.111 369.389 784.484 397.815 800.944C432.311 820.919 470.596 825.063 512.577 813.435C523.303 856.417 546.783 894.735 588.106 920.76L588.161 920.794L588.266 920.86L588.311 920.888C588.424 920.967 588.537 921.045 588.651 921.123C589 921.361 589.356 921.595 589.717 921.822C612.672 936.279 656.184 952.975 706.206 948.134C723.192 946.49 740.525 942.394 757.682 935.232C756.616 949.364 757.154 962.67 759.15 975.163C766.341 1020.17 791.862 1050.54 820.288 1067C865.095 1092.95 916.297 1092.18 973.686 1064.84L1000.65 1051.99C1002.6 1051.06 1003.43 1048.72 1002.5 1046.77L976.806 992.847C975.875 990.893 973.536 990.063 971.582 990.994L944.621 1003.84C902.184 1024.06 875.212 1020.73 854.147 1008.53C842.054 1001.53 829.635 988.052 825.873 964.503C822.058 940.625 826.646 902.78 856.521 847.448C857.528 845.583 856.901 843.232 855.074 842.155L803.46 811.707C801.634 810.629 799.275 811.217 798.117 812.993C765.66 862.785 729.362 878.008 699.697 880.879C667.257 884.018 638.504 872.695 625.724 864.647C625.656 864.604 625.588 864.561 625.52 864.519C625.061 864.198 624.593 863.886 624.114 863.584C600.047 848.428 584.45 824.981 577.362 794.145C584.996 791.808 592.883 789.076 600.857 786.082C624.185 777.324 650.944 765.284 679.045 750.864C735.153 722.07 798.314 682.908 851.971 639.365C904.521 596.719 952.497 546.277 971.822 493.985C981.838 466.883 984.806 437.448 974.63 408.459C964.493 379.579 942.894 355.657 912.374 336.437ZM577.109 722.824C576.215 723.16 575.333 723.487 574.462 723.807C580.157 669.882 601.508 609.075 633.162 552.92C668.245 490.682 713.984 437.7 759.836 407.592C805.651 377.509 844.842 373.758 876.367 393.612C897.814 407.119 907.114 420.124 910.875 430.838C914.598 441.444 914.463 454.27 908.442 470.563C895.693 505.062 859.859 545.945 809.394 586.898C760.035 626.953 700.977 663.662 648.195 690.748C621.85 704.268 597.495 715.17 577.109 722.824ZM152.705 459.097C154.55 458.434 156.454 457.734 158.416 456.995C178.707 449.355 202.931 438.47 229.123 424.97C281.599 397.921 340.252 361.263 389.209 321.265C439.265 280.367 474.703 239.563 487.197 205.145C493.094 188.898 493.176 176.06 489.385 165.397C485.552 154.615 476.162 141.575 454.697 128.056C423.173 108.203 383.981 111.954 338.167 142.037C292.314 172.145 246.575 225.127 211.492 287.364C179.673 343.813 158.264 404.962 152.705 459.097ZM432.728 453.067C433.757 451.313 435.891 450.542 437.804 451.233L500.887 474.008C503.518 474.958 504.515 478.156 502.891 480.433L460.655 539.653C459.385 541.434 456.965 541.95 455.079 540.843L403.779 510.736C401.768 509.555 401.094 506.967 402.275 504.956L432.728 453.067ZM860.041 717.139C858.127 716.448 855.994 717.219 854.964 718.973L824.511 770.862C823.33 772.873 824.004 775.461 826.016 776.641L877.315 806.749C879.202 807.856 881.621 807.34 882.891 805.559L925.128 746.338C926.751 744.062 925.754 740.864 923.124 739.914L860.041 717.139Z" fill="#282C32"/>
</mask>
<g mask="url(#mask0_3044_9713)">
</g>
</g>
<defs>
<clipPath id="clip0_3044_9713">
<rect width="1024" height="1024" rx="500" fill="white"/>
</clipPath>
</defs>
</svg>
