<svg width="22" height="22" viewBox="0 0 22 22" fill="none" xmlns="http://www.w3.org/2000/svg">
<g clip-path="url(#clip0_3024_5739)">
<path opacity="0.2" d="M5.14248 8.64698C6.22787 8.18205 8.17951 7.85463 10.9983 9.28119C14.08 10.8418 16.1262 10.303 17.1359 9.78307C17.2479 10.5457 17.174 11.324 16.9205 12.0519C16.6671 12.7799 16.2415 13.4358 15.6801 13.9639C14.4102 15.1524 12.7359 15.8137 10.9965 15.8137C9.2572 15.8137 7.58291 15.1524 6.31295 13.9639C5.66697 13.3538 5.203 12.5764 4.97267 11.7183C4.74235 10.8601 4.75473 9.95485 5.00842 9.1033L5.14334 8.64698H5.14248Z" fill="white"/>
<path d="M11 15.8125V20.625" stroke="white" stroke-width="1.2" stroke-linecap="round" stroke-linejoin="round"/>
<path d="M7.5625 20.625H14.4375" stroke="white" stroke-width="1.2" stroke-linecap="round" stroke-linejoin="round"/>
<path d="M6.881 2.75H15.1155L16.9881 9.10336C17.2416 9.9552 17.2535 10.8607 17.0226 11.7189C16.7916 12.5772 16.3269 13.3544 15.6801 13.964C14.4102 15.1525 12.7359 15.8137 10.9965 15.8137C9.2572 15.8137 7.58291 15.1525 6.31295 13.964C5.66697 13.3539 5.203 12.5765 4.97267 11.7183C4.74235 10.8602 4.75473 9.95491 5.00842 9.10336L6.881 2.75Z" stroke="white" stroke-width="1.2" stroke-linecap="round" stroke-linejoin="round"/>
<path d="M5.14453 8.64698C6.22992 8.18205 8.18156 7.85463 11.0003 9.28119C14.082 10.8418 16.1282 10.303 17.138 9.78307" stroke="white" stroke-width="1.2" stroke-linecap="round" stroke-linejoin="round"/>
</g>
<defs>
<clipPath id="clip0_3024_5739">
<rect width="22" height="22" fill="white"/>
</clipPath>
</defs>
</svg>
