<svg width="26.000000" height="26.000000" viewBox="0 0 26 26" fill="none" xmlns="http://www.w3.org/2000/svg" xmlns:xlink="http://www.w3.org/1999/xlink">
	<desc>
			Created with Pixso.
	</desc>
	<defs>
		<clipPath id="clip2385_102554">
			<rect id="Buildings" width="26.000000" height="26.000000" fill="white" fill-opacity="0"/>
		</clipPath>
	</defs>
	<rect id="Buildings" width="26.000000" height="26.000000" fill="#FFFFFF" fill-opacity="0"/>
	<g clip-path="url(#clip2385_102554)">
		<g opacity="0.200000">
			<path id="Vector" d="M13.8125 21.9375L13.8125 3.25C13.8125 3.10156 13.7734 2.95898 13.6953 2.83203C13.625 2.70508 13.5156 2.60352 13.3828 2.5332C13.25 2.46484 13.1094 2.43164 12.9609 2.4375C12.8125 2.44531 12.6719 2.49219 12.5469 2.57422L4.42188 7.99023C4.3125 8.06445 4.21875 8.16602 4.15625 8.2832C4.09375 8.40234 4.0625 8.5332 4.0625 8.66797L4.0625 21.9375L13.8125 21.9375Z" fill="#FFFFFF" fill-opacity="1.000000" fill-rule="nonzero"/>
		</g>
		<path id="Vector" d="M13.8125 21.9375L13.8125 3.25C13.8125 3.10156 13.7734 2.95898 13.6953 2.83203C13.625 2.70508 13.5156 2.60352 13.3828 2.5332C13.25 2.46484 13.1094 2.43164 12.9609 2.4375C12.8125 2.44531 12.6719 2.49219 12.5469 2.57422L4.42188 7.99023C4.3125 8.06445 4.21875 8.16602 4.15625 8.2832C4.09375 8.40234 4.0625 8.5332 4.0625 8.66797L4.0625 21.9375" stroke="#FFFFFF" stroke-opacity="1.000000" stroke-width="0.735294" stroke-linejoin="round" stroke-linecap="round"/>
		<path id="Vector" d="M13.8125 8.93945L21.125 8.93945C21.3438 8.93945 21.5469 9.02539 21.7031 9.17773C21.8516 9.33008 21.9375 9.53711 21.9375 9.75195L21.9375 21.9395" stroke="#FFFFFF" stroke-opacity="1.000000" stroke-width="0.735294" stroke-linejoin="round" stroke-linecap="round"/>
		<path id="Vector" d="M1.61719 21.9395L24.3672 21.9395" stroke="#FFFFFF" stroke-opacity="1.000000" stroke-width="0.735294" stroke-linejoin="round" stroke-linecap="round"/>
		<path id="Vector" d="M10.5703 11.377L10.5703 13.002" stroke="#FFFFFF" stroke-opacity="1.000000" stroke-width="0.735294" stroke-linejoin="round" stroke-linecap="round"/>
		<path id="Vector" d="M7.3125 11.377L7.3125 13.002" stroke="#FFFFFF" stroke-opacity="1.000000" stroke-width="0.735294" stroke-linejoin="round" stroke-linecap="round"/>
		<path id="Vector" d="M7.3125 17.0625L7.3125 18.6875" stroke="#FFFFFF" stroke-opacity="1.000000" stroke-width="0.735294" stroke-linejoin="round" stroke-linecap="round"/>
		<path id="Vector" d="M10.5703 17.0625L10.5703 18.6875" stroke="#FFFFFF" stroke-opacity="1.000000" stroke-width="0.735294" stroke-linejoin="round" stroke-linecap="round"/>
	</g>
</svg>
