<svg width="26.000000" height="26.000000" viewBox="0 0 26 26" fill="none" xmlns="http://www.w3.org/2000/svg" xmlns:xlink="http://www.w3.org/1999/xlink">
	<desc>
			Created with Pixso.
	</desc>
	<defs>
		<clipPath id="clip2385_102545">
			<rect id="Hamburger" width="26.000000" height="26.000000" fill="white" fill-opacity="0"/>
		</clipPath>
	</defs>
	<rect id="Hamburger" width="26.000000" height="26.000000" fill="#FFFFFF" fill-opacity="0"/>
	<g clip-path="url(#clip2385_102545)">
		<g opacity="0.200000">
			<path id="Vector" d="M6.90625 16.25L10.9688 17.875L15.0312 16.25L19.0938 17.875L21.125 17.1367L21.125 18.6875C21.125 19.5488 20.7812 20.377 20.1719 20.9863C19.5625 21.5957 18.7344 21.9375 17.875 21.9375L8.125 21.9375C7.26562 21.9375 6.4375 21.5957 5.82812 20.9863C5.21875 20.377 4.875 19.5488 4.875 18.6875L4.875 16.9883L6.90625 16.25Z" fill="#FFFFFF" fill-opacity="1.000000" fill-rule="nonzero"/>
		</g>
		<g opacity="0.200000">
			<path id="Vector" d="M4.88281 9.75C4.75781 9.75195 4.64062 9.72461 4.53125 9.67188C4.42188 9.62109 4.32031 9.54492 4.24219 9.44922C4.16406 9.35547 4.10938 9.24414 4.08594 9.125C4.05469 9.00586 4.05469 8.88281 4.07812 8.76367C4.74219 5.64258 8.48438 3.25 13 3.25C17.5156 3.25 21.2578 5.64258 21.9219 8.76367C21.9453 8.88281 21.9453 9.00586 21.9141 9.125C21.8906 9.24414 21.8359 9.35547 21.7578 9.44922C21.6797 9.54492 21.5859 9.62109 21.4688 9.67188C21.3594 9.72461 21.2422 9.75195 21.1172 9.75L4.88281 9.75Z" fill="#FFFFFF" fill-opacity="1.000000" fill-rule="nonzero"/>
		</g>
		<path id="Vector" d="M4.53125 9.67188C4.42188 9.62109 4.32031 9.54492 4.24219 9.44922C4.16406 9.35547 4.10938 9.24414 4.08594 9.125C4.05469 9.00586 4.05469 8.88281 4.07812 8.76367C4.74219 5.64258 8.48438 3.25 13 3.25C17.5156 3.25 21.2578 5.64258 21.9219 8.76367C21.9453 8.88281 21.9453 9.00586 21.9141 9.125C21.8906 9.24414 21.8359 9.35547 21.7578 9.44922C21.6797 9.54492 21.5859 9.62109 21.4688 9.67188C21.3594 9.72461 21.2422 9.75195 21.1172 9.75L4.88281 9.75C4.75781 9.75195 4.64062 9.72461 4.53125 9.67188Z" stroke="#FFFFFF" stroke-opacity="1.000000" stroke-width="0.925926" stroke-linejoin="round"/>
		<path id="Vector" d="M2.4375 17.875L6.90625 16.25L10.9688 17.875L15.0312 16.25L19.0938 17.875L23.5625 16.25" stroke="#FFFFFF" stroke-opacity="1.000000" stroke-width="0.925926" stroke-linejoin="round" stroke-linecap="round"/>
		<path id="Vector" d="M2.4375 13L23.5625 13" stroke="#FFFFFF" stroke-opacity="1.000000" stroke-width="0.925926" stroke-linejoin="round" stroke-linecap="round"/>
		<path id="Vector" d="M21.125 17.1367L21.125 18.6875C21.125 19.5488 20.7812 20.377 20.1719 20.9863C19.5625 21.5957 18.7344 21.9375 17.875 21.9375L8.125 21.9375C7.26562 21.9375 6.4375 21.5957 5.82812 20.9863C5.21875 20.377 4.875 19.5488 4.875 18.6875L4.875 16.9883" stroke="#FFFFFF" stroke-opacity="1.000000" stroke-width="0.925926" stroke-linejoin="round" stroke-linecap="round"/>
	</g>
</svg>
