<svg width="26.000000" height="26.000000" viewBox="0 0 26 26" fill="none" xmlns="http://www.w3.org/2000/svg" xmlns:xlink="http://www.w3.org/1999/xlink">
	<desc>
			Created with Pixso.
	</desc>
	<defs>
		<clipPath id="clip2385_102570">
			<rect id="Person" width="26.000000" height="26.000000" fill="white" fill-opacity="0"/>
		</clipPath>
	</defs>
	<rect id="Person" width="26.000000" height="26.000000" fill="#FFFFFF" fill-opacity="0"/>
	<g clip-path="url(#clip2385_102570)">
		<g opacity="0.200000">
			<path id="Vector" d="M15.4375 4.0625C15.4375 5.4082 14.3438 6.5 13 6.5C11.6562 6.5 10.5625 5.4082 10.5625 4.0625C10.5625 2.7168 11.6562 1.625 13 1.625C14.3438 1.625 15.4375 2.7168 15.4375 4.0625Z" fill="#FFFFFF" fill-opacity="1.000000" fill-rule="evenodd"/>
		</g>
		<g opacity="0.200000">
			<path id="Vector" d="M15.1484 8.12695C15.4922 8.12695 15.8359 8.20117 16.1484 8.34375C16.4609 8.48633 16.7422 8.69336 16.9766 8.95312L21.5781 14.1719C21.6875 14.2852 21.7812 14.418 21.8438 14.5664C21.8984 14.7148 21.9375 14.873 21.9375 15.0352C21.9375 15.1953 21.8984 15.3535 21.8438 15.502C21.7812 15.6504 21.6875 15.7832 21.5781 15.8984C21.4609 16.0117 21.3281 16.1016 21.1797 16.1621C21.0312 16.2227 20.875 16.2559 20.7109 16.2559C20.5547 16.2559 20.3906 16.2227 20.2422 16.1621C20.1016 16.1016 19.9609 16.0117 19.8516 15.8984L16.2422 13.002L18.5703 21.8301C18.6953 22.123 18.7109 22.4551 18.6016 22.7559C18.4844 23.0547 18.2578 23.2988 17.9688 23.4336C17.6797 23.5703 17.3516 23.5859 17.0469 23.4785C16.7422 23.3711 16.5 23.1484 16.3594 22.8613L12.9922 17.0645L9.63281 22.8613C9.49219 23.1484 9.24219 23.3711 8.94531 23.4785C8.64062 23.5859 8.3125 23.5703 8.01562 23.4336C7.72656 23.2988 7.50781 23.0547 7.39062 22.7559C7.28125 22.4551 7.28906 22.123 7.42188 21.8301L9.74219 13.002L6.14062 15.8945C5.90625 16.125 5.60156 16.2539 5.27344 16.2539C4.95312 16.2539 4.64062 16.125 4.41406 15.8945C4.17969 15.666 4.05469 15.3555 4.05469 15.0312C4.05469 14.709 4.17969 14.3984 4.41406 14.168L9.01562 8.95312C9.24219 8.69336 9.52344 8.48633 9.84375 8.34375C10.1562 8.20117 10.5 8.12695 10.8438 8.12695L15.1484 8.12695Z" fill="#FFFFFF" fill-opacity="1.000000" fill-rule="nonzero"/>
		</g>
		<path id="Vector" d="M13 6.5C11.6562 6.5 10.5625 5.4082 10.5625 4.0625C10.5625 2.7168 11.6562 1.625 13 1.625C14.3438 1.625 15.4375 2.7168 15.4375 4.0625C15.4375 5.4082 14.3438 6.5 13 6.5Z" stroke="#FFFFFF" stroke-opacity="1.000000" stroke-width="0.757576" stroke-linejoin="round"/>
		<path id="Vector" d="M16.1484 8.34375C16.4609 8.48633 16.7422 8.69336 16.9766 8.95312L21.5781 14.1719C21.6875 14.2852 21.7812 14.418 21.8438 14.5664C21.8984 14.7148 21.9375 14.873 21.9375 15.0352C21.9375 15.1953 21.8984 15.3535 21.8438 15.502C21.7812 15.6504 21.6875 15.7832 21.5781 15.8984C21.4609 16.0117 21.3281 16.1016 21.1797 16.1621C21.0312 16.2227 20.875 16.2559 20.7109 16.2559C20.5547 16.2559 20.3906 16.2227 20.2422 16.1621C20.1016 16.1016 19.9609 16.0117 19.8516 15.8984L16.2422 13.002L18.5703 21.8301C18.6953 22.123 18.7109 22.4551 18.6016 22.7559C18.4844 23.0547 18.2578 23.2988 17.9688 23.4336C17.6797 23.5703 17.3516 23.5859 17.0469 23.4785C16.7422 23.3711 16.5 23.1484 16.3594 22.8613L12.9922 17.0645L9.63281 22.8613C9.49219 23.1484 9.24219 23.3711 8.94531 23.4785C8.64062 23.5859 8.3125 23.5703 8.01562 23.4336C7.72656 23.2988 7.50781 23.0547 7.39062 22.7559C7.28125 22.4551 7.28906 22.123 7.42188 21.8301L9.74219 13.002L6.14062 15.8945C5.90625 16.125 5.60156 16.2539 5.27344 16.2539C4.95312 16.2539 4.64062 16.125 4.41406 15.8945C4.17969 15.666 4.05469 15.3555 4.05469 15.0312C4.05469 14.709 4.17969 14.3984 4.41406 14.168L9.01562 8.95312C9.24219 8.69336 9.52344 8.48633 9.84375 8.34375C10.1562 8.20117 10.5 8.12695 10.8438 8.12695L15.1484 8.12695C15.4922 8.12695 15.8359 8.20117 16.1484 8.34375Z" stroke="#FFFFFF" stroke-opacity="1.000000" stroke-width="0.757576" stroke-linejoin="round"/>
	</g>
</svg>
