<svg width="169.000000" height="58.000000" viewBox="0 0 169 58" fill="none" xmlns="http://www.w3.org/2000/svg" xmlns:xlink="http://www.w3.org/1999/xlink">
	<desc>
			Created with Pixso.
	</desc>
	<defs/>
	<rect id="App store" rx="12.000000" width="169.000000" height="58.000000" fill="#F9BF42" fill-opacity="1.000000"/>
	<path id="&lt;Path&gt;" d="M33.5156 29.2051C33.5312 27.9941 33.8516 26.8066 34.4531 25.7539C35.0547 24.7031 35.9062 23.8184 36.9453 23.1836C36.2891 22.248 35.4219 21.4785 34.4141 20.9355C33.4062 20.3926 32.2812 20.0918 31.1406 20.0547C28.6953 19.7988 26.3281 21.5117 25.0859 21.5117C23.8203 21.5117 21.8984 20.0801 19.8359 20.123C18.5078 20.166 17.2031 20.5527 16.0625 21.2461C14.9219 21.9395 13.9844 22.916 13.3359 24.0781C10.5234 28.9336 12.6172 36.0684 15.3125 39.9941C16.6641 41.916 18.2344 44.0625 20.2969 43.9863C22.3125 43.9023 23.0703 42.7031 25.5 42.7031C27.9141 42.7031 28.625 43.9863 30.7266 43.9375C32.8906 43.9023 34.25 42.0078 35.5547 40.0664C36.5234 38.6973 37.2656 37.1855 37.7578 35.584C36.5 35.0527 35.4297 34.166 34.6797 33.0312C33.9219 31.8965 33.5156 30.5664 33.5156 29.2051Z" fill="#282C32" fill-opacity="1.000000" fill-rule="nonzero"/>
	<path id="&lt;Path&gt;" d="M29.5391 17.4727C30.7188 16.0605 31.3047 14.2461 31.1641 12.4121C29.3594 12.6016 27.6953 13.4609 26.5 14.8184C25.9141 15.4824 25.4688 16.2539 25.1797 17.0898C24.8906 17.9277 24.7734 18.8105 24.8359 19.6934C25.7344 19.7012 26.625 19.5078 27.4453 19.123C28.2578 18.7383 28.9766 18.1738 29.5391 17.4727Z" fill="#282C32" fill-opacity="1.000000" fill-rule="nonzero"/>
	<path id="Vector" d="M59.0156 39.1191L52.1328 39.1191L50.4766 43.9863L47.5625 43.9863L54.0781 25.9805L57.1094 25.9805L63.6328 43.9863L60.6641 43.9863L59.0156 39.1191ZM52.8438 36.873L58.2969 36.873L55.6094 28.9746L55.5312 28.9746L52.8438 36.873Z" fill="#282C32" fill-opacity="1.000000" fill-rule="nonzero"/>
	<path id="Vector" d="M77.7109 37.4219C77.7109 41.5 75.5234 44.1211 72.2188 44.1211C71.3828 44.166 70.5469 43.9727 69.8203 43.5664C69.0859 43.1602 68.4844 42.5566 68.0781 41.8242L68.0156 41.8242L68.0156 48.3281L65.3125 48.3281L65.3125 30.8574L67.9297 30.8574L67.9297 33.041L67.9766 33.041C68.3984 32.3105 69.0156 31.7109 69.75 31.3027C70.4922 30.8945 71.3281 30.6914 72.1719 30.7188C75.5078 30.7188 77.7109 33.3535 77.7109 37.4219ZM74.9375 37.4219C74.9375 34.7637 73.5547 33.0156 71.4531 33.0156C69.3906 33.0156 68 34.8008 68 37.4219C68 40.0664 69.3906 41.8379 71.4531 41.8379C73.5547 41.8379 74.9375 40.1035 74.9375 37.4219Z" fill="#282C32" fill-opacity="1.000000" fill-rule="nonzero"/>
	<path id="Vector" d="M92.1953 37.4219C92.1953 41.5 90.0078 44.1211 86.7031 44.1211C85.8672 44.166 85.0312 43.9727 84.3047 43.5664C83.5703 43.1602 82.9688 42.5566 82.5625 41.8242L82.5 41.8242L82.5 48.3281L79.7969 48.3281L79.7969 30.8574L82.4141 30.8574L82.4141 33.041L82.4609 33.041C82.8828 32.3105 83.5 31.7109 84.2344 31.3027C84.9766 30.8945 85.8125 30.6914 86.6562 30.7188C89.9922 30.7188 92.1953 33.3535 92.1953 37.4219ZM89.4219 37.4219C89.4219 34.7637 88.0391 33.0156 85.9375 33.0156C83.875 33.0156 82.4844 34.8008 82.4844 37.4219C82.4844 40.0664 83.875 41.8379 85.9375 41.8379C88.0391 41.8379 89.4219 40.1035 89.4219 37.4219L89.4219 37.4219Z" fill="#282C32" fill-opacity="1.000000" fill-rule="nonzero"/>
	<path id="Vector" d="M101.773 38.9688C101.977 40.7539 103.711 41.9277 106.094 41.9277C108.367 41.9277 110.008 40.7539 110.008 39.1445C110.008 37.7461 109.016 36.9102 106.68 36.3359L104.336 35.7754C101.023 34.9766 99.4844 33.4297 99.4844 30.9199C99.4844 27.8145 102.195 25.6797 106.055 25.6797C109.867 25.6797 112.484 27.8145 112.57 30.9199L109.844 30.9199C109.68 29.123 108.195 28.0391 106.016 28.0391C103.836 28.0391 102.352 29.1367 102.352 30.7344C102.352 32.0059 103.297 32.7559 105.625 33.3281L107.617 33.8164C111.32 34.6895 112.859 36.1738 112.859 38.8066C112.859 42.1758 110.172 44.2852 105.891 44.2852C101.883 44.2852 99.1797 42.2266 99.0078 38.9688L101.773 38.9688Z" fill="#282C32" fill-opacity="1.000000" fill-rule="nonzero"/>
	<path id="Vector" d="M118.695 27.752L118.695 30.8594L121.195 30.8594L121.195 32.9922L118.695 32.9922L118.695 40.2305C118.695 41.3535 119.195 41.8789 120.297 41.8789C120.594 41.873 120.891 41.8516 121.18 41.8164L121.18 43.9375C120.688 44.0293 120.188 44.0703 119.68 44.0625C117.016 44.0625 115.977 43.0625 115.977 40.5176L115.977 32.9922L114.062 32.9922L114.062 30.8594L115.977 30.8594L115.977 27.752L118.695 27.752Z" fill="#282C32" fill-opacity="1.000000" fill-rule="nonzero"/>
	<path id="Vector" d="M122.648 37.4238C122.648 33.293 125.086 30.6973 128.891 30.6973C132.711 30.6973 135.141 33.293 135.141 37.4238C135.141 41.5645 132.719 44.1484 128.891 44.1484C125.062 44.1484 122.648 41.5645 122.648 37.4238ZM132.383 37.4238C132.383 34.5898 131.078 32.918 128.891 32.918C126.703 32.918 125.398 34.6035 125.398 37.4238C125.398 40.2676 126.703 41.9277 128.891 41.9277C131.078 41.9277 132.383 40.2676 132.383 37.4238L132.383 37.4238Z" fill="#282C32" fill-opacity="1.000000" fill-rule="nonzero"/>
	<path id="Vector" d="M137.367 30.8594L139.945 30.8594L139.945 33.0938L140.008 33.0938C140.18 32.3945 140.594 31.7773 141.172 31.3457C141.742 30.9141 142.453 30.6934 143.172 30.7207C143.484 30.7207 143.797 30.7539 144.102 30.8223L144.102 33.3418C143.703 33.2227 143.297 33.168 142.883 33.1797C142.492 33.1641 142.102 33.2324 141.734 33.3809C141.375 33.5312 141.047 33.7559 140.781 34.043C140.516 34.3301 140.312 34.6719 140.188 35.043C140.062 35.416 140.023 35.8105 140.07 36.1992L140.07 43.9863L137.367 43.9863L137.367 30.8594Z" fill="#282C32" fill-opacity="1.000000" fill-rule="nonzero"/>
	<path id="Vector" d="M156.555 40.1309C156.195 42.5137 153.867 44.1484 150.883 44.1484C147.055 44.1484 144.68 41.5898 144.68 37.4863C144.68 33.3672 147.07 30.6973 150.773 30.6973C154.414 30.6973 156.703 33.1914 156.703 37.1719L156.703 38.0957L147.406 38.0957L147.406 38.2578C147.367 38.7422 147.422 39.2285 147.586 39.6875C147.742 40.1445 148 40.5625 148.336 40.9141C148.672 41.2676 149.078 41.543 149.531 41.7266C149.977 41.9102 150.461 41.9941 150.945 41.9766C151.586 42.0371 152.227 41.8887 152.773 41.5566C153.32 41.2246 153.75 40.7246 153.992 40.1309L156.555 40.1309ZM147.422 36.2129L154 36.2129C154.023 35.7773 153.961 35.3438 153.805 34.9355C153.656 34.5273 153.422 34.1562 153.117 33.8438C152.812 33.5312 152.453 33.2832 152.047 33.1172C151.641 32.9512 151.211 32.8711 150.773 32.8809C150.336 32.8789 149.898 32.9629 149.492 33.1289C149.086 33.2949 148.711 33.541 148.398 33.8496C148.086 34.1602 147.844 34.5273 147.672 34.9336C147.508 35.3398 147.422 35.7734 147.422 36.2129L147.422 36.2129Z" fill="#282C32" fill-opacity="1.000000" fill-rule="nonzero"/>
	<path id="Vector" d="M52.5 12.4258C53.0703 12.3848 53.6328 12.4707 54.1641 12.6758C54.6953 12.8809 55.1719 13.2012 55.5625 13.6113C55.9531 14.0234 56.25 14.5156 56.4219 15.0547C56.6016 15.5918 56.6562 16.1621 56.5859 16.7246C56.5859 19.4883 55.0859 21.0781 52.5 21.0781L49.3672 21.0781L49.3672 12.4258L52.5 12.4258ZM50.7109 19.8535L52.3516 19.8535C52.7578 19.8789 53.1641 19.8125 53.5391 19.6602C53.9141 19.5078 54.25 19.2754 54.5234 18.9766C54.7969 18.6797 55 18.3242 55.1172 17.9375C55.2422 17.5508 55.2734 17.1426 55.2109 16.7422C55.2656 16.3438 55.2344 15.9375 55.1094 15.5547C54.9922 15.1699 54.7891 14.8184 54.5156 14.5234C54.2422 14.2266 53.9062 13.9961 53.5312 13.8438C53.1562 13.6934 52.75 13.627 52.3516 13.6484L50.7109 13.6484L50.7109 19.8535Z" fill="#282C32" fill-opacity="1.000000" fill-rule="nonzero"/>
	<path id="Vector" d="M58.1094 17.8125C58.0703 17.3828 58.1172 16.9492 58.25 16.541C58.3906 16.1309 58.6094 15.7559 58.8984 15.4375C59.1953 15.1172 59.5469 14.8633 59.9375 14.6875C60.3359 14.5137 60.7656 14.4238 61.1953 14.4238C61.625 14.4238 62.0547 14.5137 62.4531 14.6875C62.8438 14.8633 63.2031 15.1172 63.4922 15.4375C63.7812 15.7559 64 16.1309 64.1406 16.541C64.2734 16.9492 64.3281 17.3828 64.2812 17.8125C64.3281 18.2402 64.2734 18.6738 64.1406 19.084C64.0078 19.4941 63.7812 19.8711 63.4922 20.1895C63.2031 20.5098 62.8516 20.7656 62.4531 20.9395C62.0547 21.1152 61.625 21.2051 61.1953 21.2051C60.7656 21.2051 60.3359 21.1152 59.9375 20.9395C59.5469 20.7656 59.1875 20.5098 58.8984 20.1895C58.6094 19.8711 58.3906 19.4941 58.25 19.084C58.1172 18.6738 58.0703 18.2402 58.1094 17.8125ZM62.9531 17.8125C62.9531 16.3965 62.3203 15.5684 61.1953 15.5684C60.0781 15.5684 59.4453 16.3965 59.4453 17.8125C59.4453 19.2383 60.0781 20.0586 61.1953 20.0586C62.3203 20.0586 62.9531 19.2324 62.9531 17.8125L62.9531 17.8125Z" fill="#282C32" fill-opacity="1.000000" fill-rule="nonzero"/>
	<path id="Vector" d="M72.4922 21.0781L71.1562 21.0781L69.8047 16.2695L69.6953 16.2695L68.3516 21.0781L67.0234 21.0781L65.2188 14.5488L66.5312 14.5488L67.7031 19.5312L67.7969 19.5312L69.1484 14.5488L70.3828 14.5488L71.7344 19.5312L71.8359 19.5312L73 14.5488L74.2891 14.5488L72.4922 21.0781Z" fill="#282C32" fill-opacity="1.000000" fill-rule="nonzero"/>
	<path id="Vector" d="M75.8047 14.5488L77.0469 14.5488L77.0469 15.5859L77.1484 15.5859C77.3125 15.2129 77.5859 14.9004 77.9375 14.6914C78.2891 14.4844 78.6953 14.3887 79.1016 14.4219C79.4141 14.3984 79.7344 14.4473 80.0312 14.5625C80.3359 14.6797 80.6016 14.8594 80.8203 15.0938C81.0391 15.3262 81.1953 15.6055 81.2891 15.9102C81.3906 16.2148 81.4141 16.5352 81.3672 16.8516L81.3672 21.0781L80.0703 21.0781L80.0703 17.1738C80.0703 16.125 79.6172 15.6035 78.6641 15.6035C78.4453 15.5938 78.2266 15.6309 78.0234 15.7109C77.8281 15.791 77.6484 15.916 77.5 16.0723C77.3516 16.2305 77.2344 16.416 77.1641 16.6211C77.1016 16.8262 77.0703 17.043 77.0938 17.2578L77.0938 21.0781L75.8047 21.0781L75.8047 14.5488Z" fill="#282C32" fill-opacity="1.000000" fill-rule="nonzero"/>
	<path id="Vector" d="M83.4219 12L84.7109 12L84.7109 21.0781L83.4219 21.0781L83.4219 12Z" fill="#282C32" fill-opacity="1.000000" fill-rule="nonzero"/>
	<path id="Vector" d="M86.5156 17.8125C86.4766 17.3828 86.5234 16.9492 86.6562 16.541C86.7969 16.1309 87.0156 15.7559 87.3047 15.4375C87.6016 15.1172 87.9531 14.8633 88.3438 14.6875C88.7422 14.5137 89.1719 14.4238 89.6016 14.4238C90.0312 14.4238 90.4609 14.5137 90.8594 14.6875C91.25 14.8633 91.6094 15.1172 91.8984 15.4375C92.1875 15.7559 92.4062 16.1309 92.5469 16.541C92.6797 16.9492 92.7344 17.3828 92.6875 17.8125C92.7344 18.2422 92.6875 18.6738 92.5469 19.084C92.4141 19.4941 92.1875 19.8711 91.8984 20.1895C91.6094 20.5098 91.2578 20.7656 90.8594 20.9395C90.4609 21.1152 90.0391 21.2051 89.6016 21.2051C89.1719 21.2051 88.7422 21.1152 88.3438 20.9395C87.9531 20.7656 87.5938 20.5098 87.3047 20.1895C87.0156 19.8711 86.7969 19.4941 86.6562 19.084C86.5234 18.6738 86.4766 18.2422 86.5156 17.8125ZM91.3594 17.8125C91.3594 16.3965 90.7266 15.5684 89.6016 15.5684C88.4844 15.5684 87.8516 16.3965 87.8516 17.8125C87.8516 19.2383 88.4844 20.0605 89.6016 20.0605C90.7266 20.0605 91.3594 19.2324 91.3594 17.8125L91.3594 17.8125Z" fill="#282C32" fill-opacity="1.000000" fill-rule="nonzero"/>
	<path id="Vector" d="M94.0469 19.2324C94.0469 18.0566 94.9219 17.3789 96.4844 17.2832L98.2578 17.1816L98.2578 16.6172C98.2578 15.9277 97.7969 15.5391 96.9141 15.5391C96.1953 15.5391 95.6953 15.8027 95.5469 16.2637L94.2969 16.2637C94.4297 15.1426 95.4922 14.4238 96.9766 14.4238C98.6172 14.4238 99.5391 15.2383 99.5391 16.6172L99.5391 21.0781L98.2969 21.0781L98.2969 20.1621L98.1953 20.1621C97.9922 20.4902 97.6953 20.7598 97.3516 20.9395C97.0078 21.1191 96.6172 21.2051 96.2266 21.1875C95.9531 21.2148 95.6797 21.1855 95.4141 21.1016C95.1484 21.0156 94.9062 20.877 94.7031 20.6934C94.5 20.5078 94.3359 20.2832 94.2188 20.0312C94.1094 19.7812 94.0469 19.5078 94.0469 19.2324ZM98.2578 18.6738L98.2578 18.1289L96.6562 18.2305C95.7578 18.291 95.3438 18.5977 95.3438 19.1719C95.3438 19.7598 95.8594 20.1016 96.5625 20.1016C96.7656 20.123 96.9766 20.1016 97.1719 20.041C97.3672 19.9805 97.5547 19.8809 97.7109 19.7461C97.8672 19.6133 98 19.4492 98.0938 19.2656C98.1875 19.082 98.2422 18.8809 98.2578 18.6738Z" fill="#282C32" fill-opacity="1.000000" fill-rule="nonzero"/>
	<path id="Vector" d="M101.242 17.8105C101.242 15.748 102.305 14.4414 103.961 14.4414C104.367 14.4219 104.773 14.5195 105.133 14.7227C105.484 14.9258 105.773 15.2246 105.969 15.5859L106.062 15.5859L106.062 12L107.359 12L107.359 21.0781L106.117 21.0781L106.117 20.0469L106.016 20.0469C105.812 20.4062 105.508 20.7012 105.148 20.9023C104.781 21.1035 104.375 21.2012 103.961 21.1855C102.297 21.1855 101.242 19.8789 101.242 17.8105ZM102.578 17.8105C102.578 19.1953 103.234 20.0293 104.328 20.0293C105.414 20.0293 106.086 19.1836 106.086 17.8164C106.086 16.4551 105.406 15.5977 104.328 15.5977C103.242 15.5977 102.578 16.4375 102.578 17.8105L102.578 17.8105Z" fill="#282C32" fill-opacity="1.000000" fill-rule="nonzero"/>
	<path id="Vector" d="M112.703 17.8125C112.664 17.3828 112.711 16.9492 112.844 16.541C112.984 16.1309 113.203 15.7559 113.492 15.4375C113.789 15.1172 114.141 14.8633 114.531 14.6875C114.93 14.5137 115.359 14.4238 115.789 14.4238C116.219 14.4238 116.648 14.5137 117.047 14.6875C117.438 14.8633 117.797 15.1172 118.086 15.4375C118.375 15.7559 118.594 16.1309 118.734 16.541C118.867 16.9492 118.922 17.3828 118.875 17.8125C118.922 18.2402 118.867 18.6738 118.734 19.084C118.602 19.4941 118.375 19.8711 118.086 20.1895C117.797 20.5098 117.445 20.7656 117.047 20.9395C116.648 21.1152 116.219 21.2051 115.789 21.2051C115.359 21.2051 114.93 21.1152 114.531 20.9395C114.141 20.7656 113.781 20.5098 113.492 20.1895C113.203 19.8711 112.984 19.4941 112.844 19.084C112.711 18.6738 112.664 18.2402 112.703 17.8125ZM117.547 17.8125C117.547 16.3965 116.914 15.5684 115.789 15.5684C114.672 15.5684 114.039 16.3965 114.039 17.8125C114.039 19.2383 114.672 20.0586 115.789 20.0586C116.914 20.0586 117.547 19.2324 117.547 17.8125Z" fill="#282C32" fill-opacity="1.000000" fill-rule="nonzero"/>
	<path id="Vector" d="M120.617 14.5488L121.859 14.5488L121.859 15.5859L121.961 15.5859C122.125 15.2129 122.398 14.9004 122.75 14.6914C123.102 14.4844 123.508 14.3887 123.914 14.4219C124.227 14.3984 124.547 14.4473 124.844 14.5625C125.148 14.6797 125.414 14.8594 125.633 15.0938C125.852 15.3262 126.008 15.6055 126.102 15.9102C126.203 16.2148 126.227 16.5352 126.18 16.8516L126.18 21.0781L124.883 21.0781L124.883 17.1738C124.883 16.125 124.43 15.6035 123.477 15.6035C123.258 15.5938 123.039 15.6309 122.836 15.7109C122.641 15.791 122.461 15.916 122.312 16.0723C122.164 16.2305 122.047 16.416 121.977 16.6211C121.914 16.8262 121.883 17.043 121.906 17.2578L121.906 21.0781L120.617 21.0781L120.617 14.5488Z" fill="#282C32" fill-opacity="1.000000" fill-rule="nonzero"/>
	<path id="Vector" d="M133.477 12.9238L133.477 14.5801L134.891 14.5801L134.891 15.6641L133.477 15.6641L133.477 19.0215C133.477 19.7051 133.758 20.0059 134.398 20.0059C134.562 20.0039 134.727 19.9941 134.891 19.9746L134.891 21.0488C134.664 21.0898 134.422 21.1133 134.188 21.1152C132.75 21.1152 132.18 20.6113 132.18 19.3516L132.18 15.6641L131.141 15.6641L131.141 14.5781L132.18 14.5781L132.18 12.9238L133.477 12.9238Z" fill="#282C32" fill-opacity="1.000000" fill-rule="nonzero"/>
	<path id="Vector" d="M136.664 12L137.945 12L137.945 15.5977L138.047 15.5977C138.219 15.2227 138.5 14.9082 138.859 14.6992C139.219 14.4902 139.633 14.3945 140.047 14.4277C140.359 14.4121 140.68 14.4648 140.969 14.582C141.266 14.7012 141.531 14.8848 141.742 15.1172C141.961 15.3496 142.125 15.627 142.219 15.9277C142.312 16.2305 142.344 16.5488 142.297 16.8633L142.297 21.0781L141.008 21.0781L141.008 17.1797C141.008 16.1367 140.516 15.6094 139.602 15.6094C139.383 15.5918 139.156 15.6211 138.953 15.6992C138.742 15.7754 138.555 15.8965 138.398 16.0547C138.234 16.2129 138.117 16.4023 138.039 16.6113C137.969 16.8203 137.938 17.043 137.953 17.2656L137.953 21.0781L136.664 21.0781L136.664 12Z" fill="#282C32" fill-opacity="1.000000" fill-rule="nonzero"/>
	<path id="Vector" d="M149.828 19.3164C149.648 19.9121 149.273 20.4297 148.75 20.7754C148.234 21.1191 147.609 21.2715 146.992 21.2051C146.562 21.2168 146.133 21.1348 145.734 20.9629C145.336 20.793 144.984 20.5391 144.695 20.2188C144.406 19.8984 144.195 19.5176 144.07 19.1074C143.938 18.6953 143.906 18.2617 143.969 17.8359C143.906 17.4082 143.945 16.9727 144.07 16.5605C144.195 16.1465 144.406 15.7656 144.695 15.4434C144.984 15.1191 145.336 14.8613 145.727 14.6855C146.125 14.5098 146.555 14.4199 146.984 14.4238C148.805 14.4238 149.906 15.666 149.906 17.7148L149.906 18.166L145.281 18.166L145.281 18.2363C145.258 18.4766 145.289 18.7188 145.367 18.9453C145.445 19.1719 145.578 19.3809 145.742 19.5566C145.906 19.7324 146.102 19.873 146.32 19.9688C146.547 20.0625 146.781 20.1113 147.023 20.1074C147.336 20.1445 147.648 20.0898 147.922 19.9492C148.203 19.8066 148.43 19.5879 148.586 19.3164L149.828 19.3164ZM145.281 17.2129L148.586 17.2129C148.602 16.9922 148.578 16.7734 148.5 16.5664C148.43 16.3594 148.312 16.1699 148.156 16.0098C148.008 15.8516 147.82 15.7246 147.617 15.6406C147.414 15.5566 147.195 15.5156 146.977 15.5215C146.75 15.5176 146.531 15.5605 146.328 15.6445C146.117 15.7285 145.93 15.8516 145.773 16.0098C145.617 16.168 145.492 16.3555 145.406 16.5625C145.32 16.7676 145.281 16.9883 145.281 17.2129L145.281 17.2129Z" fill="#282C32" fill-opacity="1.000000" fill-rule="nonzero"/>
</svg>
