<svg width="74.046875" height="43.000000" viewBox="0 0 74.0469 43" fill="none" xmlns="http://www.w3.org/2000/svg" xmlns:xlink="http://www.w3.org/1999/xlink">
	<desc>
			Created with Pixso.
	</desc>
	<defs/>
	<path id="Union" d="M3.77344 7.19336C5.58594 3.22656 8.74219 0 13.4531 0C15.7344 0 17.7031 0.550781 19.2266 1.75C20.75 2.95312 21.5938 4.625 21.9844 6.41211C22.7344 9.85938 21.8828 14.1738 20.5234 18.2227C19.1406 22.3574 17.0938 26.5781 15.0703 30.0078C14.0547 31.7266 13.0312 33.2715 12.0859 34.5273C11.7188 35.0117 11.3438 35.4766 10.9688 35.8984C12.3828 37.2969 14.0078 38.0176 15.7969 38.0176C15.8359 38.0176 15.8672 38.0195 15.9062 38.0195C16.875 38.0098 18.7656 37.6367 20.375 36.3926C21.8906 35.2207 23.3438 33.1426 23.3672 29.2832C23.3672 29.2266 23.4062 29.1797 23.4688 29.1797L27.5469 29.0605C27.6016 29.0605 27.6484 29.1035 27.6484 29.1582C27.9062 33.2266 28.9453 35.4492 29.9688 36.6152C30.9688 37.752 32.0938 38.0547 32.9766 38.0215C34.3047 37.9727 35.6484 37.4219 37.0156 35.6582C36.9375 35.5332 36.8672 35.4082 36.7891 35.2812C34.5469 31.3457 33.3438 26.2402 33.1016 21.2559C32.8594 16.2754 33.5625 11.1582 35.3672 7.19336C37.1797 3.22656 40.3359 0 45.0469 0C47.3281 0 49.2969 0.552734 50.8203 1.75977C52.3438 2.97266 53.1797 4.65039 53.5547 6.44336C54.2891 9.90039 53.4141 14.2285 52.0391 18.291C50.6328 22.4395 48.5625 26.6738 46.5312 30.1152C45.5078 31.8379 44.4766 33.3887 43.5234 34.6465C43.1953 35.0762 42.8672 35.4883 42.5391 35.873C43.9609 37.2871 45.5859 38.0176 47.3906 38.0176C47.4297 38.0176 47.4688 38.0195 47.5078 38.0215L47.5078 38.0215C48.4688 38.0215 50.3906 37.6562 52.0234 36.3926C53.5391 35.2207 54.9922 33.1426 55.0156 29.2832C55.0156 29.2266 55.0547 29.1797 55.1172 29.1797L59.1953 29.0605C59.25 29.0605 59.2969 29.1035 59.2969 29.1582C59.5547 33.2266 60.5938 35.4492 61.6172 36.6152C62.6172 37.752 63.7422 38.0547 64.625 38.0215C66.1641 37.9648 67.7266 37.2324 69.3203 34.7148L70.4062 32.9902C70.4375 32.9434 70.5 32.9277 70.5547 32.959L74 35.1387C74.0469 35.1699 74.0625 35.2324 74.0312 35.2812L72.9375 37.0039C70.7812 40.4102 68.0625 42.1816 64.7812 42.3027C62.7031 42.3809 60.3047 41.6133 58.3984 39.4414C57.875 38.8379 57.3906 38.1426 56.9688 37.3496C56.2969 38.3125 55.5 39.1191 54.6484 39.7812C52.125 41.7305 49.2266 42.3047 47.5078 42.3047C47.4688 42.3047 47.4297 42.3027 47.3906 42.3008L47.3906 42.3008C44.2969 42.3008 41.7422 41.0391 39.7109 39.0957C37.8516 41.1387 35.6562 42.209 33.1328 42.3027C31.0547 42.3809 28.6562 41.6133 26.75 39.4414C26.2266 38.8379 25.7422 38.1426 25.3203 37.3496C24.6484 38.3125 23.8516 39.1191 23 39.7812C20.4766 41.7305 17.5781 42.3047 15.8594 42.3047C15.8203 42.3047 15.7812 42.3027 15.7422 42.3008C11.6953 42.2832 8.58594 40.1055 6.35938 37.0762C6.34375 37.0586 6.33594 37.041 6.32031 37.0234C6.30469 36.998 6.28125 36.9727 6.26562 36.9473C5.88281 36.4141 5.53125 35.8574 5.19531 35.2812C2.95312 31.3457 1.75 26.2402 1.50781 21.2559C1.26562 16.2754 1.96875 11.1582 3.77344 7.19336ZM8.4375 32.2441C8.50781 32.1465 8.58594 32.0449 8.67188 31.9395C9.5 30.8438 10.4297 29.4414 11.3828 27.832C13.2812 24.6094 15.1875 20.6602 16.4688 16.8613C17.7656 12.9766 18.2891 9.58984 17.7969 7.32031C17.5625 6.25 17.1328 5.55859 16.5703 5.11523C16 4.66602 15.0625 4.2832 13.4531 4.2832C11.0859 4.2832 9.10938 5.80859 7.67188 8.9707C6.22656 12.1348 5.5625 16.5215 5.78906 21.0469C5.98438 25.1504 6.90625 29.1523 8.4375 32.2441ZM40.1094 32.0547C40.0781 32.1035 40.0391 32.1504 40.0078 32.1973C38.4844 29.1113 37.5781 25.1289 37.3828 21.0469C37.1562 16.5215 37.8203 12.1348 39.2656 8.9707C40.7031 5.80859 42.6797 4.2832 45.0469 4.2832C46.6484 4.2832 47.5859 4.66797 48.1562 5.11523C48.7109 5.55859 49.1406 6.25 49.3672 7.32812C49.8438 9.60938 49.3047 13.0137 47.9844 16.916C46.6875 20.7324 44.7578 24.6953 42.8438 27.9316C41.8828 29.5469 40.9453 30.9551 40.1094 32.0547ZM23.2578 22.4609C23.2578 22.332 23.3438 22.2188 23.4688 22.1914L27.625 21.2812C27.7969 21.2422 27.9609 21.3809 27.9453 21.5586L27.6797 26.1621C27.6719 26.3008 27.5625 26.4102 27.4219 26.4141L23.6562 26.5312C23.5078 26.5371 23.3828 26.4199 23.375 26.2734L23.2578 22.4609ZM55.0938 22.1914C54.9688 22.2188 54.8828 22.332 54.8828 22.4609L55 26.2734C55.0078 26.4199 55.1328 26.5371 55.2812 26.5312L59.0469 26.4141C59.1875 26.4102 59.2969 26.3008 59.3047 26.1621L59.5703 21.5586C59.5859 21.3809 59.4219 21.2422 59.25 21.2812L55.0938 22.1914Z" clip-rule="evenodd" fill="#F9BF42" fill-opacity="1.000000" fill-rule="evenodd"/>
</svg>
