<svg width="313" height="420" viewBox="0 0 313 420" fill="none" xmlns="http://www.w3.org/2000/svg">
<g clip-path="url(#clip0_2396_7398)">
<path opacity="0.9" d="M0 113.681C0 112.753 0.752646 112 1.68108 112H4V140H1.68108C0.752645 140 0 139.247 0 138.319V113.681Z" fill="#55585B"/>
<path opacity="0.9" d="M0 156.681C0 155.753 0.752646 155 1.68108 155H4V199H1.68108C0.752645 199 0 198.247 0 197.319V156.681Z" fill="#55585B"/>
<path opacity="0.9" d="M0 204.681C0 203.753 0.752646 203 1.68108 203H4V247H1.68108C0.752645 247 0 246.247 0 245.319V204.681Z" fill="#55585B"/>
<g filter="url(#filter0_bd_2396_7398)">
<mask id="path-4-inside-1_2396_7398" fill="white">
<path d="M3 60C3 26.8629 29.8629 0 63 0H251C284.137 0 311 26.8629 311 60V420H3V60Z"/>
</mask>
<path d="M3 60C3 26.8629 29.8629 0 63 0H251C284.137 0 311 26.8629 311 60V420H3V60Z" fill="#292C32"/>
<path d="M-6 60C-6 21.8924 24.8924 -9 63 -9H251C289.108 -9 320 21.8924 320 60H302C302 31.8335 279.167 9 251 9H63C34.8335 9 12 31.8335 12 60H-6ZM311 420H3H311ZM-6 420V60C-6 21.8924 24.8924 -9 63 -9V9C34.8335 9 12 31.8335 12 60V420H-6ZM251 -9C289.108 -9 320 21.8924 320 60V420H302V60C302 31.8335 279.167 9 251 9V-9Z" fill="#686B6F" mask="url(#path-4-inside-1_2396_7398)"/>
</g>
<g filter="url(#filter1_d_2396_7398)">
<rect x="25" y="147" width="127" height="40" rx="8" fill="white" fill-opacity="0.21" shape-rendering="crispEdges"/>
<path d="M60.8359 160.367L60.8359 161.709C58.2051 162.037 56.1693 164.281 56.1693 167.001C56.1693 169.946 58.5571 172.334 61.5026 172.334C62.7351 172.334 63.8699 171.916 64.7729 171.214L65.7219 172.163C64.5726 173.103 63.1035 173.668 61.5026 173.668C57.8207 173.668 54.8359 170.683 54.8359 167.001C54.8359 163.544 57.467 160.702 60.8359 160.367ZM68.1363 167.668C68.0032 169.008 67.4729 170.232 66.6648 171.22L65.7159 170.271C66.2893 169.534 66.6733 168.641 66.7947 167.668L68.1363 167.668ZM62.17 160.367C65.3193 160.68 67.8236 163.185 68.1363 166.334L66.7947 166.334C66.4939 163.922 64.5821 162.01 62.1699 161.709L62.17 160.367Z" fill="white" fill-opacity="0.48"/>
<path d="M73.632 171.5L76.836 162.56H78.228L81.432 171.5H80.172L79.44 169.4H75.624L74.892 171.5H73.632ZM75.996 168.32H79.068L77.364 163.412H77.7L75.996 168.32ZM82.1265 171.5V165.032H83.2185V166.292L83.0385 166.184C83.1985 165.776 83.4545 165.46 83.8065 165.236C84.1665 165.004 84.5865 164.888 85.0665 164.888C85.5305 164.888 85.9425 164.992 86.3025 165.2C86.6705 165.408 86.9585 165.696 87.1665 166.064C87.3825 166.432 87.4905 166.848 87.4905 167.312V171.5H86.3625V167.672C86.3625 167.312 86.2985 167.008 86.1705 166.76C86.0425 166.512 85.8585 166.32 85.6185 166.184C85.3865 166.04 85.1185 165.968 84.8145 165.968C84.5105 165.968 84.2385 166.04 83.9985 166.184C83.7665 166.32 83.5825 166.516 83.4465 166.772C83.3105 167.02 83.2425 167.32 83.2425 167.672V171.5H82.1265ZM90.6834 171.644C90.2594 171.644 89.8834 171.568 89.5554 171.416C89.2354 171.256 88.9834 171.04 88.7994 170.768C88.6154 170.488 88.5234 170.168 88.5234 169.808C88.5234 169.464 88.5954 169.156 88.7394 168.884C88.8914 168.604 89.1234 168.368 89.4354 168.176C89.7554 167.984 90.1554 167.848 90.6354 167.768L93.0354 167.372V168.308L90.8874 168.668C90.4714 168.74 90.1674 168.872 89.9754 169.064C89.7914 169.256 89.6994 169.492 89.6994 169.772C89.6994 170.036 89.8034 170.256 90.0114 170.432C90.2274 170.608 90.4954 170.696 90.8154 170.696C91.2234 170.696 91.5754 170.612 91.8714 170.444C92.1754 170.268 92.4114 170.032 92.5794 169.736C92.7554 169.44 92.8434 169.112 92.8434 168.752V167.108C92.8434 166.756 92.7114 166.472 92.4474 166.256C92.1914 166.032 91.8514 165.92 91.4274 165.92C91.0594 165.92 90.7314 166.016 90.4434 166.208C90.1634 166.392 89.9554 166.64 89.8194 166.952L88.8474 166.448C88.9674 166.152 89.1594 165.888 89.4234 165.656C89.6874 165.416 89.9954 165.228 90.3474 165.092C90.6994 164.956 91.0674 164.888 91.4514 164.888C91.9474 164.888 92.3834 164.984 92.7594 165.176C93.1354 165.36 93.4274 165.62 93.6354 165.956C93.8514 166.284 93.9594 166.668 93.9594 167.108V171.5H92.8674V170.276L93.0714 170.348C92.9354 170.604 92.7514 170.828 92.5194 171.02C92.2874 171.212 92.0154 171.364 91.7034 171.476C91.3914 171.588 91.0514 171.644 90.6834 171.644ZM95.3898 171.5V162.416H96.5058V171.5H95.3898ZM98.2854 174.14C98.1414 174.14 97.9974 174.128 97.8534 174.104C97.7094 174.088 97.5734 174.052 97.4454 173.996V173C97.5334 173.008 97.6414 173.024 97.7694 173.048C97.9054 173.072 98.0374 173.084 98.1654 173.084C98.5414 173.084 98.8254 173 99.0174 172.832C99.2174 172.664 99.4054 172.38 99.5814 171.98L99.9894 171.008L99.9654 171.98L97.2054 165.032H98.4174L100.565 170.552H100.205L102.341 165.032H103.577L100.661 172.268C100.525 172.612 100.349 172.928 100.133 173.216C99.9254 173.504 99.6694 173.728 99.3654 173.888C99.0614 174.056 98.7014 174.14 98.2854 174.14ZM106.898 171.572C106.266 171.572 105.778 171.392 105.434 171.032C105.098 170.672 104.93 170.164 104.93 169.508V166.1H103.754V165.032H103.994C104.282 165.032 104.51 164.944 104.678 164.768C104.846 164.592 104.93 164.36 104.93 164.072V163.544H106.046V165.032H107.498V166.1H106.046V169.472C106.046 169.688 106.078 169.876 106.142 170.036C106.214 170.196 106.33 170.324 106.49 170.42C106.65 170.508 106.862 170.552 107.126 170.552C107.182 170.552 107.25 170.548 107.33 170.54C107.418 170.532 107.498 170.524 107.57 170.516V171.5C107.466 171.524 107.35 171.54 107.222 171.548C107.094 171.564 106.986 171.572 106.898 171.572ZM108.728 171.5V165.032H109.844V171.5H108.728ZM108.728 164V162.56H109.844V164H108.728ZM114.276 171.644C113.644 171.644 113.08 171.496 112.584 171.2C112.096 170.904 111.712 170.5 111.432 169.988C111.152 169.476 111.012 168.9 111.012 168.26C111.012 167.612 111.152 167.036 111.432 166.532C111.712 166.028 112.096 165.628 112.584 165.332C113.08 165.036 113.644 164.888 114.276 164.888C114.7 164.888 115.096 164.964 115.464 165.116C115.832 165.268 116.156 165.472 116.436 165.728C116.716 165.984 116.92 166.284 117.048 166.628L116.052 167.108C115.9 166.772 115.668 166.5 115.356 166.292C115.044 166.076 114.684 165.968 114.276 165.968C113.884 165.968 113.528 166.068 113.208 166.268C112.896 166.468 112.648 166.74 112.464 167.084C112.28 167.428 112.188 167.824 112.188 168.272C112.188 168.704 112.28 169.096 112.464 169.448C112.648 169.792 112.896 170.064 113.208 170.264C113.528 170.464 113.884 170.564 114.276 170.564C114.684 170.564 115.044 170.46 115.356 170.252C115.668 170.036 115.9 169.752 116.052 169.4L117.048 169.904C116.92 170.24 116.716 170.54 116.436 170.804C116.156 171.06 115.832 171.264 115.464 171.416C115.096 171.568 114.7 171.644 114.276 171.644ZM120.522 171.644C119.874 171.644 119.31 171.484 118.83 171.164C118.35 170.844 118.01 170.412 117.81 169.868L118.698 169.436C118.882 169.82 119.134 170.124 119.454 170.348C119.774 170.572 120.13 170.684 120.522 170.684C120.874 170.684 121.166 170.6 121.398 170.432C121.63 170.264 121.746 170.044 121.746 169.772C121.746 169.58 121.69 169.428 121.578 169.316C121.474 169.196 121.346 169.104 121.194 169.04C121.042 168.968 120.902 168.916 120.774 168.884L119.802 168.608C119.218 168.44 118.79 168.2 118.518 167.888C118.254 167.576 118.122 167.212 118.122 166.796C118.122 166.412 118.218 166.08 118.41 165.8C118.61 165.512 118.878 165.288 119.214 165.128C119.558 164.968 119.942 164.888 120.366 164.888C120.934 164.888 121.442 165.032 121.89 165.32C122.346 165.608 122.67 166.012 122.862 166.532L121.95 166.952C121.806 166.616 121.59 166.352 121.302 166.16C121.014 165.96 120.69 165.86 120.33 165.86C120.002 165.86 119.742 165.944 119.55 166.112C119.358 166.272 119.262 166.476 119.262 166.724C119.262 166.908 119.31 167.06 119.406 167.18C119.502 167.292 119.618 167.38 119.754 167.444C119.89 167.5 120.022 167.548 120.15 167.588L121.206 167.9C121.734 168.052 122.142 168.288 122.43 168.608C122.726 168.928 122.874 169.312 122.874 169.76C122.874 170.12 122.774 170.444 122.574 170.732C122.374 171.02 122.098 171.244 121.746 171.404C121.394 171.564 120.986 171.644 120.522 171.644Z" fill="white" fill-opacity="0.48"/>
</g>
<g filter="url(#filter2_d_2396_7398)">
<rect x="162" y="147" width="127" height="40" rx="8" fill="white" fill-opacity="0.21" shape-rendering="crispEdges"/>
<path d="M205.167 171H207.833V169.667H205.167V171ZM200.5 163V164.333H212.5V163H200.5ZM202.5 167.667H210.5V166.333H202.5V167.667Z" fill="white" fill-opacity="0.48"/>
<path d="M219.496 171.5V162.56H225.16V163.64H220.672V166.532H224.74V167.612H220.672V171.5H219.496ZM226.06 171.5V165.032H227.176V171.5H226.06ZM226.06 164V162.56H227.176V164H226.06ZM228.608 171.5V162.416H229.724V171.5H228.608ZM233.783 171.572C233.151 171.572 232.663 171.392 232.319 171.032C231.983 170.672 231.815 170.164 231.815 169.508V166.1H230.639V165.032H230.879C231.167 165.032 231.395 164.944 231.563 164.768C231.731 164.592 231.815 164.36 231.815 164.072V163.544H232.931V165.032H234.383V166.1H232.931V169.472C232.931 169.688 232.963 169.876 233.027 170.036C233.099 170.196 233.215 170.324 233.375 170.42C233.535 170.508 233.747 170.552 234.011 170.552C234.067 170.552 234.135 170.548 234.215 170.54C234.303 170.532 234.383 170.524 234.455 170.516V171.5C234.351 171.524 234.235 171.54 234.107 171.548C233.979 171.564 233.871 171.572 233.783 171.572ZM238.413 171.644C237.789 171.644 237.233 171.496 236.745 171.2C236.257 170.904 235.873 170.5 235.593 169.988C235.313 169.468 235.173 168.888 235.173 168.248C235.173 167.6 235.309 167.024 235.581 166.52C235.861 166.016 236.237 165.62 236.709 165.332C237.189 165.036 237.725 164.888 238.317 164.888C238.797 164.888 239.221 164.976 239.589 165.152C239.965 165.32 240.281 165.552 240.537 165.848C240.801 166.136 241.001 166.468 241.137 166.844C241.281 167.212 241.353 167.596 241.353 167.996C241.353 168.084 241.345 168.184 241.329 168.296C241.321 168.4 241.309 168.5 241.293 168.596H235.989V167.636H240.645L240.117 168.068C240.189 167.652 240.149 167.28 239.997 166.952C239.845 166.624 239.621 166.364 239.325 166.172C239.029 165.98 238.693 165.884 238.317 165.884C237.941 165.884 237.597 165.98 237.285 166.172C236.973 166.364 236.729 166.64 236.553 167C236.385 167.352 236.317 167.772 236.349 168.26C236.317 168.732 236.389 169.148 236.565 169.508C236.749 169.86 237.005 170.136 237.333 170.336C237.669 170.528 238.033 170.624 238.425 170.624C238.857 170.624 239.221 170.524 239.517 170.324C239.813 170.124 240.053 169.868 240.237 169.556L241.173 170.036C241.045 170.332 240.845 170.604 240.573 170.852C240.309 171.092 239.993 171.284 239.625 171.428C239.265 171.572 238.861 171.644 238.413 171.644ZM242.509 171.5V165.032H243.601V166.22L243.481 166.052C243.633 165.684 243.865 165.412 244.177 165.236C244.489 165.052 244.869 164.96 245.317 164.96H245.713V166.016H245.149C244.693 166.016 244.325 166.16 244.045 166.448C243.765 166.728 243.625 167.128 243.625 167.648V171.5H242.509ZM248.72 171.644C248.072 171.644 247.508 171.484 247.028 171.164C246.548 170.844 246.208 170.412 246.008 169.868L246.896 169.436C247.08 169.82 247.332 170.124 247.652 170.348C247.972 170.572 248.328 170.684 248.72 170.684C249.072 170.684 249.364 170.6 249.596 170.432C249.828 170.264 249.944 170.044 249.944 169.772C249.944 169.58 249.888 169.428 249.776 169.316C249.672 169.196 249.544 169.104 249.392 169.04C249.24 168.968 249.1 168.916 248.972 168.884L248 168.608C247.416 168.44 246.988 168.2 246.716 167.888C246.452 167.576 246.32 167.212 246.32 166.796C246.32 166.412 246.416 166.08 246.608 165.8C246.808 165.512 247.076 165.288 247.412 165.128C247.756 164.968 248.14 164.888 248.564 164.888C249.132 164.888 249.64 165.032 250.088 165.32C250.544 165.608 250.868 166.012 251.06 166.532L250.148 166.952C250.004 166.616 249.788 166.352 249.5 166.16C249.212 165.96 248.888 165.86 248.528 165.86C248.2 165.86 247.94 165.944 247.748 166.112C247.556 166.272 247.46 166.476 247.46 166.724C247.46 166.908 247.508 167.06 247.604 167.18C247.7 167.292 247.816 167.38 247.952 167.444C248.088 167.5 248.22 167.548 248.348 167.588L249.404 167.9C249.932 168.052 250.34 168.288 250.628 168.608C250.924 168.928 251.072 169.312 251.072 169.76C251.072 170.12 250.972 170.444 250.772 170.732C250.572 171.02 250.296 171.244 249.944 171.404C249.592 171.564 249.184 171.644 248.72 171.644Z" fill="white" fill-opacity="0.48"/>
</g>
<rect x="113" y="24" width="87" height="24" rx="12" fill="#686B6F"/>
<path d="M25.352 227V226.12H25.696C25.9627 226.12 26.176 226.043 26.336 225.888C26.496 225.728 26.576 225.515 26.576 225.248V221.04H27.512V225.216C27.512 225.579 27.4373 225.893 27.288 226.16C27.144 226.427 26.9333 226.635 26.656 226.784C26.384 226.928 26.064 227 25.696 227H25.352ZM28.0489 227L30.1449 221.04H31.3129L33.4089 227H32.4009L31.9449 225.664H29.5209L29.0569 227H28.0489ZM29.7929 224.824H31.6569L30.6009 221.704H30.8649L29.7929 224.824ZM34.116 227V221.04H34.876L38.22 225.656L37.86 225.712V221.04H38.796V227H38.036L34.716 222.352L35.06 222.288V227H34.116ZM42.2621 227.096C41.8194 227.096 41.4247 227.003 41.0781 226.816C40.7367 226.629 40.4674 226.373 40.2701 226.048C40.0781 225.723 39.9821 225.352 39.9821 224.936V221.04H40.9261V224.896C40.9261 225.157 40.9821 225.389 41.0941 225.592C41.2114 225.795 41.3687 225.952 41.5661 226.064C41.7687 226.176 42.0007 226.232 42.2621 226.232C42.5287 226.232 42.7607 226.176 42.9581 226.064C43.1607 225.952 43.3181 225.795 43.4301 225.592C43.5474 225.389 43.6061 225.157 43.6061 224.896V221.04H44.5421V224.936C44.5421 225.352 44.4461 225.723 44.2541 226.048C44.0621 226.373 43.7927 226.629 43.4461 226.816C43.1047 227.003 42.7101 227.096 42.2621 227.096ZM45.0411 227L47.1371 221.04H48.3051L50.4011 227H49.3931L48.9371 225.664H46.5131L46.0491 227H45.0411ZM46.7851 224.824H48.6491L47.5931 221.704H47.8571L46.7851 224.824ZM51.1082 227V221.04H53.2762C53.6762 221.04 54.0282 221.115 54.3322 221.264C54.6362 221.408 54.8735 221.621 55.0442 221.904C55.2202 222.181 55.3082 222.515 55.3082 222.904C55.3082 223.315 55.2042 223.667 54.9962 223.96C54.7935 224.253 54.5189 224.467 54.1722 224.6L55.5482 227H54.4762L53.0122 224.4L53.6282 224.76H52.0522V227H51.1082ZM52.0522 223.92H53.2922C53.5109 223.92 53.7002 223.877 53.8602 223.792C54.0202 223.707 54.1429 223.589 54.2282 223.44C54.3189 223.285 54.3642 223.104 54.3642 222.896C54.3642 222.688 54.3189 222.509 54.2282 222.36C54.1429 222.205 54.0202 222.088 53.8602 222.008C53.7002 221.923 53.5109 221.88 53.2922 221.88H52.0522V223.92ZM57.7764 227V224.312L55.7364 221.04H56.8004L58.4324 223.688H58.0564L59.6804 221.04H60.7444L58.7124 224.312V227H57.7764Z" fill="white" fill-opacity="0.51"/>
<path d="M126.482 227.096C126.061 227.096 125.669 227.019 125.306 226.864C124.949 226.709 124.637 226.496 124.37 226.224C124.109 225.947 123.903 225.621 123.754 225.248C123.605 224.875 123.53 224.464 123.53 224.016C123.53 223.573 123.602 223.165 123.746 222.792C123.895 222.413 124.103 222.088 124.37 221.816C124.637 221.539 124.949 221.325 125.306 221.176C125.663 221.021 126.055 220.944 126.482 220.944C126.903 220.944 127.279 221.016 127.61 221.16C127.946 221.304 128.229 221.493 128.458 221.728C128.687 221.957 128.853 222.208 128.954 222.48L128.106 222.88C127.978 222.56 127.773 222.301 127.49 222.104C127.213 221.901 126.877 221.8 126.482 221.8C126.087 221.8 125.738 221.893 125.434 222.08C125.13 222.267 124.893 222.525 124.722 222.856C124.557 223.187 124.474 223.573 124.474 224.016C124.474 224.459 124.557 224.848 124.722 225.184C124.893 225.515 125.13 225.773 125.434 225.96C125.738 226.141 126.087 226.232 126.482 226.232C126.877 226.232 127.213 226.133 127.49 225.936C127.773 225.739 127.978 225.48 128.106 225.16L128.954 225.56C128.853 225.827 128.687 226.077 128.458 226.312C128.229 226.547 127.946 226.736 127.61 226.88C127.279 227.024 126.903 227.096 126.482 227.096ZM132.157 227.096C131.714 227.096 131.319 227.003 130.973 226.816C130.631 226.629 130.362 226.373 130.165 226.048C129.973 225.723 129.877 225.352 129.877 224.936V221.04H130.821V224.896C130.821 225.157 130.877 225.389 130.989 225.592C131.106 225.795 131.263 225.952 131.461 226.064C131.663 226.176 131.895 226.232 132.157 226.232C132.423 226.232 132.655 226.176 132.853 226.064C133.055 225.952 133.213 225.795 133.325 225.592C133.442 225.389 133.501 225.157 133.501 224.896V221.04H134.437V224.936C134.437 225.352 134.341 225.723 134.149 226.048C133.957 226.373 133.687 226.629 133.341 226.816C132.999 227.003 132.605 227.096 132.157 227.096ZM135.62 227V221.04H137.788C138.188 221.04 138.54 221.115 138.844 221.264C139.148 221.408 139.385 221.621 139.556 221.904C139.732 222.181 139.82 222.515 139.82 222.904C139.82 223.315 139.716 223.667 139.508 223.96C139.305 224.253 139.031 224.467 138.684 224.6L140.06 227H138.988L137.524 224.4L138.14 224.76H136.564V227H135.62ZM136.564 223.92H137.804C138.023 223.92 138.212 223.877 138.372 223.792C138.532 223.707 138.655 223.589 138.74 223.44C138.831 223.285 138.876 223.104 138.876 222.896C138.876 222.688 138.831 222.509 138.74 222.36C138.655 222.205 138.532 222.088 138.372 222.008C138.212 221.923 138.023 221.88 137.804 221.88H136.564V223.92ZM140.854 227V221.04H143.022C143.422 221.04 143.774 221.115 144.078 221.264C144.382 221.408 144.62 221.621 144.79 221.904C144.966 222.181 145.054 222.515 145.054 222.904C145.054 223.315 144.95 223.667 144.742 223.96C144.54 224.253 144.265 224.467 143.918 224.6L145.294 227H144.222L142.758 224.4L143.374 224.76H141.798V227H140.854ZM141.798 223.92H143.038C143.257 223.92 143.446 223.877 143.606 223.792C143.766 223.707 143.889 223.589 143.974 223.44C144.065 223.285 144.11 223.104 144.11 222.896C144.11 222.688 144.065 222.509 143.974 222.36C143.889 222.205 143.766 222.088 143.606 222.008C143.446 221.923 143.257 221.88 143.038 221.88H141.798V223.92ZM146.089 227V221.04H150.017V221.88H147.033V223.592H149.857V224.432H147.033V226.16H150.017V227H146.089ZM150.893 227V221.04H151.653L154.997 225.656L154.637 225.712V221.04H155.573V227H154.813L151.493 222.352L151.837 222.288V227H150.893ZM157.863 227V221.88H156.279V221.04H160.359V221.88H158.799V227H157.863ZM162.464 227V221.04H163.344L165.584 224.144H165.144L167.344 221.04H168.224V227H167.288V222.152L167.64 222.248L165.392 225.32H165.296L163.096 222.248L163.408 222.152V227H162.464ZM172.352 227.096C171.92 227.096 171.517 227.019 171.144 226.864C170.776 226.709 170.451 226.493 170.168 226.216C169.891 225.939 169.672 225.613 169.512 225.24C169.357 224.867 169.28 224.459 169.28 224.016C169.28 223.573 169.357 223.165 169.512 222.792C169.672 222.413 169.891 222.088 170.168 221.816C170.445 221.539 170.771 221.325 171.144 221.176C171.517 221.021 171.92 220.944 172.352 220.944C172.789 220.944 173.192 221.021 173.56 221.176C173.933 221.325 174.259 221.539 174.536 221.816C174.819 222.093 175.037 222.419 175.192 222.792C175.347 223.165 175.424 223.573 175.424 224.016C175.424 224.459 175.344 224.867 175.184 225.24C175.029 225.613 174.813 225.939 174.536 226.216C174.259 226.493 173.933 226.709 173.56 226.864C173.187 227.019 172.784 227.096 172.352 227.096ZM172.352 226.232C172.661 226.232 172.944 226.176 173.2 226.064C173.461 225.952 173.688 225.797 173.88 225.6C174.072 225.397 174.221 225.163 174.328 224.896C174.435 224.624 174.488 224.331 174.488 224.016C174.488 223.701 174.435 223.411 174.328 223.144C174.221 222.877 174.072 222.643 173.88 222.44C173.688 222.237 173.461 222.08 173.2 221.968C172.944 221.856 172.661 221.8 172.352 221.8C172.043 221.8 171.757 221.856 171.496 221.968C171.24 222.08 171.016 222.237 170.824 222.44C170.632 222.643 170.483 222.877 170.376 223.144C170.275 223.411 170.224 223.701 170.224 224.016C170.224 224.331 170.275 224.624 170.376 224.896C170.483 225.163 170.632 225.397 170.824 225.6C171.016 225.797 171.243 225.952 171.504 226.064C171.765 226.176 172.048 226.232 172.352 226.232ZM176.479 227V221.04H177.239L180.583 225.656L180.223 225.712V221.04H181.159V227H180.399L177.079 222.352L177.423 222.288V227H176.479ZM183.449 227V221.88H181.865V221.04H185.945V221.88H184.385V227H183.449ZM186.651 227V221.04H187.595V223.664H190.355V221.04H191.291V227H190.355V224.504H187.595V227H186.651Z" fill="#F9BF42"/>
<path d="M259.757 227V221.04H260.637L262.877 224.144H262.437L264.637 221.04H265.517V227H264.581V222.152L264.933 222.248L262.685 225.32H262.589L260.389 222.248L260.701 222.152V227H259.757ZM266.221 227L268.317 221.04H269.485L271.581 227H270.573L270.117 225.664H267.693L267.229 227H266.221ZM267.965 224.824H269.829L268.773 221.704H269.037L267.965 224.824ZM272.288 227V221.04H274.456C274.856 221.04 275.208 221.115 275.512 221.264C275.816 221.408 276.053 221.621 276.224 221.904C276.4 222.181 276.488 222.515 276.488 222.904C276.488 223.315 276.384 223.667 276.176 223.96C275.973 224.253 275.699 224.467 275.352 224.6L276.728 227H275.656L274.192 224.4L274.808 224.76H273.232V227H272.288ZM273.232 223.92H274.472C274.691 223.92 274.88 223.877 275.04 223.792C275.2 223.707 275.323 223.589 275.408 223.44C275.499 223.285 275.544 223.104 275.544 222.896C275.544 222.688 275.499 222.509 275.408 222.36C275.323 222.205 275.2 222.088 275.04 222.008C274.88 221.923 274.691 221.88 274.472 221.88H273.232V223.92ZM280.298 227.096C279.877 227.096 279.485 227.019 279.122 226.864C278.765 226.709 278.453 226.496 278.186 226.224C277.925 225.947 277.72 225.621 277.57 225.248C277.421 224.875 277.346 224.464 277.346 224.016C277.346 223.573 277.418 223.165 277.562 222.792C277.712 222.413 277.92 222.088 278.186 221.816C278.453 221.539 278.765 221.325 279.122 221.176C279.48 221.021 279.872 220.944 280.298 220.944C280.72 220.944 281.096 221.016 281.426 221.16C281.762 221.304 282.045 221.493 282.274 221.728C282.504 221.957 282.669 222.208 282.77 222.48L281.922 222.88C281.794 222.56 281.589 222.301 281.306 222.104C281.029 221.901 280.693 221.8 280.298 221.8C279.904 221.8 279.554 221.893 279.25 222.08C278.946 222.267 278.709 222.525 278.538 222.856C278.373 223.187 278.29 223.573 278.29 224.016C278.29 224.459 278.373 224.848 278.538 225.184C278.709 225.515 278.946 225.773 279.25 225.96C279.554 226.141 279.904 226.232 280.298 226.232C280.693 226.232 281.029 226.133 281.306 225.936C281.589 225.739 281.794 225.48 281.922 225.16L282.77 225.56C282.669 225.827 282.504 226.077 282.274 226.312C282.045 226.547 281.762 226.736 281.426 226.88C281.096 227.024 280.72 227.096 280.298 227.096ZM283.741 227V221.04H284.685V223.664H287.445V221.04H288.381V227H287.445V224.504H284.685V227H283.741Z" fill="white" fill-opacity="0.51"/>
<line x1="13" y1="243.5" x2="301" y2="243.5" stroke="url(#paint0_linear_2396_7398)" stroke-opacity="0.05"/>
<g filter="url(#filter3_d_2396_7398)">
<path d="M135 244C135 242.343 136.343 241 138 241H176C177.657 241 179 242.343 179 244H135Z" fill="#F9BF42"/>
</g>
<g filter="url(#filter4_d_2396_7398)">
<path d="M135 244C135 242.343 136.343 241 138 241H176C177.657 241 179 242.343 179 244H135Z" fill="#F9BF42"/>
</g>
<rect x="12" y="208" width="60" height="40" fill="url(#paint1_linear_2396_7398)"/>
<rect x="302" y="248" width="60" height="40" transform="rotate(-180 302 248)" fill="url(#paint2_linear_2396_7398)"/>
<rect x="86" y="244" width="122" height="34" fill="#292C32"/>
<path d="M27.09 90V83.6H25.11V82.55H30.21V83.6H28.26V90H27.09ZM33.0891 90.12C32.5691 90.12 32.0925 89.9967 31.6591 89.75C31.2325 89.5033 30.8925 89.1667 30.6391 88.74C30.3858 88.3133 30.2591 87.83 30.2591 87.29C30.2591 86.7433 30.3858 86.26 30.6391 85.84C30.8925 85.4133 31.2325 85.08 31.6591 84.84C32.0858 84.5933 32.5625 84.47 33.0891 84.47C33.6225 84.47 34.0991 84.5933 34.5191 84.84C34.9458 85.08 35.2825 85.4133 35.5291 85.84C35.7825 86.26 35.9091 86.7433 35.9091 87.29C35.9091 87.8367 35.7825 88.3233 35.5291 88.75C35.2758 89.1767 34.9358 89.5133 34.5091 89.76C34.0825 90 33.6091 90.12 33.0891 90.12ZM33.0891 89.07C33.4091 89.07 33.6925 88.9933 33.9391 88.84C34.1858 88.6867 34.3791 88.4767 34.5191 88.21C34.6658 87.9367 34.7391 87.63 34.7391 87.29C34.7391 86.95 34.6658 86.6467 34.5191 86.38C34.3791 86.1133 34.1858 85.9033 33.9391 85.75C33.6925 85.5967 33.4091 85.52 33.0891 85.52C32.7758 85.52 32.4925 85.5967 32.2391 85.75C31.9925 85.9033 31.7958 86.1133 31.6491 86.38C31.5091 86.6467 31.4391 86.95 31.4391 87.29C31.4391 87.63 31.5091 87.9367 31.6491 88.21C31.7958 88.4767 31.9925 88.6867 32.2391 88.84C32.4925 88.9933 32.7758 89.07 33.0891 89.07ZM39.4547 90.06C38.888 90.06 38.448 89.9 38.1347 89.58C37.8214 89.26 37.6647 88.81 37.6647 88.23V85.61H36.7147V84.59H36.8647C37.118 84.59 37.3147 84.5167 37.4547 84.37C37.5947 84.2233 37.6647 84.0233 37.6647 83.77V83.35H38.7947V84.59H40.0247V85.61H38.7947V88.18C38.7947 88.3667 38.8247 88.5267 38.8847 88.66C38.9447 88.7867 39.0414 88.8867 39.1747 88.96C39.308 89.0267 39.4814 89.06 39.6947 89.06C39.748 89.06 39.808 89.0567 39.8747 89.05C39.9414 89.0433 40.0047 89.0367 40.0647 89.03V90C39.9714 90.0133 39.868 90.0267 39.7547 90.04C39.6414 90.0533 39.5414 90.06 39.4547 90.06ZM42.9386 90.12C42.5719 90.12 42.2486 90.0567 41.9686 89.93C41.6953 89.7967 41.4819 89.6167 41.3286 89.39C41.1753 89.1567 41.0986 88.8833 41.0986 88.57C41.0986 88.2767 41.1619 88.0133 41.2886 87.78C41.4219 87.5467 41.6253 87.35 41.8986 87.19C42.1719 87.03 42.5153 86.9167 42.9286 86.85L44.8086 86.54V87.43L43.1486 87.72C42.8486 87.7733 42.6286 87.87 42.4886 88.01C42.3486 88.1433 42.2786 88.3167 42.2786 88.53C42.2786 88.7367 42.3553 88.9067 42.5086 89.04C42.6686 89.1667 42.8719 89.23 43.1186 89.23C43.4253 89.23 43.6919 89.1633 43.9186 89.03C44.1519 88.8967 44.3319 88.72 44.4586 88.5C44.5853 88.2733 44.6486 88.0233 44.6486 87.75V86.36C44.6486 86.0933 44.5486 85.8767 44.3486 85.71C44.1553 85.5367 43.8953 85.45 43.5686 85.45C43.2686 85.45 43.0053 85.53 42.7786 85.69C42.5586 85.8433 42.3953 86.0433 42.2886 86.29L41.3486 85.82C41.4486 85.5533 41.6119 85.32 41.8386 85.12C42.0653 84.9133 42.3286 84.7533 42.6286 84.64C42.9353 84.5267 43.2586 84.47 43.5986 84.47C44.0253 84.47 44.4019 84.55 44.7286 84.71C45.0619 84.87 45.3186 85.0933 45.4986 85.38C45.6853 85.66 45.7786 85.9867 45.7786 86.36V90H44.6986V89.02L44.9286 89.05C44.8019 89.27 44.6386 89.46 44.4386 89.62C44.2453 89.78 44.0219 89.9033 43.7686 89.99C43.5219 90.0767 43.2453 90.12 42.9386 90.12ZM47.2998 90V82.43H48.4298V90H47.2998ZM54.4391 90.12C53.8991 90.12 53.4191 89.9967 52.9991 89.75C52.5857 89.4967 52.2624 89.1567 52.0291 88.73C51.7957 88.2967 51.6791 87.8133 51.6791 87.28C51.6791 86.7333 51.7957 86.25 52.0291 85.83C52.2691 85.41 52.5891 85.08 52.9891 84.84C53.3891 84.5933 53.8424 84.47 54.3491 84.47C54.7557 84.47 55.1191 84.54 55.4391 84.68C55.7591 84.82 56.0291 85.0133 56.2491 85.26C56.4691 85.5 56.6357 85.7767 56.7491 86.09C56.8691 86.4033 56.9291 86.7367 56.9291 87.09C56.9291 87.1767 56.9257 87.2667 56.9191 87.36C56.9124 87.4533 56.8991 87.54 56.8791 87.62H52.5691V86.72H56.2391L55.6991 87.13C55.7657 86.8033 55.7424 86.5133 55.6291 86.26C55.5224 86 55.3557 85.7967 55.1291 85.65C54.9091 85.4967 54.6491 85.42 54.3491 85.42C54.0491 85.42 53.7824 85.4967 53.5491 85.65C53.3157 85.7967 53.1357 86.01 53.0091 86.29C52.8824 86.5633 52.8324 86.8967 52.8591 87.29C52.8257 87.6567 52.8757 87.9767 53.0091 88.25C53.1491 88.5233 53.3424 88.7367 53.5891 88.89C53.8424 89.0433 54.1291 89.12 54.4491 89.12C54.7757 89.12 55.0524 89.0467 55.2791 88.9C55.5124 88.7533 55.6957 88.5633 55.8291 88.33L56.7491 88.78C56.6424 89.0333 56.4757 89.2633 56.2491 89.47C56.0291 89.67 55.7624 89.83 55.4491 89.95C55.1424 90.0633 54.8057 90.12 54.4391 90.12ZM57.5942 90L59.4842 87.29L57.5942 84.59H58.9242L60.4742 86.85H59.8342L61.3842 84.59H62.7142L60.8142 87.29L62.7042 90H61.3742L59.8442 87.73H60.4642L58.9242 90H57.5942ZM63.6858 92V84.59H64.7658V85.71L64.6358 85.45C64.8358 85.1433 65.1024 84.9033 65.4358 84.73C65.7691 84.5567 66.1491 84.47 66.5758 84.47C67.0891 84.47 67.5491 84.5933 67.9558 84.84C68.3691 85.0867 68.6924 85.4233 68.9258 85.85C69.1658 86.2767 69.2858 86.7567 69.2858 87.29C69.2858 87.8233 69.1658 88.3033 68.9258 88.73C68.6924 89.1567 68.3724 89.4967 67.9658 89.75C67.5591 89.9967 67.0958 90.12 66.5758 90.12C66.1558 90.12 65.7724 90.0333 65.4258 89.86C65.0858 89.6867 64.8224 89.4367 64.6358 89.11L64.8158 88.9V92H63.6858ZM66.4658 89.07C66.7858 89.07 67.0691 88.9933 67.3158 88.84C67.5624 88.6867 67.7558 88.4767 67.8958 88.21C68.0424 87.9367 68.1158 87.63 68.1158 87.29C68.1158 86.95 68.0424 86.6467 67.8958 86.38C67.7558 86.1133 67.5624 85.9033 67.3158 85.75C67.0691 85.5967 66.7858 85.52 66.4658 85.52C66.1524 85.52 65.8691 85.5967 65.6158 85.75C65.3691 85.9033 65.1724 86.1133 65.0258 86.38C64.8858 86.6467 64.8158 86.95 64.8158 87.29C64.8158 87.63 64.8858 87.9367 65.0258 88.21C65.1724 88.4767 65.3691 88.6867 65.6158 88.84C65.8691 88.9933 66.1524 89.07 66.4658 89.07ZM73.125 90.12C72.585 90.12 72.105 89.9967 71.685 89.75C71.2717 89.4967 70.9483 89.1567 70.715 88.73C70.4817 88.2967 70.365 87.8133 70.365 87.28C70.365 86.7333 70.4817 86.25 70.715 85.83C70.955 85.41 71.275 85.08 71.675 84.84C72.075 84.5933 72.5283 84.47 73.035 84.47C73.4417 84.47 73.805 84.54 74.125 84.68C74.445 84.82 74.715 85.0133 74.935 85.26C75.155 85.5 75.3217 85.7767 75.435 86.09C75.555 86.4033 75.615 86.7367 75.615 87.09C75.615 87.1767 75.6117 87.2667 75.605 87.36C75.5983 87.4533 75.585 87.54 75.565 87.62H71.255V86.72H74.925L74.385 87.13C74.4517 86.8033 74.4283 86.5133 74.315 86.26C74.2083 86 74.0417 85.7967 73.815 85.65C73.595 85.4967 73.335 85.42 73.035 85.42C72.735 85.42 72.4683 85.4967 72.235 85.65C72.0017 85.7967 71.8217 86.01 71.695 86.29C71.5683 86.5633 71.5183 86.8967 71.545 87.29C71.5117 87.6567 71.5617 87.9767 71.695 88.25C71.835 88.5233 72.0283 88.7367 72.275 88.89C72.5283 89.0433 72.815 89.12 73.135 89.12C73.4617 89.12 73.7383 89.0467 73.965 88.9C74.1983 88.7533 74.3817 88.5633 74.515 88.33L75.435 88.78C75.3283 89.0333 75.1617 89.2633 74.935 89.47C74.715 89.67 74.4483 89.83 74.135 89.95C73.8283 90.0633 73.4917 90.12 73.125 90.12ZM76.9178 90V84.59H77.9978V85.65L77.8678 85.51C78.0011 85.17 78.2145 84.9133 78.5078 84.74C78.8011 84.56 79.1411 84.47 79.5278 84.47C79.9278 84.47 80.2811 84.5567 80.5878 84.73C80.8945 84.9033 81.1345 85.1433 81.3078 85.45C81.4811 85.7567 81.5678 86.11 81.5678 86.51V90H80.4478V86.81C80.4478 86.5367 80.3978 86.3067 80.2978 86.12C80.1978 85.9267 80.0545 85.78 79.8678 85.68C79.6878 85.5733 79.4811 85.52 79.2478 85.52C79.0145 85.52 78.8045 85.5733 78.6178 85.68C78.4378 85.78 78.2978 85.9267 78.1978 86.12C78.0978 86.3133 78.0478 86.5433 78.0478 86.81V90H76.9178ZM84.9772 90.12C84.4239 90.12 83.9372 89.9833 83.5172 89.71C83.1039 89.4367 82.8139 89.07 82.6472 88.61L83.5172 88.2C83.6639 88.5067 83.8639 88.75 84.1172 88.93C84.3772 89.11 84.6639 89.2 84.9772 89.2C85.2439 89.2 85.4605 89.14 85.6272 89.02C85.7939 88.9 85.8772 88.7367 85.8772 88.53C85.8772 88.3967 85.8405 88.29 85.7672 88.21C85.6939 88.1233 85.6005 88.0533 85.4872 88C85.3805 87.9467 85.2705 87.9067 85.1572 87.88L84.3072 87.64C83.8405 87.5067 83.4905 87.3067 83.2572 87.04C83.0305 86.7667 82.9172 86.45 82.9172 86.09C82.9172 85.7633 83.0005 85.48 83.1672 85.24C83.3339 84.9933 83.5639 84.8033 83.8572 84.67C84.1505 84.5367 84.4805 84.47 84.8472 84.47C85.3405 84.47 85.7805 84.5933 86.1672 84.84C86.5539 85.08 86.8272 85.4167 86.9872 85.85L86.1172 86.26C86.0105 86 85.8405 85.7933 85.6072 85.64C85.3805 85.4867 85.1239 85.41 84.8372 85.41C84.5905 85.41 84.3939 85.47 84.2472 85.59C84.1005 85.7033 84.0272 85.8533 84.0272 86.04C84.0272 86.1667 84.0605 86.2733 84.1272 86.36C84.1939 86.44 84.2805 86.5067 84.3872 86.56C84.4939 86.6067 84.6039 86.6467 84.7172 86.68L85.5972 86.94C86.0439 87.0667 86.3872 87.2667 86.6272 87.54C86.8672 87.8067 86.9872 88.1267 86.9872 88.5C86.9872 88.82 86.9005 89.1033 86.7272 89.35C86.5605 89.59 86.3272 89.78 86.0272 89.92C85.7272 90.0533 85.3772 90.12 84.9772 90.12ZM90.8344 90.12C90.2944 90.12 89.8144 89.9967 89.3944 89.75C88.981 89.4967 88.6577 89.1567 88.4244 88.73C88.191 88.2967 88.0744 87.8133 88.0744 87.28C88.0744 86.7333 88.191 86.25 88.4244 85.83C88.6644 85.41 88.9844 85.08 89.3844 84.84C89.7844 84.5933 90.2377 84.47 90.7444 84.47C91.151 84.47 91.5144 84.54 91.8344 84.68C92.1544 84.82 92.4244 85.0133 92.6444 85.26C92.8644 85.5 93.031 85.7767 93.1444 86.09C93.2644 86.4033 93.3244 86.7367 93.3244 87.09C93.3244 87.1767 93.321 87.2667 93.3144 87.36C93.3077 87.4533 93.2944 87.54 93.2744 87.62H88.9644V86.72H92.6344L92.0944 87.13C92.161 86.8033 92.1377 86.5133 92.0244 86.26C91.9177 86 91.751 85.7967 91.5244 85.65C91.3044 85.4967 91.0444 85.42 90.7444 85.42C90.4444 85.42 90.1777 85.4967 89.9444 85.65C89.711 85.7967 89.531 86.01 89.4044 86.29C89.2777 86.5633 89.2277 86.8967 89.2544 87.29C89.221 87.6567 89.271 87.9767 89.4044 88.25C89.5444 88.5233 89.7377 88.7367 89.9844 88.89C90.2377 89.0433 90.5244 89.12 90.8444 89.12C91.171 89.12 91.4477 89.0467 91.6744 88.9C91.9077 88.7533 92.091 88.5633 92.2244 88.33L93.1444 88.78C93.0377 89.0333 92.871 89.2633 92.6444 89.47C92.4244 89.67 92.1577 89.83 91.8444 89.95C91.5377 90.0633 91.201 90.12 90.8344 90.12ZM96.6272 90.12C96.0739 90.12 95.5872 89.9833 95.1672 89.71C94.7539 89.4367 94.4639 89.07 94.2972 88.61L95.1672 88.2C95.3139 88.5067 95.5139 88.75 95.7672 88.93C96.0272 89.11 96.3139 89.2 96.6272 89.2C96.8939 89.2 97.1105 89.14 97.2772 89.02C97.4439 88.9 97.5272 88.7367 97.5272 88.53C97.5272 88.3967 97.4905 88.29 97.4172 88.21C97.3439 88.1233 97.2505 88.0533 97.1372 88C97.0305 87.9467 96.9205 87.9067 96.8072 87.88L95.9572 87.64C95.4905 87.5067 95.1405 87.3067 94.9072 87.04C94.6805 86.7667 94.5672 86.45 94.5672 86.09C94.5672 85.7633 94.6505 85.48 94.8172 85.24C94.9839 84.9933 95.2139 84.8033 95.5072 84.67C95.8005 84.5367 96.1305 84.47 96.4972 84.47C96.9905 84.47 97.4305 84.5933 97.8172 84.84C98.2039 85.08 98.4772 85.4167 98.6372 85.85L97.7672 86.26C97.6605 86 97.4905 85.7933 97.2572 85.64C97.0305 85.4867 96.7739 85.41 96.4872 85.41C96.2405 85.41 96.0439 85.47 95.8972 85.59C95.7505 85.7033 95.6772 85.8533 95.6772 86.04C95.6772 86.1667 95.7105 86.2733 95.7772 86.36C95.8439 86.44 95.9305 86.5067 96.0372 86.56C96.1439 86.6067 96.2539 86.6467 96.3672 86.68L97.2472 86.94C97.6939 87.0667 98.0372 87.2667 98.2772 87.54C98.5172 87.8067 98.6372 88.1267 98.6372 88.5C98.6372 88.82 98.5505 89.1033 98.3772 89.35C98.2105 89.59 97.9772 89.78 97.6772 89.92C97.3772 90.0533 97.0272 90.12 96.6272 90.12Z" fill="white"/>
<path d="M34.464 126.336C33.1573 126.336 31.944 126.093 30.824 125.608C29.704 125.104 28.752 124.423 27.968 123.564C27.184 122.705 26.6053 121.716 26.232 120.596L29.032 119.42C29.536 120.708 30.2733 121.697 31.244 122.388C32.2147 123.079 33.3347 123.424 34.604 123.424C35.3507 123.424 36.004 123.312 36.564 123.088C37.124 122.845 37.5533 122.509 37.852 122.08C38.1693 121.651 38.328 121.156 38.328 120.596C38.328 119.831 38.1133 119.224 37.684 118.776C37.2547 118.328 36.62 117.973 35.78 117.712L31.86 116.48C30.292 115.995 29.0973 115.257 28.276 114.268C27.4547 113.26 27.044 112.084 27.044 110.74C27.044 109.564 27.3333 108.537 27.912 107.66C28.4907 106.764 29.284 106.064 30.292 105.56C31.3187 105.056 32.4853 104.804 33.792 104.804C35.0427 104.804 36.1813 105.028 37.208 105.476C38.2347 105.905 39.112 106.503 39.84 107.268C40.5867 108.033 41.128 108.92 41.464 109.928L38.72 111.132C38.3093 110.031 37.6653 109.181 36.788 108.584C35.9293 107.987 34.9307 107.688 33.792 107.688C33.1013 107.688 32.4947 107.809 31.972 108.052C31.4493 108.276 31.0387 108.612 30.74 109.06C30.46 109.489 30.32 109.993 30.32 110.572C30.32 111.244 30.5347 111.841 30.964 112.364C31.3933 112.887 32.0467 113.279 32.924 113.54L36.564 114.688C38.2253 115.192 39.476 115.92 40.316 116.872C41.156 117.805 41.576 118.972 41.576 120.372C41.576 121.529 41.268 122.556 40.652 123.452C40.0547 124.348 39.224 125.057 38.16 125.58C37.096 126.084 35.864 126.336 34.464 126.336ZM33.176 128.8V102.34H35.416V128.8H33.176ZM47.8919 126V107.94H43.8879V105.14H51.1679V126H47.8919ZM55.1638 126V123.62L60.8758 117.516C61.9958 116.321 62.8731 115.36 63.5078 114.632C64.1611 113.885 64.6278 113.232 64.9078 112.672C65.2064 112.112 65.3558 111.524 65.3558 110.908C65.3558 109.9 65.0478 109.125 64.4318 108.584C63.8158 108.024 63.0224 107.744 62.0518 107.744C61.0438 107.744 60.1758 108.033 59.4478 108.612C58.7198 109.172 58.2158 109.993 57.9358 111.076L55.0238 110.236C55.2478 109.135 55.6958 108.183 56.3678 107.38C57.0398 106.559 57.8611 105.924 58.8318 105.476C59.8211 105.028 60.8851 104.804 62.0238 104.804C63.3491 104.804 64.5064 105.056 65.4958 105.56C66.4851 106.045 67.2504 106.727 67.7918 107.604C68.3518 108.481 68.6318 109.499 68.6318 110.656C68.6318 111.421 68.4824 112.168 68.1838 112.896C67.9038 113.605 67.4651 114.361 66.8678 115.164C66.2704 115.948 65.5051 116.835 64.5718 117.824L59.5318 123.2H69.0238V126H55.1638ZM81.0917 126V121.296H71.1517V118.552L80.9517 105.14H84.2277V118.552H87.1117V121.296H84.2277V126H81.0917ZM73.5877 119.756L73.0557 118.552H81.0917V107.772L81.9877 108.052L73.5877 119.756ZM96.3683 126.336C95.2669 126.336 94.2309 126.14 93.2603 125.748C92.2896 125.337 91.4496 124.768 90.7403 124.04C90.0309 123.312 89.5269 122.435 89.2283 121.408L92.0003 120.344C92.3549 121.333 92.9336 122.089 93.7363 122.612C94.5389 123.135 95.4163 123.396 96.3683 123.396C97.1523 123.396 97.8429 123.219 98.4403 122.864C99.0376 122.509 99.5043 122.024 99.8403 121.408C100.195 120.792 100.372 120.092 100.372 119.308C100.372 118.505 100.195 117.805 99.8403 117.208C99.5043 116.592 99.0376 116.116 98.4403 115.78C97.8429 115.425 97.1523 115.248 96.3683 115.248C95.5843 115.248 94.8656 115.425 94.2123 115.78C93.5589 116.135 93.0829 116.611 92.7843 117.208L90.1243 116.62L91.7483 105.14H102.864V107.94H93.0363L94.2963 106.568L93.0923 115.36L92.0563 114.66C92.6163 113.876 93.2976 113.307 94.1003 112.952C94.9029 112.597 95.8176 112.42 96.8443 112.42C98.2069 112.42 99.3923 112.728 100.4 113.344C101.427 113.941 102.22 114.763 102.78 115.808C103.359 116.835 103.648 118.001 103.648 119.308C103.648 120.633 103.331 121.828 102.696 122.892C102.062 123.956 101.194 124.796 100.092 125.412C99.0096 126.028 97.7683 126.336 96.3683 126.336ZM108.306 126V122.36H111.526V126H108.306ZM116 126V123.62L121.712 117.516C122.832 116.321 123.709 115.36 124.344 114.632C124.997 113.885 125.464 113.232 125.744 112.672C126.043 112.112 126.192 111.524 126.192 110.908C126.192 109.9 125.884 109.125 125.268 108.584C124.652 108.024 123.859 107.744 122.888 107.744C121.88 107.744 121.012 108.033 120.284 108.612C119.556 109.172 119.052 109.993 118.772 111.076L115.86 110.236C116.084 109.135 116.532 108.183 117.204 107.38C117.876 106.559 118.697 105.924 119.668 105.476C120.657 105.028 121.721 104.804 122.86 104.804C124.185 104.804 125.343 105.056 126.332 105.56C127.321 106.045 128.087 106.727 128.628 107.604C129.188 108.481 129.468 109.499 129.468 110.656C129.468 111.421 129.319 112.168 129.02 112.896C128.74 113.605 128.301 114.361 127.704 115.164C127.107 115.948 126.341 116.835 125.408 117.824L120.368 123.2H129.86V126H116ZM132.569 126V123.62L138.281 117.516C139.401 116.321 140.279 115.36 140.913 114.632C141.567 113.885 142.033 113.232 142.313 112.672C142.612 112.112 142.761 111.524 142.761 110.908C142.761 109.9 142.453 109.125 141.837 108.584C141.221 108.024 140.428 107.744 139.457 107.744C138.449 107.744 137.581 108.033 136.853 108.612C136.125 109.172 135.621 109.993 135.341 111.076L132.429 110.236C132.653 109.135 133.101 108.183 133.773 107.38C134.445 106.559 135.267 105.924 136.237 105.476C137.227 105.028 138.291 104.804 139.429 104.804C140.755 104.804 141.912 105.056 142.901 105.56C143.891 106.045 144.656 106.727 145.197 107.604C145.757 108.481 146.037 109.499 146.037 110.656C146.037 111.421 145.888 112.168 145.589 112.896C145.309 113.605 144.871 114.361 144.273 115.164C143.676 115.948 142.911 116.835 141.977 117.824L136.937 123.2H146.429V126H132.569Z" fill="white"/>
<path fill-rule="evenodd" clip-rule="evenodd" d="M276.842 95.3039C276.936 94.8365 277.346 94.5 277.823 94.5H280.183C280.66 94.5 281.07 94.8365 281.164 95.3039L281.494 96.9563C282.198 97.2246 282.848 97.6033 283.422 98.0713L285.021 97.5306C285.472 97.3779 285.969 97.5651 286.207 97.9779L287.387 100.022C287.626 100.435 287.54 100.959 287.182 101.273L285.915 102.386C285.973 102.749 286.003 103.121 286.003 103.5C286.003 103.879 285.973 104.251 285.915 104.614L287.182 105.727C287.54 106.041 287.626 106.565 287.387 106.978L286.207 109.022C285.969 109.435 285.472 109.622 285.021 109.469L283.423 108.929C282.848 109.397 282.198 109.775 281.494 110.044L281.164 111.696C281.07 112.164 280.66 112.5 280.183 112.5H277.823C277.346 112.5 276.936 112.164 276.842 111.696L276.512 110.044C275.807 109.775 275.158 109.397 274.583 108.929L272.985 109.469C272.534 109.622 272.037 109.435 271.799 109.022L270.618 106.978C270.38 106.565 270.466 106.041 270.824 105.727L272.091 104.614C272.033 104.251 272.003 103.879 272.003 103.5C272.003 103.121 272.033 102.749 272.091 102.386L270.824 101.273C270.466 100.959 270.38 100.435 270.618 100.022L271.799 97.9779C272.037 97.5651 272.534 97.3779 272.985 97.5307L274.583 98.0713C275.158 97.6033 275.807 97.2246 276.512 96.9563L276.842 95.3039ZM279.003 106.5C280.66 106.5 282.003 105.157 282.003 103.5C282.003 101.843 280.66 100.5 279.003 100.5C277.346 100.5 276.003 101.843 276.003 103.5C276.003 105.157 277.346 106.5 279.003 106.5Z" fill="#5E626A"/>
<path opacity="0.9" d="M313 230.319C313 231.247 312.247 232 311.319 232L311 232L311 158L311.319 158C312.247 158 313 158.753 313 159.681L313 230.319Z" fill="#55585B"/>
<path d="M30.926 279V270.04H28.154V268.57H35.294V270.04H32.564V279H30.926ZM38.7104 279.168C37.9824 279.168 37.3151 278.995 36.7084 278.65C36.1111 278.305 35.6351 277.833 35.2804 277.236C34.9257 276.639 34.7484 275.962 34.7484 275.206C34.7484 274.441 34.9257 273.764 35.2804 273.176C35.6351 272.579 36.1111 272.112 36.7084 271.776C37.3057 271.431 37.9731 271.258 38.7104 271.258C39.4571 271.258 40.1244 271.431 40.7124 271.776C41.3097 272.112 41.7811 272.579 42.1264 273.176C42.4811 273.764 42.6584 274.441 42.6584 275.206C42.6584 275.971 42.4811 276.653 42.1264 277.25C41.7717 277.847 41.2957 278.319 40.6984 278.664C40.1011 279 39.4384 279.168 38.7104 279.168ZM38.7104 277.698C39.1584 277.698 39.5551 277.591 39.9004 277.376C40.2457 277.161 40.5164 276.867 40.7124 276.494C40.9177 276.111 41.0204 275.682 41.0204 275.206C41.0204 274.73 40.9177 274.305 40.7124 273.932C40.5164 273.559 40.2457 273.265 39.9004 273.05C39.5551 272.835 39.1584 272.728 38.7104 272.728C38.2717 272.728 37.8751 272.835 37.5204 273.05C37.1751 273.265 36.8997 273.559 36.6944 273.932C36.4984 274.305 36.4004 274.73 36.4004 275.206C36.4004 275.682 36.4984 276.111 36.6944 276.494C36.8997 276.867 37.1751 277.161 37.5204 277.376C37.8751 277.591 38.2717 277.698 38.7104 277.698ZM47.3685 279.168C46.6405 279.168 45.9871 278.995 45.4085 278.65C44.8391 278.295 44.3865 277.819 44.0505 277.222C43.7238 276.625 43.5605 275.953 43.5605 275.206C43.5605 274.459 43.7285 273.787 44.0645 273.19C44.4005 272.593 44.8531 272.121 45.4225 271.776C45.9918 271.431 46.6358 271.258 47.3545 271.258C47.9611 271.258 48.4978 271.379 48.9645 271.622C49.4311 271.865 49.7998 272.201 50.0705 272.63L49.8325 272.994V268.402H51.4005V279H49.9025V277.46L50.0845 277.754C49.8231 278.211 49.4498 278.561 48.9645 278.804C48.4791 279.047 47.9471 279.168 47.3685 279.168ZM47.5225 277.698C47.9611 277.698 48.3531 277.591 48.6985 277.376C49.0531 277.161 49.3285 276.867 49.5245 276.494C49.7298 276.111 49.8325 275.682 49.8325 275.206C49.8325 274.73 49.7298 274.305 49.5245 273.932C49.3285 273.559 49.0531 273.265 48.6985 273.05C48.3531 272.835 47.9611 272.728 47.5225 272.728C47.0838 272.728 46.6871 272.835 46.3325 273.05C45.9778 273.265 45.7025 273.559 45.5065 273.932C45.3105 274.305 45.2125 274.73 45.2125 275.206C45.2125 275.682 45.3105 276.111 45.5065 276.494C45.7025 276.867 45.9731 277.161 46.3185 277.376C46.6731 277.591 47.0745 277.698 47.5225 277.698ZM55.181 279.168C54.6677 279.168 54.215 279.079 53.823 278.902C53.4403 278.715 53.1417 278.463 52.927 278.146C52.7123 277.819 52.605 277.437 52.605 276.998C52.605 276.587 52.6937 276.219 52.871 275.892C53.0577 275.565 53.3423 275.29 53.725 275.066C54.1077 274.842 54.5883 274.683 55.167 274.59L57.799 274.156V275.402L55.475 275.808C55.055 275.883 54.747 276.018 54.551 276.214C54.355 276.401 54.257 276.643 54.257 276.942C54.257 277.231 54.3643 277.469 54.579 277.656C54.803 277.833 55.0877 277.922 55.433 277.922C55.8623 277.922 56.2357 277.829 56.553 277.642C56.8797 277.455 57.1317 277.208 57.309 276.9C57.4863 276.583 57.575 276.233 57.575 275.85V273.904C57.575 273.531 57.435 273.227 57.155 272.994C56.8843 272.751 56.5203 272.63 56.063 272.63C55.643 272.63 55.2743 272.742 54.957 272.966C54.649 273.181 54.4203 273.461 54.271 273.806L52.955 273.148C53.095 272.775 53.3237 272.448 53.641 272.168C53.9583 271.879 54.327 271.655 54.747 271.496C55.1763 271.337 55.629 271.258 56.105 271.258C56.7023 271.258 57.2297 271.37 57.687 271.594C58.1537 271.818 58.513 272.131 58.765 272.532C59.0263 272.924 59.157 273.381 59.157 273.904V279H57.645V277.628L57.967 277.67C57.7897 277.978 57.561 278.244 57.281 278.468C57.0103 278.692 56.6977 278.865 56.343 278.986C55.9977 279.107 55.6103 279.168 55.181 279.168ZM61.3443 282.094C61.1577 282.094 60.971 282.075 60.7843 282.038C60.607 282.01 60.4437 281.963 60.2943 281.898V280.54C60.4063 280.568 60.5417 280.591 60.7003 280.61C60.859 280.638 61.013 280.652 61.1623 280.652C61.601 280.652 61.923 280.554 62.1283 280.358C62.343 280.171 62.5343 279.877 62.7023 279.476L63.2063 278.328L63.1783 279.658L59.9023 271.426H61.5963L64.0183 277.74H63.4443L65.8523 271.426H67.5603L64.2143 279.826C64.037 280.274 63.813 280.666 63.5423 281.002C63.281 281.347 62.9683 281.613 62.6043 281.8C62.2497 281.996 61.8297 282.094 61.3443 282.094Z" fill="#828488"/>
<path d="M216.68 278L219.824 269.06H221.576L224.72 278H223.208L222.524 275.996H218.888L218.192 278H216.68ZM219.296 274.736H222.092L220.508 270.056H220.904L219.296 274.736ZM225.314 278V268.916H226.67V278H225.314ZM227.921 278V268.916H229.277V278H227.921ZM231.128 278V276.44H232.508V278H231.128ZM231.128 273.068V271.508H232.508V273.068H231.128ZM236.321 275.348V274.148H241.121V275.348H236.321ZM245.844 278.144C245.284 278.144 244.764 278.04 244.284 277.832C243.804 277.616 243.396 277.324 243.06 276.956C242.724 276.588 242.476 276.164 242.316 275.684L243.516 275.18C243.732 275.732 244.048 276.156 244.464 276.452C244.88 276.748 245.36 276.896 245.904 276.896C246.224 276.896 246.504 276.848 246.744 276.752C246.984 276.648 247.168 276.504 247.296 276.32C247.432 276.136 247.5 275.924 247.5 275.684C247.5 275.356 247.408 275.096 247.224 274.904C247.04 274.712 246.768 274.56 246.408 274.448L244.728 273.92C244.056 273.712 243.544 273.396 243.192 272.972C242.84 272.54 242.664 272.036 242.664 271.46C242.664 270.956 242.788 270.516 243.036 270.14C243.284 269.756 243.624 269.456 244.056 269.24C244.496 269.024 244.996 268.916 245.556 268.916C246.092 268.916 246.58 269.012 247.02 269.204C247.46 269.388 247.836 269.644 248.148 269.972C248.468 270.3 248.7 270.68 248.844 271.112L247.668 271.628C247.492 271.156 247.216 270.792 246.84 270.536C246.472 270.28 246.044 270.152 245.556 270.152C245.26 270.152 245 270.204 244.776 270.308C244.552 270.404 244.376 270.548 244.248 270.74C244.128 270.924 244.068 271.14 244.068 271.388C244.068 271.676 244.16 271.932 244.344 272.156C244.528 272.38 244.808 272.548 245.184 272.66L246.744 273.152C247.456 273.368 247.992 273.68 248.352 274.088C248.712 274.488 248.892 274.988 248.892 275.588C248.892 276.084 248.76 276.524 248.496 276.908C248.24 277.292 247.884 277.596 247.428 277.82C246.972 278.036 246.444 278.144 245.844 278.144ZM245.292 279.2V267.86H246.252V279.2H245.292ZM253.951 278V275.984H249.691V274.808L253.891 269.06H255.295V274.808H256.531V275.984H255.295V278H253.951ZM250.735 275.324L250.507 274.808H253.951V270.188L254.335 270.308L250.735 275.324ZM258.758 278V270.26H257.042V269.06H260.162V278H258.758ZM264.506 278.144C263.922 278.144 263.402 278.016 262.946 277.76C262.49 277.504 262.13 277.152 261.866 276.704C261.61 276.256 261.482 275.748 261.482 275.18C261.482 274.884 261.514 274.588 261.578 274.292C261.642 273.996 261.754 273.688 261.914 273.368C262.082 273.048 262.306 272.704 262.586 272.336L265.082 269.06H266.774L263.714 273.02L263.474 272.864C263.586 272.736 263.706 272.636 263.834 272.564C263.97 272.492 264.11 272.44 264.254 272.408C264.406 272.376 264.566 272.36 264.734 272.36C265.27 272.36 265.75 272.484 266.174 272.732C266.598 272.98 266.93 273.316 267.17 273.74C267.418 274.164 267.542 274.652 267.542 275.204C267.542 275.764 267.41 276.268 267.146 276.716C266.882 277.156 266.522 277.504 266.066 277.76C265.618 278.016 265.098 278.144 264.506 278.144ZM264.506 276.884C264.818 276.884 265.094 276.812 265.334 276.668C265.574 276.524 265.766 276.328 265.91 276.08C266.054 275.824 266.126 275.536 266.126 275.216C266.126 274.888 266.054 274.6 265.91 274.352C265.774 274.104 265.582 273.912 265.334 273.776C265.094 273.632 264.818 273.56 264.506 273.56C264.202 273.56 263.926 273.632 263.678 273.776C263.438 273.912 263.246 274.104 263.102 274.352C262.958 274.6 262.886 274.888 262.886 275.216C262.886 275.536 262.958 275.824 263.102 276.08C263.246 276.328 263.438 276.524 263.678 276.668C263.926 276.812 264.202 276.884 264.506 276.884ZM268.906 279.764V279.104C269.17 279.04 269.374 278.916 269.518 278.732C269.662 278.556 269.75 278.312 269.782 278H269.146V276.44H270.526V277.46C270.526 278.1 270.39 278.616 270.118 279.008C269.846 279.4 269.442 279.652 268.906 279.764ZM274.982 278.144C274.398 278.144 273.878 278.016 273.422 277.76C272.966 277.504 272.606 277.152 272.342 276.704C272.086 276.256 271.958 275.748 271.958 275.18C271.958 274.884 271.99 274.588 272.054 274.292C272.118 273.996 272.23 273.688 272.39 273.368C272.558 273.048 272.782 272.704 273.062 272.336L275.558 269.06H277.25L274.19 273.02L273.95 272.864C274.062 272.736 274.182 272.636 274.31 272.564C274.446 272.492 274.586 272.44 274.73 272.408C274.882 272.376 275.042 272.36 275.21 272.36C275.746 272.36 276.226 272.484 276.65 272.732C277.074 272.98 277.406 273.316 277.646 273.74C277.894 274.164 278.018 274.652 278.018 275.204C278.018 275.764 277.886 276.268 277.622 276.716C277.358 277.156 276.998 277.504 276.542 277.76C276.094 278.016 275.574 278.144 274.982 278.144ZM274.982 276.884C275.294 276.884 275.57 276.812 275.81 276.668C276.05 276.524 276.242 276.328 276.386 276.08C276.53 275.824 276.602 275.536 276.602 275.216C276.602 274.888 276.53 274.6 276.386 274.352C276.25 274.104 276.058 273.912 275.81 273.776C275.57 273.632 275.294 273.56 274.982 273.56C274.678 273.56 274.402 273.632 274.154 273.776C273.914 273.912 273.722 274.104 273.578 274.352C273.434 274.6 273.362 274.888 273.362 275.216C273.362 275.536 273.434 275.824 273.578 276.08C273.722 276.328 273.914 276.524 274.154 276.668C274.402 276.812 274.678 276.884 274.982 276.884ZM282.97 278V275.984H278.71V274.808L282.91 269.06H284.314V274.808H285.55V275.984H284.314V278H282.97ZM279.754 275.324L279.526 274.808H282.97V270.188L283.354 270.308L279.754 275.324Z" fill="#828488"/>
<g filter="url(#filter5_b_2396_7398)">
<rect x="28" y="297" width="32" height="32" rx="16" fill="white" fill-opacity="0.12"/>
<g clip-path="url(#clip1_2396_7398)">
<path opacity="0.2" d="M50.3191 315.84V317.419C50.3191 317.558 50.2636 317.692 50.1649 317.791C50.0662 317.89 49.9324 317.945 49.7928 317.945H48.2138C48.0742 317.945 47.9404 317.89 47.8417 317.791C47.743 317.692 47.6875 317.558 47.6875 317.419V315.84H50.3191Z" fill="white"/>
<path opacity="0.2" d="M40.3191 315.84V317.419C40.3191 317.558 40.2636 317.692 40.1649 317.791C40.0662 317.89 39.9324 317.945 39.7928 317.945H38.2138C38.0742 317.945 37.9404 317.89 37.8417 317.791C37.743 317.692 37.6875 317.558 37.6875 317.419V315.84H40.3191Z" fill="white"/>
<path opacity="0.2" d="M50.3191 311.627L48.3526 307.203C48.3113 307.11 48.2438 307.031 48.1585 306.976C48.0731 306.92 47.9735 306.891 47.8717 306.891H40.1349C40.0331 306.891 39.9335 306.92 39.8481 306.976C39.7627 307.031 39.6953 307.11 39.6539 307.203L37.6875 311.627H50.3191Z" fill="white"/>
<path d="M36.6406 311.633H51.3775" stroke="white" stroke-width="0.755477" stroke-linecap="round" stroke-linejoin="round"/>
<path d="M50.3191 315.84V317.419C50.3191 317.558 50.2636 317.692 50.1649 317.791C50.0662 317.89 49.9324 317.945 49.7928 317.945H48.2138C48.0742 317.945 47.9404 317.89 47.8417 317.791C47.743 317.692 47.6875 317.558 47.6875 317.419V315.84" stroke="white" stroke-width="0.755477" stroke-linecap="round" stroke-linejoin="round"/>
<path d="M40.3191 315.84V317.419C40.3191 317.558 40.2636 317.692 40.1649 317.791C40.0662 317.89 39.9324 317.945 39.7928 317.945H38.2138C38.0742 317.945 37.9404 317.89 37.8417 317.791C37.743 317.692 37.6875 317.558 37.6875 317.419V315.84" stroke="white" stroke-width="0.755477" stroke-linecap="round" stroke-linejoin="round"/>
<path d="M39.7891 313.734H40.8417" stroke="white" stroke-width="0.755477" stroke-linecap="round" stroke-linejoin="round"/>
<path d="M47.1562 313.734H48.2089" stroke="white" stroke-width="0.755477" stroke-linecap="round" stroke-linejoin="round"/>
<path d="M50.3191 311.627L48.3526 307.203C48.3113 307.11 48.2438 307.031 48.1585 306.976C48.0731 306.92 47.9735 306.891 47.8717 306.891H40.1349C40.0331 306.891 39.9335 306.92 39.8481 306.976C39.7627 307.031 39.6953 307.11 39.6539 307.203L37.6875 311.627V315.838H50.3191V311.627Z" stroke="white" stroke-width="0.755477" stroke-linecap="round" stroke-linejoin="round"/>
</g>
</g>
<path d="M70.821 312V303.29H68.143V302.315H74.513V303.29H71.861V312H70.821ZM74.5445 312V305.032H75.5195V306.176L75.3895 306.007C75.5542 305.678 75.8012 305.418 76.1305 305.227C76.4685 305.036 76.8759 304.941 77.3525 304.941H77.7945V305.916H77.1835C76.6809 305.916 76.2779 306.072 75.9745 306.384C75.6712 306.696 75.5195 307.138 75.5195 307.71V312H74.5445ZM80.6177 312.156C80.1757 312.156 79.7814 312.074 79.4347 311.909C79.088 311.736 78.815 311.502 78.6157 311.207C78.4164 310.912 78.3167 310.574 78.3167 310.193C78.3167 309.829 78.3947 309.5 78.5507 309.205C78.7067 308.902 78.9494 308.646 79.2787 308.438C79.608 308.23 80.0284 308.083 80.5397 307.996L83.2697 307.541V308.425L80.7737 308.841C80.271 308.928 79.907 309.088 79.6817 309.322C79.465 309.556 79.3567 309.833 79.3567 310.154C79.3567 310.466 79.478 310.73 79.7207 310.947C79.972 311.164 80.2927 311.272 80.6827 311.272C81.1594 311.272 81.5754 311.172 81.9307 310.973C82.286 310.765 82.5634 310.488 82.7627 310.141C82.962 309.794 83.0617 309.409 83.0617 308.984V307.216C83.0617 306.8 82.91 306.462 82.6067 306.202C82.3034 305.942 81.909 305.812 81.4237 305.812C80.999 305.812 80.6264 305.92 80.3057 306.137C79.985 306.345 79.7467 306.618 79.5907 306.956L78.7067 306.475C78.8367 306.18 79.0404 305.912 79.3177 305.669C79.6037 305.426 79.9287 305.236 80.2927 305.097C80.6567 304.95 81.0337 304.876 81.4237 304.876C81.935 304.876 82.3857 304.976 82.7757 305.175C83.1744 305.374 83.482 305.652 83.6987 306.007C83.924 306.354 84.0367 306.757 84.0367 307.216V312H83.0617V310.609L83.2047 310.752C83.0834 311.012 82.8927 311.25 82.6327 311.467C82.3814 311.675 82.0824 311.844 81.7357 311.974C81.3977 312.095 81.025 312.156 80.6177 312.156ZM85.7078 312V305.032H86.6828V306.384L86.4618 306.332C86.6351 305.881 86.9168 305.526 87.3068 305.266C87.7054 305.006 88.1648 304.876 88.6848 304.876C89.1788 304.876 89.6208 304.989 90.0108 305.214C90.4094 305.439 90.7214 305.751 90.9468 306.15C91.1808 306.54 91.2978 306.982 91.2978 307.476V312H90.3228V307.853C90.3228 307.428 90.2448 307.069 90.0888 306.774C89.9414 306.479 89.7291 306.254 89.4518 306.098C89.1831 305.933 88.8711 305.851 88.5158 305.851C88.1604 305.851 87.8441 305.933 87.5668 306.098C87.2894 306.254 87.0728 306.484 86.9168 306.787C86.7608 307.082 86.6828 307.437 86.6828 307.853V312H85.7078ZM95.2435 312.156C94.5762 312.156 93.9912 311.987 93.4885 311.649C92.9858 311.311 92.6218 310.852 92.3965 310.271L93.2155 309.881C93.4148 310.306 93.6922 310.644 94.0475 310.895C94.4115 311.146 94.8102 311.272 95.2435 311.272C95.6595 311.272 96.0105 311.172 96.2965 310.973C96.5825 310.765 96.7255 310.496 96.7255 310.167C96.7255 309.924 96.6562 309.734 96.5175 309.595C96.3788 309.448 96.2185 309.335 96.0365 309.257C95.8545 309.179 95.6942 309.123 95.5555 309.088L94.5545 308.802C93.9132 308.62 93.4495 308.364 93.1635 308.035C92.8775 307.706 92.7345 307.324 92.7345 306.891C92.7345 306.484 92.8385 306.128 93.0465 305.825C93.2545 305.522 93.5362 305.288 93.8915 305.123C94.2468 304.958 94.6412 304.876 95.0745 304.876C95.6638 304.876 96.1968 305.032 96.6735 305.344C97.1588 305.647 97.5012 306.072 97.7005 306.618L96.8685 307.008C96.6952 306.618 96.4438 306.315 96.1145 306.098C95.7938 305.873 95.4342 305.76 95.0355 305.76C94.6455 305.76 94.3335 305.86 94.0995 306.059C93.8655 306.258 93.7485 306.51 93.7485 306.813C93.7485 307.047 93.8092 307.233 93.9305 307.372C94.0518 307.511 94.1905 307.615 94.3465 307.684C94.5112 307.753 94.6542 307.805 94.7755 307.84L95.9325 308.178C96.4958 308.343 96.9335 308.598 97.2455 308.945C97.5662 309.292 97.7265 309.699 97.7265 310.167C97.7265 310.548 97.6182 310.891 97.4015 311.194C97.1935 311.497 96.9032 311.736 96.5305 311.909C96.1578 312.074 95.7288 312.156 95.2435 312.156ZM99.1054 314.6V305.032H100.08V306.592L99.9244 306.319C100.202 305.877 100.57 305.526 101.029 305.266C101.497 305.006 102.03 304.876 102.628 304.876C103.287 304.876 103.872 305.036 104.383 305.357C104.903 305.669 105.311 306.098 105.605 306.644C105.909 307.19 106.06 307.814 106.06 308.516C106.06 309.209 105.909 309.833 105.605 310.388C105.311 310.934 104.903 311.367 104.383 311.688C103.872 312 103.287 312.156 102.628 312.156C102.03 312.156 101.489 312.022 101.003 311.753C100.527 311.476 100.167 311.086 99.9244 310.583L100.08 310.44V314.6H99.1054ZM102.576 311.181C103.044 311.181 103.46 311.064 103.824 310.83C104.197 310.596 104.487 310.28 104.695 309.881C104.912 309.474 105.02 309.019 105.02 308.516C105.02 308.005 104.912 307.55 104.695 307.151C104.487 306.752 104.197 306.436 103.824 306.202C103.46 305.968 103.044 305.851 102.576 305.851C102.108 305.851 101.684 305.968 101.302 306.202C100.93 306.436 100.631 306.757 100.405 307.164C100.189 307.563 100.08 308.013 100.08 308.516C100.08 309.019 100.189 309.474 100.405 309.881C100.631 310.28 100.93 310.596 101.302 310.83C101.684 311.064 102.108 311.181 102.576 311.181ZM110.705 312.156C110.046 312.156 109.448 312 108.911 311.688C108.374 311.367 107.945 310.934 107.624 310.388C107.312 309.833 107.156 309.205 107.156 308.503C107.156 307.81 107.312 307.19 107.624 306.644C107.936 306.098 108.356 305.669 108.885 305.357C109.422 305.036 110.029 304.876 110.705 304.876C111.381 304.876 111.983 305.032 112.512 305.344C113.049 305.656 113.47 306.085 113.773 306.631C114.085 307.177 114.241 307.801 114.241 308.503C114.241 309.214 114.081 309.846 113.76 310.401C113.439 310.947 113.01 311.376 112.473 311.688C111.944 312 111.355 312.156 110.705 312.156ZM110.705 311.181C111.173 311.181 111.593 311.064 111.966 310.83C112.347 310.596 112.646 310.275 112.863 309.868C113.088 309.461 113.201 309.006 113.201 308.503C113.201 308 113.088 307.55 112.863 307.151C112.646 306.752 112.347 306.436 111.966 306.202C111.593 305.968 111.173 305.851 110.705 305.851C110.237 305.851 109.812 305.968 109.431 306.202C109.058 306.436 108.759 306.752 108.534 307.151C108.309 307.55 108.196 308 108.196 308.503C108.196 309.006 108.309 309.461 108.534 309.868C108.759 310.275 109.058 310.596 109.431 310.83C109.812 311.064 110.237 311.181 110.705 311.181ZM115.626 312V305.032H116.601V306.176L116.471 306.007C116.636 305.678 116.883 305.418 117.212 305.227C117.55 305.036 117.957 304.941 118.434 304.941H118.876V305.916H118.265C117.762 305.916 117.359 306.072 117.056 306.384C116.753 306.696 116.601 307.138 116.601 307.71V312H115.626ZM122.349 312.078C121.725 312.078 121.244 311.896 120.906 311.532C120.568 311.168 120.399 310.648 120.399 309.972V306.007H119.112V305.032H119.437C119.732 305.032 119.966 304.937 120.139 304.746C120.313 304.547 120.399 304.3 120.399 304.005V303.42H121.374V305.032H122.908V306.007H121.374V309.972C121.374 310.206 121.409 310.414 121.478 310.596C121.548 310.769 121.665 310.908 121.829 311.012C122.003 311.116 122.232 311.168 122.518 311.168C122.588 311.168 122.67 311.164 122.765 311.155C122.861 311.146 122.943 311.138 123.012 311.129V312C122.908 312.026 122.791 312.043 122.661 312.052C122.531 312.069 122.427 312.078 122.349 312.078Z" fill="#828488"/>
<path opacity="0.2" d="M68.132 332L71.396 323.06H72.428L75.692 332H74.684L73.916 329.816H69.92L69.14 332H68.132ZM70.232 328.916H73.58L71.768 323.78H72.056L70.232 328.916ZM76.6964 332V322.916H77.5964V332H76.6964ZM82.3108 332.144C81.7108 332.144 81.1668 332 80.6788 331.712C80.1988 331.416 79.8188 331.012 79.5388 330.5C79.2588 329.988 79.1188 329.408 79.1188 328.76C79.1188 328.112 79.2548 327.54 79.5268 327.044C79.7988 326.54 80.1668 326.144 80.6308 325.856C81.1028 325.568 81.6308 325.424 82.2148 325.424C82.6788 325.424 83.0908 325.512 83.4508 325.688C83.8188 325.856 84.1308 326.088 84.3868 326.384C84.6428 326.672 84.8388 327 84.9748 327.368C85.1108 327.728 85.1788 328.1 85.1788 328.484C85.1788 328.564 85.1748 328.656 85.1668 328.76C85.1588 328.856 85.1468 328.956 85.1308 329.06H79.6948V328.22H84.6148L84.1828 328.58C84.2548 328.14 84.2028 327.748 84.0268 327.404C83.8588 327.052 83.6148 326.776 83.2948 326.576C82.9748 326.368 82.6148 326.264 82.2148 326.264C81.8148 326.264 81.4428 326.368 81.0988 326.576C80.7628 326.784 80.4988 327.076 80.3068 327.452C80.1148 327.82 80.0388 328.26 80.0788 328.772C80.0388 329.284 80.1188 329.732 80.3188 330.116C80.5268 330.492 80.8068 330.784 81.1588 330.992C81.5188 331.2 81.9028 331.304 82.3108 331.304C82.7828 331.304 83.1788 331.192 83.4988 330.968C83.8188 330.744 84.0788 330.464 84.2788 330.128L85.0468 330.536C84.9188 330.824 84.7228 331.092 84.4588 331.34C84.1948 331.58 83.8788 331.776 83.5108 331.928C83.1508 332.072 82.7508 332.144 82.3108 332.144ZM85.8007 332L88.0567 328.784L85.8127 325.568H86.9167L88.9087 328.46H88.2967L90.2767 325.568H91.3807L89.1367 328.784L91.3807 332H90.2767L88.2967 329.108H88.9087L86.9167 332H85.8007ZM95.0783 332.144C94.4783 332.144 93.9343 332 93.4463 331.712C92.9663 331.416 92.5863 331.012 92.3063 330.5C92.0263 329.988 91.8863 329.408 91.8863 328.76C91.8863 328.112 92.0223 327.54 92.2943 327.044C92.5663 326.54 92.9343 326.144 93.3983 325.856C93.8703 325.568 94.3983 325.424 94.9823 325.424C95.4463 325.424 95.8583 325.512 96.2183 325.688C96.5863 325.856 96.8983 326.088 97.1543 326.384C97.4103 326.672 97.6063 327 97.7423 327.368C97.8783 327.728 97.9463 328.1 97.9463 328.484C97.9463 328.564 97.9423 328.656 97.9343 328.76C97.9263 328.856 97.9143 328.956 97.8983 329.06H92.4623V328.22H97.3823L96.9503 328.58C97.0223 328.14 96.9703 327.748 96.7943 327.404C96.6263 327.052 96.3823 326.776 96.0623 326.576C95.7423 326.368 95.3823 326.264 94.9823 326.264C94.5823 326.264 94.2103 326.368 93.8663 326.576C93.5303 326.784 93.2663 327.076 93.0743 327.452C92.8823 327.82 92.8063 328.26 92.8463 328.772C92.8063 329.284 92.8863 329.732 93.0863 330.116C93.2943 330.492 93.5743 330.784 93.9263 330.992C94.2863 331.2 94.6703 331.304 95.0783 331.304C95.5503 331.304 95.9463 331.192 96.2663 330.968C96.5863 330.744 96.8463 330.464 97.0463 330.128L97.8143 330.536C97.6863 330.824 97.4903 331.092 97.2263 331.34C96.9623 331.58 96.6463 331.776 96.2783 331.928C95.9183 332.072 95.5183 332.144 95.0783 332.144ZM99.6094 334.64C99.4814 334.64 99.3494 334.628 99.2134 334.604C99.0854 334.588 98.9574 334.556 98.8294 334.508V333.668C98.9094 333.676 99.0094 333.688 99.1294 333.704C99.2574 333.728 99.3854 333.74 99.5134 333.74C99.9054 333.74 100.205 333.656 100.413 333.488C100.621 333.328 100.825 333.016 101.025 332.552L101.433 331.592L101.409 332.384L98.6854 325.568H99.6574L101.889 331.196H101.637L103.857 325.568H104.853L101.913 332.816C101.785 333.128 101.621 333.424 101.421 333.704C101.229 333.984 100.985 334.208 100.689 334.376C100.393 334.552 100.033 334.64 99.6094 334.64Z" fill="white"/>
<path d="M261.697 308.289V307.189H266.647V308.289H261.697ZM271.082 310.632C270.569 310.632 270.092 310.537 269.652 310.346C269.212 310.148 268.838 309.88 268.53 309.543C268.222 309.206 267.995 308.817 267.848 308.377L268.948 307.915C269.146 308.421 269.436 308.81 269.817 309.081C270.198 309.352 270.638 309.488 271.137 309.488C271.43 309.488 271.687 309.444 271.907 309.356C272.127 309.261 272.296 309.129 272.413 308.96C272.538 308.791 272.6 308.597 272.6 308.377C272.6 308.076 272.516 307.838 272.347 307.662C272.178 307.486 271.929 307.347 271.599 307.244L270.059 306.76C269.443 306.569 268.974 306.28 268.651 305.891C268.328 305.495 268.167 305.033 268.167 304.505C268.167 304.043 268.281 303.64 268.508 303.295C268.735 302.943 269.047 302.668 269.443 302.47C269.846 302.272 270.305 302.173 270.818 302.173C271.309 302.173 271.757 302.261 272.16 302.437C272.563 302.606 272.908 302.84 273.194 303.141C273.487 303.442 273.7 303.79 273.832 304.186L272.754 304.659C272.593 304.226 272.34 303.893 271.995 303.658C271.658 303.423 271.265 303.306 270.818 303.306C270.547 303.306 270.308 303.354 270.103 303.449C269.898 303.537 269.736 303.669 269.619 303.845C269.509 304.014 269.454 304.212 269.454 304.439C269.454 304.703 269.538 304.938 269.707 305.143C269.876 305.348 270.132 305.502 270.477 305.605L271.907 306.056C272.56 306.254 273.051 306.54 273.381 306.914C273.711 307.281 273.876 307.739 273.876 308.289C273.876 308.744 273.755 309.147 273.513 309.499C273.278 309.851 272.952 310.13 272.534 310.335C272.116 310.533 271.632 310.632 271.082 310.632ZM270.576 311.6V301.205H271.456V311.6H270.576ZM274.977 310.5L278.475 303.405H274.537V302.305H279.828V303.405L276.385 310.5H274.977ZM280.733 310.5L284.231 303.405H280.293V302.305H285.584V303.405L282.141 310.5H280.733Z" fill="#828488"/>
<path opacity="0.2" d="M238.096 328.608C237.64 328.608 237.226 328.5 236.854 328.284C236.482 328.062 236.185 327.762 235.963 327.384C235.747 327 235.639 326.565 235.639 326.079C235.639 325.599 235.747 325.17 235.963 324.792C236.179 324.414 236.47 324.117 236.836 323.901C237.208 323.679 237.628 323.568 238.096 323.568C238.564 323.568 238.981 323.676 239.347 323.892C239.719 324.108 240.01 324.405 240.22 324.783C240.436 325.161 240.544 325.593 240.544 326.079C240.544 326.571 240.433 327.009 240.211 327.393C239.989 327.771 239.692 328.068 239.32 328.284C238.954 328.5 238.546 328.608 238.096 328.608ZM238.096 327.933C238.42 327.933 238.711 327.852 238.969 327.69C239.233 327.528 239.44 327.306 239.59 327.024C239.746 326.742 239.824 326.427 239.824 326.079C239.824 325.731 239.746 325.419 239.59 325.143C239.44 324.867 239.233 324.648 238.969 324.486C238.711 324.324 238.42 324.243 238.096 324.243C237.772 324.243 237.478 324.324 237.214 324.486C236.956 324.648 236.749 324.867 236.593 325.143C236.437 325.419 236.359 325.731 236.359 326.079C236.359 326.427 236.437 326.742 236.593 327.024C236.749 327.306 236.956 327.528 237.214 327.69C237.478 327.852 237.772 327.933 238.096 327.933ZM243.389 328.608C243.053 328.608 242.747 328.53 242.471 328.374C242.195 328.212 241.976 327.99 241.814 327.708C241.658 327.42 241.58 327.09 241.58 326.718V323.676H242.255V326.637C242.255 326.895 242.306 327.123 242.408 327.321C242.516 327.513 242.663 327.663 242.849 327.771C243.041 327.879 243.26 327.933 243.506 327.933C243.752 327.933 243.971 327.879 244.163 327.771C244.355 327.657 244.505 327.498 244.613 327.294C244.721 327.084 244.775 326.835 244.775 326.547V323.676H245.45V328.5H244.775V327.564L244.928 327.6C244.814 327.912 244.619 328.158 244.343 328.338C244.067 328.518 243.749 328.608 243.389 328.608ZM248.627 328.554C248.195 328.554 247.862 328.428 247.628 328.176C247.394 327.924 247.277 327.564 247.277 327.096V324.351H246.386V323.676H246.611C246.815 323.676 246.977 323.61 247.097 323.478C247.217 323.34 247.277 323.169 247.277 322.965V322.56H247.952V323.676H249.014V324.351H247.952V327.096C247.952 327.258 247.976 327.402 248.024 327.528C248.072 327.648 248.153 327.744 248.267 327.816C248.387 327.888 248.546 327.924 248.744 327.924C248.792 327.924 248.849 327.921 248.915 327.915C248.981 327.909 249.038 327.903 249.086 327.897V328.5C249.014 328.518 248.933 328.53 248.843 328.536C248.753 328.548 248.681 328.554 248.627 328.554ZM253.949 328.608C253.493 328.608 253.079 328.5 252.707 328.284C252.335 328.062 252.038 327.762 251.816 327.384C251.6 327 251.492 326.565 251.492 326.079C251.492 325.599 251.6 325.17 251.816 324.792C252.032 324.414 252.323 324.117 252.689 323.901C253.061 323.679 253.481 323.568 253.949 323.568C254.417 323.568 254.834 323.676 255.2 323.892C255.572 324.108 255.863 324.405 256.073 324.783C256.289 325.161 256.397 325.593 256.397 326.079C256.397 326.571 256.286 327.009 256.064 327.393C255.842 327.771 255.545 328.068 255.173 328.284C254.807 328.5 254.399 328.608 253.949 328.608ZM253.949 327.933C254.273 327.933 254.564 327.852 254.822 327.69C255.086 327.528 255.293 327.306 255.443 327.024C255.599 326.742 255.677 326.427 255.677 326.079C255.677 325.731 255.599 325.419 255.443 325.143C255.293 324.867 255.086 324.648 254.822 324.486C254.564 324.324 254.273 324.243 253.949 324.243C253.625 324.243 253.331 324.324 253.067 324.486C252.809 324.648 252.602 324.867 252.446 325.143C252.29 325.419 252.212 325.731 252.212 326.079C252.212 326.427 252.29 326.742 252.446 327.024C252.602 327.306 252.809 327.528 253.067 327.69C253.331 327.852 253.625 327.933 253.949 327.933ZM257.851 328.5V324.351H256.888V323.676H257.851V323.244C257.851 322.908 257.926 322.626 258.076 322.398C258.226 322.164 258.424 321.987 258.67 321.867C258.916 321.747 259.18 321.687 259.462 321.687C259.522 321.687 259.591 321.693 259.669 321.705C259.747 321.711 259.81 321.72 259.858 321.732V322.344C259.816 322.332 259.759 322.326 259.687 322.326C259.615 322.32 259.564 322.317 259.534 322.317C259.246 322.317 259.006 322.386 258.814 322.524C258.622 322.662 258.526 322.902 258.526 323.244V323.676H259.705V324.351H258.526V328.5H257.851ZM262.28 326.403V325.773H265.43V326.403H262.28ZM269.091 328.608C268.665 328.608 268.278 328.527 267.93 328.365C267.582 328.203 267.288 327.987 267.048 327.717C266.808 327.441 266.637 327.138 266.535 326.808L267.183 326.565C267.339 327.021 267.582 327.369 267.912 327.609C268.242 327.843 268.635 327.96 269.091 327.96C269.379 327.96 269.631 327.915 269.847 327.825C270.069 327.729 270.24 327.597 270.36 327.429C270.48 327.261 270.54 327.066 270.54 326.844C270.54 326.514 270.45 326.259 270.27 326.079C270.09 325.899 269.832 325.761 269.496 325.665L268.29 325.305C267.816 325.167 267.45 324.936 267.192 324.612C266.94 324.288 266.814 323.919 266.814 323.505C266.814 323.151 266.901 322.839 267.075 322.569C267.249 322.293 267.486 322.077 267.786 321.921C268.092 321.765 268.437 321.687 268.821 321.687C269.223 321.687 269.583 321.762 269.901 321.912C270.225 322.056 270.498 322.248 270.72 322.488C270.942 322.728 271.101 322.995 271.197 323.289L270.567 323.541C270.423 323.145 270.198 322.845 269.892 322.641C269.592 322.437 269.238 322.335 268.83 322.335C268.572 322.335 268.344 322.38 268.146 322.47C267.954 322.56 267.804 322.689 267.696 322.857C267.588 323.025 267.534 323.223 267.534 323.451C267.534 323.727 267.621 323.976 267.795 324.198C267.969 324.414 268.236 324.576 268.596 324.684L269.658 324.999C270.186 325.155 270.585 325.38 270.855 325.674C271.125 325.968 271.26 326.337 271.26 326.781C271.26 327.141 271.167 327.459 270.981 327.735C270.801 328.005 270.546 328.218 270.216 328.374C269.892 328.53 269.517 328.608 269.091 328.608ZM268.704 329.4V320.895H269.334V329.4H268.704ZM273.432 328.5V322.425H272.172V321.795H274.152V328.5H273.432ZM277.733 328.608C277.385 328.608 277.064 328.548 276.77 328.428C276.476 328.308 276.218 328.137 275.996 327.915C275.78 327.693 275.615 327.429 275.501 327.123L276.077 326.853C276.215 327.201 276.431 327.477 276.725 327.681C277.019 327.879 277.355 327.978 277.733 327.978C278.033 327.978 278.3 327.921 278.534 327.807C278.768 327.687 278.951 327.516 279.083 327.294C279.215 327.072 279.281 326.802 279.281 326.484C279.281 326.166 279.212 325.896 279.074 325.674C278.942 325.452 278.759 325.284 278.525 325.17C278.291 325.056 278.024 324.999 277.724 324.999C277.646 324.999 277.559 325.002 277.463 325.008C277.373 325.014 277.298 325.023 277.238 325.035L277.094 324.72L278.903 322.425H275.816V321.795H279.713V322.425L278.021 324.558L277.931 324.441C278.333 324.453 278.69 324.549 279.002 324.729C279.314 324.903 279.557 325.14 279.731 325.44C279.911 325.74 280.001 326.088 280.001 326.484C280.001 326.88 279.905 327.24 279.713 327.564C279.521 327.882 279.254 328.137 278.912 328.329C278.57 328.515 278.177 328.608 277.733 328.608ZM283.162 328.608C282.814 328.608 282.493 328.548 282.199 328.428C281.905 328.308 281.647 328.137 281.425 327.915C281.209 327.693 281.044 327.429 280.93 327.123L281.506 326.853C281.644 327.201 281.86 327.477 282.154 327.681C282.448 327.879 282.784 327.978 283.162 327.978C283.462 327.978 283.729 327.921 283.963 327.807C284.197 327.687 284.38 327.516 284.512 327.294C284.644 327.072 284.71 326.802 284.71 326.484C284.71 326.166 284.641 325.896 284.503 325.674C284.371 325.452 284.188 325.284 283.954 325.17C283.72 325.056 283.453 324.999 283.153 324.999C283.075 324.999 282.988 325.002 282.892 325.008C282.802 325.014 282.727 325.023 282.667 325.035L282.523 324.72L284.332 322.425H281.245V321.795H285.142V322.425L283.45 324.558L283.36 324.441C283.762 324.453 284.119 324.549 284.431 324.729C284.743 324.903 284.986 325.14 285.16 325.44C285.34 325.74 285.43 326.088 285.43 326.484C285.43 326.88 285.334 327.24 285.142 327.564C284.95 327.882 284.683 328.137 284.341 328.329C283.999 328.515 283.606 328.608 283.162 328.608Z" fill="white"/>
<path fill-rule="evenodd" clip-rule="evenodd" d="M88.8371 345.002C88.8912 345.001 88.9455 345 89 345H102H122.782H208C211.866 345 215 348.134 215 352V372C215 375.866 211.866 379 208 379H89C85.134 379 82 375.866 82 372V357L78 345.002L88.8371 345.002Z" fill="#43454B"/>
<path d="M95.056 367V358.06H96.016V367H95.056ZM99.8543 367.072C99.2783 367.072 98.8343 366.904 98.5223 366.568C98.2103 366.232 98.0543 365.752 98.0543 365.128V361.468H96.8663V360.568H97.1663C97.4383 360.568 97.6543 360.48 97.8143 360.304C97.9743 360.12 98.0543 359.892 98.0543 359.62V359.08H98.9543V360.568H100.37V361.468H98.9543V365.128C98.9543 365.344 98.9863 365.536 99.0503 365.704C99.1143 365.864 99.2223 365.992 99.3743 366.088C99.5343 366.184 99.7463 366.232 100.01 366.232C100.074 366.232 100.15 366.228 100.238 366.22C100.326 366.212 100.402 366.204 100.466 366.196V367C100.37 367.024 100.262 367.04 100.142 367.048C100.022 367.064 99.9263 367.072 99.8543 367.072ZM103.679 367.144C103.063 367.144 102.523 366.988 102.059 366.676C101.595 366.364 101.259 365.94 101.051 365.404L101.807 365.044C101.991 365.436 102.247 365.748 102.575 365.98C102.911 366.212 103.279 366.328 103.679 366.328C104.063 366.328 104.387 366.236 104.651 366.052C104.915 365.86 105.047 365.612 105.047 365.308C105.047 365.084 104.983 364.908 104.855 364.78C104.727 364.644 104.579 364.54 104.411 364.468C104.243 364.396 104.095 364.344 103.967 364.312L103.043 364.048C102.451 363.88 102.023 363.644 101.759 363.34C101.495 363.036 101.363 362.684 101.363 362.284C101.363 361.908 101.459 361.58 101.651 361.3C101.843 361.02 102.103 360.804 102.431 360.652C102.759 360.5 103.123 360.424 103.523 360.424C104.067 360.424 104.559 360.568 104.999 360.856C105.447 361.136 105.763 361.528 105.947 362.032L105.179 362.392C105.019 362.032 104.787 361.752 104.483 361.552C104.187 361.344 103.855 361.24 103.487 361.24C103.127 361.24 102.839 361.332 102.623 361.516C102.407 361.7 102.299 361.932 102.299 362.212C102.299 362.428 102.355 362.6 102.467 362.728C102.579 362.856 102.707 362.952 102.851 363.016C103.003 363.08 103.135 363.128 103.247 363.16L104.315 363.472C104.835 363.624 105.239 363.86 105.527 364.18C105.823 364.5 105.971 364.876 105.971 365.308C105.971 365.66 105.871 365.976 105.671 366.256C105.479 366.536 105.211 366.756 104.867 366.916C104.523 367.068 104.127 367.144 103.679 367.144ZM110.623 367.144C110.007 367.144 109.467 366.988 109.003 366.676C108.539 366.364 108.203 365.94 107.995 365.404L108.751 365.044C108.935 365.436 109.191 365.748 109.519 365.98C109.855 366.212 110.223 366.328 110.623 366.328C111.007 366.328 111.331 366.236 111.595 366.052C111.859 365.86 111.991 365.612 111.991 365.308C111.991 365.084 111.927 364.908 111.799 364.78C111.671 364.644 111.523 364.54 111.355 364.468C111.187 364.396 111.039 364.344 110.911 364.312L109.987 364.048C109.395 363.88 108.967 363.644 108.703 363.34C108.439 363.036 108.307 362.684 108.307 362.284C108.307 361.908 108.403 361.58 108.595 361.3C108.787 361.02 109.047 360.804 109.375 360.652C109.703 360.5 110.067 360.424 110.467 360.424C111.011 360.424 111.503 360.568 111.943 360.856C112.391 361.136 112.707 361.528 112.891 362.032L112.123 362.392C111.963 362.032 111.731 361.752 111.427 361.552C111.131 361.344 110.799 361.24 110.431 361.24C110.071 361.24 109.783 361.332 109.567 361.516C109.351 361.7 109.243 361.932 109.243 362.212C109.243 362.428 109.299 362.6 109.411 362.728C109.523 362.856 109.651 362.952 109.795 363.016C109.947 363.08 110.079 363.128 110.191 363.16L111.259 363.472C111.779 363.624 112.183 363.86 112.471 364.18C112.767 364.5 112.915 364.876 112.915 365.308C112.915 365.66 112.815 365.976 112.615 366.256C112.423 366.536 112.155 366.756 111.811 366.916C111.467 367.068 111.071 367.144 110.623 367.144ZM116.909 367.144C116.301 367.144 115.749 367 115.253 366.712C114.757 366.416 114.361 366.016 114.065 365.512C113.777 365 113.633 364.42 113.633 363.772C113.633 363.132 113.777 362.56 114.065 362.056C114.353 361.552 114.741 361.156 115.229 360.868C115.725 360.572 116.285 360.424 116.909 360.424C117.533 360.424 118.089 360.568 118.577 360.856C119.073 361.144 119.461 361.54 119.741 362.044C120.029 362.548 120.173 363.124 120.173 363.772C120.173 364.428 120.025 365.012 119.729 365.524C119.433 366.028 119.037 366.424 118.541 366.712C118.053 367 117.509 367.144 116.909 367.144ZM116.909 366.244C117.341 366.244 117.729 366.136 118.073 365.92C118.425 365.704 118.701 365.408 118.901 365.032C119.109 364.656 119.213 364.236 119.213 363.772C119.213 363.308 119.109 362.892 118.901 362.524C118.701 362.156 118.425 361.864 118.073 361.648C117.729 361.432 117.341 361.324 116.909 361.324C116.477 361.324 116.085 361.432 115.733 361.648C115.389 361.864 115.113 362.156 114.905 362.524C114.697 362.892 114.593 363.308 114.593 363.772C114.593 364.236 114.697 364.656 114.905 365.032C115.113 365.408 115.389 365.704 115.733 365.92C116.085 366.136 116.477 366.244 116.909 366.244ZM123.44 367.144C122.992 367.144 122.584 367.04 122.216 366.832C121.848 366.616 121.556 366.32 121.34 365.944C121.132 365.56 121.028 365.12 121.028 364.624V360.568H121.928V364.516C121.928 364.86 121.996 365.164 122.132 365.428C122.276 365.684 122.472 365.884 122.72 366.028C122.976 366.172 123.268 366.244 123.596 366.244C123.924 366.244 124.216 366.172 124.472 366.028C124.728 365.876 124.928 365.664 125.072 365.392C125.216 365.112 125.288 364.78 125.288 364.396V360.568H126.188V367H125.288V365.752L125.492 365.8C125.34 366.216 125.08 366.544 124.712 366.784C124.344 367.024 123.92 367.144 123.44 367.144ZM127.439 367V360.568H128.339V361.816L128.135 361.768C128.295 361.352 128.555 361.024 128.915 360.784C129.283 360.544 129.707 360.424 130.187 360.424C130.643 360.424 131.051 360.528 131.411 360.736C131.779 360.944 132.067 361.232 132.275 361.6C132.491 361.96 132.599 362.368 132.599 362.824V367H131.699V363.172C131.699 362.78 131.627 362.448 131.483 362.176C131.347 361.904 131.151 361.696 130.895 361.552C130.647 361.4 130.359 361.324 130.031 361.324C129.703 361.324 129.411 361.4 129.155 361.552C128.899 361.696 128.699 361.908 128.555 362.188C128.411 362.46 128.339 362.788 128.339 363.172V367H127.439ZM136.622 367.144C136.022 367.144 135.482 367 135.002 366.712C134.522 366.416 134.142 366.016 133.862 365.512C133.59 365 133.454 364.424 133.454 363.784C133.454 363.136 133.59 362.56 133.862 362.056C134.142 361.552 134.518 361.156 134.99 360.868C135.47 360.572 136.014 360.424 136.622 360.424C137.174 360.424 137.666 360.544 138.098 360.784C138.53 361.024 138.87 361.348 139.118 361.756L138.974 362.008V357.916H139.874V367H138.974V365.56L139.118 365.692C138.894 366.156 138.558 366.516 138.11 366.772C137.67 367.02 137.174 367.144 136.622 367.144ZM136.67 366.244C137.102 366.244 137.49 366.136 137.834 365.92C138.186 365.704 138.462 365.412 138.662 365.044C138.87 364.668 138.974 364.248 138.974 363.784C138.974 363.32 138.87 362.904 138.662 362.536C138.462 362.16 138.186 361.864 137.834 361.648C137.49 361.432 137.102 361.324 136.67 361.324C136.246 361.324 135.862 361.432 135.518 361.648C135.174 361.864 134.902 362.156 134.702 362.524C134.51 362.892 134.414 363.312 134.414 363.784C134.414 364.248 134.51 364.668 134.702 365.044C134.902 365.412 135.17 365.704 135.506 365.92C135.85 366.136 136.238 366.244 136.67 366.244ZM143.354 367.144C142.738 367.144 142.198 366.988 141.734 366.676C141.27 366.364 140.934 365.94 140.726 365.404L141.482 365.044C141.666 365.436 141.922 365.748 142.25 365.98C142.586 366.212 142.954 366.328 143.354 366.328C143.738 366.328 144.062 366.236 144.326 366.052C144.59 365.86 144.722 365.612 144.722 365.308C144.722 365.084 144.658 364.908 144.53 364.78C144.402 364.644 144.254 364.54 144.086 364.468C143.918 364.396 143.77 364.344 143.642 364.312L142.718 364.048C142.126 363.88 141.698 363.644 141.434 363.34C141.17 363.036 141.038 362.684 141.038 362.284C141.038 361.908 141.134 361.58 141.326 361.3C141.518 361.02 141.778 360.804 142.106 360.652C142.434 360.5 142.798 360.424 143.198 360.424C143.742 360.424 144.234 360.568 144.674 360.856C145.122 361.136 145.438 361.528 145.622 362.032L144.854 362.392C144.694 362.032 144.462 361.752 144.158 361.552C143.862 361.344 143.53 361.24 143.162 361.24C142.802 361.24 142.514 361.332 142.298 361.516C142.082 361.7 141.974 361.932 141.974 362.212C141.974 362.428 142.03 362.6 142.142 362.728C142.254 362.856 142.382 362.952 142.526 363.016C142.678 363.08 142.81 363.128 142.922 363.16L143.99 363.472C144.51 363.624 144.914 363.86 145.202 364.18C145.498 364.5 145.646 364.876 145.646 365.308C145.646 365.66 145.546 365.976 145.346 366.256C145.154 366.536 144.886 366.756 144.542 366.916C144.198 367.068 143.802 367.144 143.354 367.144ZM151.006 367.144C150.374 367.144 149.818 366.996 149.338 366.7C148.858 366.404 148.482 366.004 148.21 365.5C147.938 364.988 147.802 364.412 147.802 363.772C147.802 363.132 147.938 362.56 148.21 362.056C148.482 361.552 148.858 361.156 149.338 360.868C149.818 360.572 150.374 360.424 151.006 360.424C151.406 360.424 151.782 360.496 152.134 360.64C152.486 360.784 152.798 360.98 153.07 361.228C153.342 361.468 153.546 361.748 153.682 362.068L152.866 362.488C152.706 362.144 152.462 361.864 152.134 361.648C151.806 361.432 151.43 361.324 151.006 361.324C150.582 361.324 150.198 361.432 149.854 361.648C149.518 361.856 149.25 362.148 149.05 362.524C148.858 362.892 148.762 363.312 148.762 363.784C148.762 364.248 148.858 364.668 149.05 365.044C149.25 365.412 149.518 365.704 149.854 365.92C150.198 366.136 150.582 366.244 151.006 366.244C151.43 366.244 151.802 366.136 152.122 365.92C152.45 365.704 152.698 365.416 152.866 365.056L153.682 365.5C153.546 365.812 153.342 366.092 153.07 366.34C152.798 366.588 152.486 366.784 152.134 366.928C151.782 367.072 151.406 367.144 151.006 367.144ZM154.661 367V360.568H155.561V361.624L155.441 361.468C155.593 361.164 155.821 360.924 156.125 360.748C156.437 360.572 156.813 360.484 157.253 360.484H157.661V361.384H157.097C156.633 361.384 156.261 361.528 155.981 361.816C155.701 362.104 155.561 362.512 155.561 363.04V367H154.661ZM159.976 367.144C159.568 367.144 159.204 367.068 158.884 366.916C158.564 366.756 158.312 366.54 158.128 366.268C157.944 365.996 157.852 365.684 157.852 365.332C157.852 364.996 157.924 364.692 158.068 364.42C158.212 364.14 158.436 363.904 158.74 363.712C159.044 363.52 159.432 363.384 159.904 363.304L162.424 362.884V363.7L160.12 364.084C159.656 364.164 159.32 364.312 159.112 364.528C158.912 364.744 158.812 365 158.812 365.296C158.812 365.584 158.924 365.828 159.148 366.028C159.38 366.228 159.676 366.328 160.036 366.328C160.476 366.328 160.86 366.236 161.188 366.052C161.516 365.86 161.772 365.604 161.956 365.284C162.14 364.964 162.232 364.608 162.232 364.216V362.584C162.232 362.2 162.092 361.888 161.812 361.648C161.532 361.408 161.168 361.288 160.72 361.288C160.328 361.288 159.984 361.388 159.688 361.588C159.392 361.78 159.172 362.032 159.028 362.344L158.212 361.9C158.332 361.628 158.52 361.38 158.776 361.156C159.04 360.932 159.34 360.756 159.676 360.628C160.012 360.492 160.36 360.424 160.72 360.424C161.192 360.424 161.608 360.516 161.968 360.7C162.336 360.884 162.62 361.14 162.82 361.468C163.028 361.788 163.132 362.16 163.132 362.584V367H162.232V365.716L162.364 365.848C162.252 366.088 162.076 366.308 161.836 366.508C161.604 366.7 161.328 366.856 161.008 366.976C160.696 367.088 160.352 367.144 159.976 367.144ZM163.723 367V366.22L167.599 361.12L167.767 361.468H163.927V360.568H168.559V361.348L164.695 366.448L164.527 366.1H168.583V367H163.723ZM169.306 369.64C169.178 369.64 169.046 369.628 168.91 369.604C168.782 369.588 168.654 369.556 168.526 369.508V368.668C168.606 368.676 168.706 368.688 168.826 368.704C168.954 368.728 169.082 368.74 169.21 368.74C169.602 368.74 169.902 368.656 170.11 368.488C170.318 368.328 170.522 368.016 170.722 367.552L171.13 366.592L171.106 367.384L168.382 360.568H169.354L171.586 366.196H171.334L173.554 360.568H174.55L171.61 367.816C171.482 368.128 171.318 368.424 171.118 368.704C170.926 368.984 170.682 369.208 170.386 369.376C170.09 369.552 169.73 369.64 169.306 369.64ZM179.699 367.144C179.147 367.144 178.647 367.02 178.199 366.772C177.759 366.516 177.427 366.156 177.203 365.692L177.347 365.56V367H176.447V357.916H177.347V362.008L177.203 361.756C177.459 361.348 177.799 361.024 178.223 360.784C178.655 360.544 179.147 360.424 179.699 360.424C180.307 360.424 180.847 360.572 181.319 360.868C181.799 361.156 182.175 361.552 182.447 362.056C182.727 362.56 182.867 363.136 182.867 363.784C182.867 364.424 182.727 365 182.447 365.512C182.175 366.016 181.799 366.416 181.319 366.712C180.847 367 180.307 367.144 179.699 367.144ZM179.651 366.244C180.083 366.244 180.467 366.136 180.803 365.92C181.147 365.704 181.415 365.412 181.607 365.044C181.807 364.668 181.907 364.248 181.907 363.784C181.907 363.312 181.807 362.892 181.607 362.524C181.415 362.156 181.147 361.864 180.803 361.648C180.467 361.432 180.083 361.324 179.651 361.324C179.219 361.324 178.827 361.432 178.475 361.648C178.131 361.864 177.855 362.16 177.647 362.536C177.447 362.904 177.347 363.32 177.347 363.784C177.347 364.248 177.447 364.668 177.647 365.044C177.855 365.412 178.131 365.704 178.475 365.92C178.827 366.136 179.219 366.244 179.651 366.244ZM186.131 367.144C185.683 367.144 185.275 367.04 184.907 366.832C184.539 366.616 184.247 366.32 184.031 365.944C183.823 365.56 183.719 365.12 183.719 364.624V360.568H184.619V364.516C184.619 364.86 184.687 365.164 184.823 365.428C184.967 365.684 185.163 365.884 185.411 366.028C185.667 366.172 185.959 366.244 186.287 366.244C186.615 366.244 186.907 366.172 187.163 366.028C187.419 365.876 187.619 365.664 187.763 365.392C187.907 365.112 187.979 364.78 187.979 364.396V360.568H188.879V367H187.979V365.752L188.183 365.8C188.031 366.216 187.771 366.544 187.403 366.784C187.035 367.024 186.611 367.144 186.131 367.144ZM192.589 367.072C192.013 367.072 191.569 366.904 191.257 366.568C190.945 366.232 190.789 365.752 190.789 365.128V361.468H189.601V360.568H189.901C190.173 360.568 190.389 360.48 190.549 360.304C190.709 360.12 190.789 359.892 190.789 359.62V359.08H191.689V360.568H193.105V361.468H191.689V365.128C191.689 365.344 191.721 365.536 191.785 365.704C191.849 365.864 191.957 365.992 192.109 366.088C192.269 366.184 192.481 366.232 192.745 366.232C192.809 366.232 192.885 366.228 192.973 366.22C193.061 366.212 193.137 366.204 193.201 366.196V367C193.105 367.024 192.997 367.04 192.877 367.048C192.757 367.064 192.661 367.072 192.589 367.072ZM194.494 367V365.68H195.454V367H194.494ZM197.327 367V365.68H198.287V367H197.327ZM200.161 367V365.68H201.121V367H200.161Z" fill="#828488"/>
</g>
<defs>
<filter id="filter0_bd_2396_7398" x="-69.1184" y="-72.1184" width="452.237" height="564.237" filterUnits="userSpaceOnUse" color-interpolation-filters="sRGB">
<feFlood flood-opacity="0" result="BackgroundImageFix"/>
<feGaussianBlur in="BackgroundImageFix" stdDeviation="36.0592"/>
<feComposite in2="SourceAlpha" operator="in" result="effect1_backgroundBlur_2396_7398"/>
<feColorMatrix in="SourceAlpha" type="matrix" values="0 0 0 0 0 0 0 0 0 0 0 0 0 0 0 0 0 0 127 0" result="hardAlpha"/>
<feOffset dy="3.36216"/>
<feGaussianBlur stdDeviation="1.68108"/>
<feComposite in2="hardAlpha" operator="out"/>
<feColorMatrix type="matrix" values="0 0 0 0 0 0 0 0 0 0 0 0 0 0 0 0 0 0 0.25 0"/>
<feBlend mode="normal" in2="effect1_backgroundBlur_2396_7398" result="effect2_dropShadow_2396_7398"/>
<feBlend mode="normal" in="SourceGraphic" in2="effect2_dropShadow_2396_7398" result="shape"/>
</filter>
<filter id="filter1_d_2396_7398" x="9.9" y="131.9" width="157.2" height="70.2" filterUnits="userSpaceOnUse" color-interpolation-filters="sRGB">
<feFlood flood-opacity="0" result="BackgroundImageFix"/>
<feColorMatrix in="SourceAlpha" type="matrix" values="0 0 0 0 0 0 0 0 0 0 0 0 0 0 0 0 0 0 127 0" result="hardAlpha"/>
<feOffset/>
<feGaussianBlur stdDeviation="7.55"/>
<feComposite in2="hardAlpha" operator="out"/>
<feColorMatrix type="matrix" values="0 0 0 0 0.18316 0 0 0 0 0.191551 0 0 0 0 0.208333 0 0 0 1 0"/>
<feBlend mode="normal" in2="BackgroundImageFix" result="effect1_dropShadow_2396_7398"/>
<feBlend mode="normal" in="SourceGraphic" in2="effect1_dropShadow_2396_7398" result="shape"/>
</filter>
<filter id="filter2_d_2396_7398" x="146.9" y="131.9" width="157.2" height="70.2" filterUnits="userSpaceOnUse" color-interpolation-filters="sRGB">
<feFlood flood-opacity="0" result="BackgroundImageFix"/>
<feColorMatrix in="SourceAlpha" type="matrix" values="0 0 0 0 0 0 0 0 0 0 0 0 0 0 0 0 0 0 127 0" result="hardAlpha"/>
<feOffset/>
<feGaussianBlur stdDeviation="7.55"/>
<feComposite in2="hardAlpha" operator="out"/>
<feColorMatrix type="matrix" values="0 0 0 0 0.18316 0 0 0 0 0.191551 0 0 0 0 0.208333 0 0 0 1 0"/>
<feBlend mode="normal" in2="BackgroundImageFix" result="effect1_dropShadow_2396_7398"/>
<feBlend mode="normal" in="SourceGraphic" in2="effect1_dropShadow_2396_7398" result="shape"/>
</filter>
<filter id="filter3_d_2396_7398" x="120" y="225" width="74" height="33" filterUnits="userSpaceOnUse" color-interpolation-filters="sRGB">
<feFlood flood-opacity="0" result="BackgroundImageFix"/>
<feColorMatrix in="SourceAlpha" type="matrix" values="0 0 0 0 0 0 0 0 0 0 0 0 0 0 0 0 0 0 127 0" result="hardAlpha"/>
<feOffset dy="-1"/>
<feGaussianBlur stdDeviation="7.5"/>
<feComposite in2="hardAlpha" operator="out"/>
<feColorMatrix type="matrix" values="0 0 0 0 0.976471 0 0 0 0 0.74902 0 0 0 0 0.258824 0 0 0 0.77 0"/>
<feBlend mode="normal" in2="BackgroundImageFix" result="effect1_dropShadow_2396_7398"/>
<feBlend mode="normal" in="SourceGraphic" in2="effect1_dropShadow_2396_7398" result="shape"/>
</filter>
<filter id="filter4_d_2396_7398" x="120" y="226" width="74" height="33" filterUnits="userSpaceOnUse" color-interpolation-filters="sRGB">
<feFlood flood-opacity="0" result="BackgroundImageFix"/>
<feColorMatrix in="SourceAlpha" type="matrix" values="0 0 0 0 0 0 0 0 0 0 0 0 0 0 0 0 0 0 127 0" result="hardAlpha"/>
<feOffset/>
<feGaussianBlur stdDeviation="7.5"/>
<feComposite in2="hardAlpha" operator="out"/>
<feColorMatrix type="matrix" values="0 0 0 0 0.976471 0 0 0 0 0.74902 0 0 0 0 0.258824 0 0 0 0.77 0"/>
<feBlend mode="normal" in2="BackgroundImageFix" result="effect1_dropShadow_2396_7398"/>
<feBlend mode="normal" in="SourceGraphic" in2="effect1_dropShadow_2396_7398" result="shape"/>
</filter>
<filter id="filter5_b_2396_7398" x="-44.9791" y="224.021" width="177.958" height="177.958" filterUnits="userSpaceOnUse" color-interpolation-filters="sRGB">
<feFlood flood-opacity="0" result="BackgroundImageFix"/>
<feGaussianBlur in="BackgroundImageFix" stdDeviation="36.4895"/>
<feComposite in2="SourceAlpha" operator="in" result="effect1_backgroundBlur_2396_7398"/>
<feBlend mode="normal" in="SourceGraphic" in2="effect1_backgroundBlur_2396_7398" result="shape"/>
</filter>
<linearGradient id="paint0_linear_2396_7398" x1="301" y1="244" x2="13" y2="244" gradientUnits="userSpaceOnUse">
<stop stop-color="white" stop-opacity="0"/>
<stop offset="0.507242" stop-color="white"/>
<stop offset="1" stop-color="white" stop-opacity="0"/>
</linearGradient>
<linearGradient id="paint1_linear_2396_7398" x1="12" y1="231.721" x2="72" y2="231.721" gradientUnits="userSpaceOnUse">
<stop stop-color="#292C32"/>
<stop offset="1" stop-color="#292C32" stop-opacity="0"/>
</linearGradient>
<linearGradient id="paint2_linear_2396_7398" x1="302" y1="271.721" x2="362" y2="271.721" gradientUnits="userSpaceOnUse">
<stop stop-color="#292C32"/>
<stop offset="1" stop-color="#292C32" stop-opacity="0"/>
</linearGradient>
<clipPath id="clip0_2396_7398">
<rect width="313" height="420" fill="white"/>
</clipPath>
<clipPath id="clip1_2396_7398">
<rect width="16.8421" height="16.8421" fill="white" transform="translate(35.5781 304.578)"/>
</clipPath>
</defs>
</svg>
