<svg width="230" height="230" viewBox="0 0 230 230" fill="none" xmlns="http://www.w3.org/2000/svg">
<path d="M77.994 6.76532C79.5267 6.76532 80.7692 5.5228 80.7692 3.99008C80.7692 2.45736 79.5267 1.21484 77.994 1.21484C76.4613 1.21484 75.2188 2.45736 75.2188 3.99008C75.2188 5.5228 76.4613 6.76532 77.994 6.76532Z" fill="#F9BF42"/>
<path d="M105.752 6.76532C107.285 6.76532 108.527 5.5228 108.527 3.99008C108.527 2.45736 107.285 1.21484 105.752 1.21484C104.219 1.21484 102.977 2.45736 102.977 3.99008C102.977 5.5228 104.219 6.76532 105.752 6.76532Z" fill="#F9BF42"/>
<path d="M124.252 6.76532C125.785 6.76532 127.027 5.5228 127.027 3.99008C127.027 2.45736 125.785 1.21484 124.252 1.21484C122.719 1.21484 121.477 2.45736 121.477 3.99008C121.477 5.5228 122.719 6.76532 124.252 6.76532Z" fill="#F9BF42"/>
<path d="M133.502 6.76532C135.035 6.76532 136.277 5.5228 136.277 3.99008C136.277 2.45736 135.035 1.21484 133.502 1.21484C131.969 1.21484 130.727 2.45736 130.727 3.99008C130.727 5.5228 131.969 6.76532 133.502 6.76532Z" fill="#F9BF42"/>
<path d="M96.5018 16.0173C98.0345 16.0173 99.277 14.7748 99.277 13.242C99.277 11.7093 98.0345 10.4668 96.5018 10.4668C94.9691 10.4668 93.7266 11.7093 93.7266 13.242C93.7266 14.7748 94.9691 16.0173 96.5018 16.0173Z" fill="#F9BF42"/>
<path d="M105.752 16.0173C107.285 16.0173 108.527 14.7748 108.527 13.242C108.527 11.7093 107.285 10.4668 105.752 10.4668C104.219 10.4668 102.977 11.7093 102.977 13.242C102.977 14.7748 104.219 16.0173 105.752 16.0173Z" fill="#F9BF42"/>
<path d="M77.994 25.2673C79.5267 25.2673 80.7692 24.0248 80.7692 22.492C80.7692 20.9593 79.5267 19.7168 77.994 19.7168C76.4613 19.7168 75.2188 20.9593 75.2188 22.492C75.2188 24.0248 76.4613 25.2673 77.994 25.2673Z" fill="#F9BF42"/>
<path d="M96.5018 25.2673C98.0345 25.2673 99.277 24.0248 99.277 22.492C99.277 20.9593 98.0345 19.7168 96.5018 19.7168C94.9691 19.7168 93.7266 20.9593 93.7266 22.492C93.7266 24.0248 94.9691 25.2673 96.5018 25.2673Z" fill="#F9BF42"/>
<path d="M105.752 25.2673C107.285 25.2673 108.527 24.0248 108.527 22.492C108.527 20.9593 107.285 19.7168 105.752 19.7168C104.219 19.7168 102.977 20.9593 102.977 22.492C102.977 24.0248 104.219 25.2673 105.752 25.2673Z" fill="#F9BF42"/>
<path d="M124.252 25.2673C125.785 25.2673 127.027 24.0248 127.027 22.492C127.027 20.9593 125.785 19.7168 124.252 19.7168C122.719 19.7168 121.477 20.9593 121.477 22.492C121.477 24.0248 122.719 25.2673 124.252 25.2673Z" fill="#F9BF42"/>
<path d="M142.752 25.2673C144.285 25.2673 145.527 24.0248 145.527 22.492C145.527 20.9593 144.285 19.7168 142.752 19.7168C141.219 19.7168 139.977 20.9593 139.977 22.492C139.977 24.0248 141.219 25.2673 142.752 25.2673Z" fill="#F9BF42"/>
<path d="M87.244 34.5173C88.7767 34.5173 90.0192 33.2748 90.0192 31.742C90.0192 30.2093 88.7767 28.9668 87.244 28.9668C85.7113 28.9668 84.4688 30.2093 84.4688 31.742C84.4688 33.2748 85.7113 34.5173 87.244 34.5173Z" fill="#F9BF42"/>
<path d="M96.5018 34.5173C98.0345 34.5173 99.277 33.2748 99.277 31.742C99.277 30.2093 98.0345 28.9668 96.5018 28.9668C94.9691 28.9668 93.7266 30.2093 93.7266 31.742C93.7266 33.2748 94.9691 34.5173 96.5018 34.5173Z" fill="#F9BF42"/>
<path d="M115.002 34.5173C116.535 34.5173 117.777 33.2748 117.777 31.742C117.777 30.2093 116.535 28.9668 115.002 28.9668C113.469 28.9668 112.227 30.2093 112.227 31.742C112.227 33.2748 113.469 34.5173 115.002 34.5173Z" fill="#F9BF42"/>
<path d="M124.252 34.5173C125.785 34.5173 127.027 33.2748 127.027 31.742C127.027 30.2093 125.785 28.9668 124.252 28.9668C122.719 28.9668 121.477 30.2093 121.477 31.742C121.477 33.2748 122.719 34.5173 124.252 34.5173Z" fill="#F9BF42"/>
<path d="M133.502 34.5173C135.035 34.5173 136.277 33.2748 136.277 31.742C136.277 30.2093 135.035 28.9668 133.502 28.9668C131.969 28.9668 130.727 30.2093 130.727 31.742C130.727 33.2748 131.969 34.5173 133.502 34.5173Z" fill="#F9BF42"/>
<path d="M105.752 43.7692C107.285 43.7692 108.527 42.5267 108.527 40.994C108.527 39.4613 107.285 38.2188 105.752 38.2188C104.219 38.2188 102.977 39.4613 102.977 40.994C102.977 42.5267 104.219 43.7692 105.752 43.7692Z" fill="#F9BF42"/>
<path d="M115.002 43.7692C116.535 43.7692 117.777 42.5267 117.777 40.994C117.777 39.4613 116.535 38.2188 115.002 38.2188C113.469 38.2188 112.227 39.4613 112.227 40.994C112.227 42.5267 113.469 43.7692 115.002 43.7692Z" fill="#F9BF42"/>
<path d="M124.252 43.7692C125.785 43.7692 127.027 42.5267 127.027 40.994C127.027 39.4613 125.785 38.2188 124.252 38.2188C122.719 38.2188 121.477 39.4613 121.477 40.994C121.477 42.5267 122.719 43.7692 124.252 43.7692Z" fill="#F9BF42"/>
<path d="M133.502 43.7692C135.035 43.7692 136.277 42.5267 136.277 40.994C136.277 39.4613 135.035 38.2188 133.502 38.2188C131.969 38.2188 130.727 39.4613 130.727 40.994C130.727 42.5267 131.969 43.7692 133.502 43.7692Z" fill="#F9BF42"/>
<path d="M77.994 53.0192C79.5267 53.0192 80.7692 51.7767 80.7692 50.244C80.7692 48.7113 79.5267 47.4688 77.994 47.4688C76.4613 47.4688 75.2188 48.7113 75.2188 50.244C75.2188 51.7767 76.4613 53.0192 77.994 53.0192Z" fill="#F9BF42"/>
<path d="M87.244 53.0192C88.7767 53.0192 90.0192 51.7767 90.0192 50.244C90.0192 48.7113 88.7767 47.4688 87.244 47.4688C85.7113 47.4688 84.4688 48.7113 84.4688 50.244C84.4688 51.7767 85.7113 53.0192 87.244 53.0192Z" fill="#F9BF42"/>
<path d="M96.5018 53.0192C98.0345 53.0192 99.277 51.7767 99.277 50.244C99.277 48.7113 98.0345 47.4688 96.5018 47.4688C94.9691 47.4688 93.7266 48.7113 93.7266 50.244C93.7266 51.7767 94.9691 53.0192 96.5018 53.0192Z" fill="#F9BF42"/>
<path d="M124.252 53.0192C125.785 53.0192 127.027 51.7767 127.027 50.244C127.027 48.7113 125.785 47.4688 124.252 47.4688C122.719 47.4688 121.477 48.7113 121.477 50.244C121.477 51.7767 122.719 53.0192 124.252 53.0192Z" fill="#F9BF42"/>
<path d="M152.002 53.0192C153.535 53.0192 154.777 51.7767 154.777 50.244C154.777 48.7113 153.535 47.4688 152.002 47.4688C150.469 47.4688 149.227 48.7113 149.227 50.244C149.227 51.7767 150.469 53.0192 152.002 53.0192Z" fill="#F9BF42"/>
<path d="M77.994 62.2712C79.5267 62.2712 80.7692 61.0287 80.7692 59.4959C80.7692 57.9632 79.5267 56.7207 77.994 56.7207C76.4613 56.7207 75.2188 57.9632 75.2188 59.4959C75.2188 61.0287 76.4613 62.2712 77.994 62.2712Z" fill="#F9BF42"/>
<path d="M96.5018 62.2712C98.0345 62.2712 99.277 61.0287 99.277 59.4959C99.277 57.9632 98.0345 56.7207 96.5018 56.7207C94.9691 56.7207 93.7266 57.9632 93.7266 59.4959C93.7266 61.0287 94.9691 62.2712 96.5018 62.2712Z" fill="#F9BF42"/>
<path d="M115.002 62.2712C116.535 62.2712 117.777 61.0287 117.777 59.4959C117.777 57.9632 116.535 56.7207 115.002 56.7207C113.469 56.7207 112.227 57.9632 112.227 59.4959C112.227 61.0287 113.469 62.2712 115.002 62.2712Z" fill="#F9BF42"/>
<path d="M133.502 62.2712C135.035 62.2712 136.277 61.0287 136.277 59.4959C136.277 57.9632 135.035 56.7207 133.502 56.7207C131.969 56.7207 130.727 57.9632 130.727 59.4959C130.727 61.0287 131.969 62.2712 133.502 62.2712Z" fill="#F9BF42"/>
<path d="M152.002 62.2712C153.535 62.2712 154.777 61.0287 154.777 59.4959C154.777 57.9632 153.535 56.7207 152.002 56.7207C150.469 56.7207 149.227 57.9632 149.227 59.4959C149.227 61.0287 150.469 62.2712 152.002 62.2712Z" fill="#F9BF42"/>
<path d="M96.5018 71.5212C98.0345 71.5212 99.277 70.2787 99.277 68.7459C99.277 67.2132 98.0345 65.9707 96.5018 65.9707C94.9691 65.9707 93.7266 67.2132 93.7266 68.7459C93.7266 70.2787 94.9691 71.5212 96.5018 71.5212Z" fill="#F9BF42"/>
<path d="M105.752 71.5212C107.285 71.5212 108.527 70.2787 108.527 68.7459C108.527 67.2132 107.285 65.9707 105.752 65.9707C104.219 65.9707 102.977 67.2132 102.977 68.7459C102.977 70.2787 104.219 71.5212 105.752 71.5212Z" fill="#F9BF42"/>
<path d="M142.752 71.5212C144.285 71.5212 145.527 70.2787 145.527 68.7459C145.527 67.2132 144.285 65.9707 142.752 65.9707C141.219 65.9707 139.977 67.2132 139.977 68.7459C139.977 70.2787 141.219 71.5212 142.752 71.5212Z" fill="#F9BF42"/>
<path d="M152.002 71.5212C153.535 71.5212 154.777 70.2787 154.777 68.7459C154.777 67.2132 153.535 65.9707 152.002 65.9707C150.469 65.9707 149.227 67.2132 149.227 68.7459C149.227 70.2787 150.469 71.5212 152.002 71.5212Z" fill="#F9BF42"/>
<path d="M3.99399 80.7712C5.52671 80.7712 6.76922 79.5287 6.76922 77.9959C6.76922 76.4632 5.52671 75.2207 3.99399 75.2207C2.46127 75.2207 1.21875 76.4632 1.21875 77.9959C1.21875 79.5287 2.46127 80.7712 3.99399 80.7712Z" fill="#F9BF42"/>
<path d="M22.494 80.7712C24.0267 80.7712 25.2692 79.5287 25.2692 77.9959C25.2692 76.4632 24.0267 75.2207 22.494 75.2207C20.9613 75.2207 19.7188 76.4632 19.7188 77.9959C19.7188 79.5287 20.9613 80.7712 22.494 80.7712Z" fill="#F9BF42"/>
<path d="M59.494 80.7712C61.0267 80.7712 62.2692 79.5287 62.2692 77.9959C62.2692 76.4632 61.0267 75.2207 59.494 75.2207C57.9613 75.2207 56.7188 76.4632 56.7188 77.9959C56.7188 79.5287 57.9613 80.7712 59.494 80.7712Z" fill="#F9BF42"/>
<path d="M68.744 80.7712C70.2767 80.7712 71.5192 79.5287 71.5192 77.9959C71.5192 76.4632 70.2767 75.2207 68.744 75.2207C67.2113 75.2207 65.9688 76.4632 65.9688 77.9959C65.9688 79.5287 67.2113 80.7712 68.744 80.7712Z" fill="#F9BF42"/>
<path d="M115.002 80.7712C116.535 80.7712 117.777 79.5287 117.777 77.9959C117.777 76.4632 116.535 75.2207 115.002 75.2207C113.469 75.2207 112.227 76.4632 112.227 77.9959C112.227 79.5287 113.469 80.7712 115.002 80.7712Z" fill="#F9BF42"/>
<path d="M142.752 80.7712C144.285 80.7712 145.527 79.5287 145.527 77.9959C145.527 76.4632 144.285 75.2207 142.752 75.2207C141.219 75.2207 139.977 76.4632 139.977 77.9959C139.977 79.5287 141.219 80.7712 142.752 80.7712Z" fill="#F9BF42"/>
<path d="M152.002 80.7712C153.535 80.7712 154.777 79.5287 154.777 77.9959C154.777 76.4632 153.535 75.2207 152.002 75.2207C150.469 75.2207 149.227 76.4632 149.227 77.9959C149.227 79.5287 150.469 80.7712 152.002 80.7712Z" fill="#F9BF42"/>
<path d="M179.752 80.7712C181.285 80.7712 182.527 79.5287 182.527 77.9959C182.527 76.4632 181.285 75.2207 179.752 75.2207C178.219 75.2207 176.977 76.4632 176.977 77.9959C176.977 79.5287 178.219 80.7712 179.752 80.7712Z" fill="#F9BF42"/>
<path d="M207.51 80.7712C209.042 80.7712 210.285 79.5287 210.285 77.9959C210.285 76.4632 209.042 75.2207 207.51 75.2207C205.977 75.2207 204.734 76.4632 204.734 77.9959C204.734 79.5287 205.977 80.7712 207.51 80.7712Z" fill="#F9BF42"/>
<path d="M226.01 80.7712C227.542 80.7712 228.785 79.5287 228.785 77.9959C228.785 76.4632 227.542 75.2207 226.01 75.2207C224.477 75.2207 223.234 76.4632 223.234 77.9959C223.234 79.5287 224.477 80.7712 226.01 80.7712Z" fill="#F9BF42"/>
<path d="M13.244 90.0231C14.7767 90.0231 16.0192 88.7806 16.0192 87.2479C16.0192 85.7152 14.7767 84.4727 13.244 84.4727C11.7113 84.4727 10.4688 85.7152 10.4688 87.2479C10.4688 88.7806 11.7113 90.0231 13.244 90.0231Z" fill="#F9BF42"/>
<path d="M31.744 90.0231C33.2767 90.0231 34.5192 88.7806 34.5192 87.2479C34.5192 85.7152 33.2767 84.4727 31.744 84.4727C30.2113 84.4727 28.9688 85.7152 28.9688 87.2479C28.9688 88.7806 30.2113 90.0231 31.744 90.0231Z" fill="#F9BF42"/>
<path d="M77.994 90.0231C79.5267 90.0231 80.7692 88.7806 80.7692 87.2479C80.7692 85.7152 79.5267 84.4727 77.994 84.4727C76.4613 84.4727 75.2188 85.7152 75.2188 87.2479C75.2188 88.7806 76.4613 90.0231 77.994 90.0231Z" fill="#F9BF42"/>
<path d="M87.244 90.0231C88.7767 90.0231 90.0192 88.7806 90.0192 87.2479C90.0192 85.7152 88.7767 84.4727 87.244 84.4727C85.7113 84.4727 84.4688 85.7152 84.4688 87.2479C84.4688 88.7806 85.7113 90.0231 87.244 90.0231Z" fill="#F9BF42"/>
<path d="M105.752 90.0231C107.285 90.0231 108.527 88.7806 108.527 87.2479C108.527 85.7152 107.285 84.4727 105.752 84.4727C104.219 84.4727 102.977 85.7152 102.977 87.2479C102.977 88.7806 104.219 90.0231 105.752 90.0231Z" fill="#F9BF42"/>
<path d="M133.502 90.0231C135.035 90.0231 136.277 88.7806 136.277 87.2479C136.277 85.7152 135.035 84.4727 133.502 84.4727C131.969 84.4727 130.727 85.7152 130.727 87.2479C130.727 88.7806 131.969 90.0231 133.502 90.0231Z" fill="#F9BF42"/>
<path d="M142.752 90.0231C144.285 90.0231 145.527 88.7806 145.527 87.2479C145.527 85.7152 144.285 84.4727 142.752 84.4727C141.219 84.4727 139.977 85.7152 139.977 87.2479C139.977 88.7806 141.219 90.0231 142.752 90.0231Z" fill="#F9BF42"/>
<path d="M152.002 90.0231C153.535 90.0231 154.777 88.7806 154.777 87.2479C154.777 85.7152 153.535 84.4727 152.002 84.4727C150.469 84.4727 149.227 85.7152 149.227 87.2479C149.227 88.7806 150.469 90.0231 152.002 90.0231Z" fill="#F9BF42"/>
<path d="M170.502 90.0231C172.035 90.0231 173.277 88.7806 173.277 87.2479C173.277 85.7152 172.035 84.4727 170.502 84.4727C168.969 84.4727 167.727 85.7152 167.727 87.2479C167.727 88.7806 168.969 90.0231 170.502 90.0231Z" fill="#F9BF42"/>
<path d="M198.26 90.0231C199.792 90.0231 201.035 88.7806 201.035 87.2479C201.035 85.7152 199.792 84.4727 198.26 84.4727C196.727 84.4727 195.484 85.7152 195.484 87.2479C195.484 88.7806 196.727 90.0231 198.26 90.0231Z" fill="#F9BF42"/>
<path d="M216.76 90.0231C218.292 90.0231 219.535 88.7806 219.535 87.2479C219.535 85.7152 218.292 84.4727 216.76 84.4727C215.227 84.4727 213.984 85.7152 213.984 87.2479C213.984 88.7806 215.227 90.0231 216.76 90.0231Z" fill="#F9BF42"/>
<path d="M226.01 90.0231C227.542 90.0231 228.785 88.7806 228.785 87.2479C228.785 85.7152 227.542 84.4727 226.01 84.4727C224.477 84.4727 223.234 85.7152 223.234 87.2479C223.234 88.7806 224.477 90.0231 226.01 90.0231Z" fill="#F9BF42"/>
<path d="M59.494 99.2731C61.0267 99.2731 62.2692 98.0306 62.2692 96.4979C62.2692 94.9652 61.0267 93.7227 59.494 93.7227C57.9613 93.7227 56.7188 94.9652 56.7188 96.4979C56.7188 98.0306 57.9613 99.2731 59.494 99.2731Z" fill="#F9BF42"/>
<path d="M77.994 99.2731C79.5267 99.2731 80.7692 98.0306 80.7692 96.4979C80.7692 94.9652 79.5267 93.7227 77.994 93.7227C76.4613 93.7227 75.2188 94.9652 75.2188 96.4979C75.2188 98.0306 76.4613 99.2731 77.994 99.2731Z" fill="#F9BF42"/>
<path d="M105.752 99.2731C107.285 99.2731 108.527 98.0306 108.527 96.4979C108.527 94.9652 107.285 93.7227 105.752 93.7227C104.219 93.7227 102.977 94.9652 102.977 96.4979C102.977 98.0306 104.219 99.2731 105.752 99.2731Z" fill="#F9BF42"/>
<path d="M115.002 99.2731C116.535 99.2731 117.777 98.0306 117.777 96.4979C117.777 94.9652 116.535 93.7227 115.002 93.7227C113.469 93.7227 112.227 94.9652 112.227 96.4979C112.227 98.0306 113.469 99.2731 115.002 99.2731Z" fill="#F9BF42"/>
<path d="M124.252 99.2731C125.785 99.2731 127.027 98.0306 127.027 96.4979C127.027 94.9652 125.785 93.7227 124.252 93.7227C122.719 93.7227 121.477 94.9652 121.477 96.4979C121.477 98.0306 122.719 99.2731 124.252 99.2731Z" fill="#F9BF42"/>
<path d="M133.502 99.2731C135.035 99.2731 136.277 98.0306 136.277 96.4979C136.277 94.9652 135.035 93.7227 133.502 93.7227C131.969 93.7227 130.727 94.9652 130.727 96.4979C130.727 98.0306 131.969 99.2731 133.502 99.2731Z" fill="#F9BF42"/>
<path d="M142.752 99.2731C144.285 99.2731 145.527 98.0306 145.527 96.4979C145.527 94.9652 144.285 93.7227 142.752 93.7227C141.219 93.7227 139.977 94.9652 139.977 96.4979C139.977 98.0306 141.219 99.2731 142.752 99.2731Z" fill="#F9BF42"/>
<path d="M179.752 99.2731C181.285 99.2731 182.527 98.0306 182.527 96.4979C182.527 94.9652 181.285 93.7227 179.752 93.7227C178.219 93.7227 176.977 94.9652 176.977 96.4979C176.977 98.0306 178.219 99.2731 179.752 99.2731Z" fill="#F9BF42"/>
<path d="M189.01 99.2731C190.542 99.2731 191.785 98.0306 191.785 96.4979C191.785 94.9652 190.542 93.7227 189.01 93.7227C187.477 93.7227 186.234 94.9652 186.234 96.4979C186.234 98.0306 187.477 99.2731 189.01 99.2731Z" fill="#F9BF42"/>
<path d="M198.26 99.2731C199.792 99.2731 201.035 98.0306 201.035 96.4979C201.035 94.9652 199.792 93.7227 198.26 93.7227C196.727 93.7227 195.484 94.9652 195.484 96.4979C195.484 98.0306 196.727 99.2731 198.26 99.2731Z" fill="#F9BF42"/>
<path d="M207.51 99.2731C209.042 99.2731 210.285 98.0306 210.285 96.4979C210.285 94.9652 209.042 93.7227 207.51 93.7227C205.977 93.7227 204.734 94.9652 204.734 96.4979C204.734 98.0306 205.977 99.2731 207.51 99.2731Z" fill="#F9BF42"/>
<path d="M226.01 99.2731C227.542 99.2731 228.785 98.0306 228.785 96.4979C228.785 94.9652 227.542 93.7227 226.01 93.7227C224.477 93.7227 223.234 94.9652 223.234 96.4979C223.234 98.0306 224.477 99.2731 226.01 99.2731Z" fill="#F9BF42"/>
<path d="M3.99399 108.525C5.52671 108.525 6.76922 107.283 6.76922 105.75C6.76922 104.217 5.52671 102.975 3.99399 102.975C2.46127 102.975 1.21875 104.217 1.21875 105.75C1.21875 107.283 2.46127 108.525 3.99399 108.525Z" fill="#F9BF42"/>
<path d="M13.244 108.525C14.7767 108.525 16.0192 107.283 16.0192 105.75C16.0192 104.217 14.7767 102.975 13.244 102.975C11.7113 102.975 10.4688 104.217 10.4688 105.75C10.4688 107.283 11.7113 108.525 13.244 108.525Z" fill="#F9BF42"/>
<path d="M50.244 108.525C51.7767 108.525 53.0192 107.283 53.0192 105.75C53.0192 104.217 51.7767 102.975 50.244 102.975C48.7113 102.975 47.4688 104.217 47.4688 105.75C47.4688 107.283 48.7113 108.525 50.244 108.525Z" fill="#F9BF42"/>
<path d="M68.744 108.525C70.2767 108.525 71.5192 107.283 71.5192 105.75C71.5192 104.217 70.2767 102.975 68.744 102.975C67.2113 102.975 65.9688 104.217 65.9688 105.75C65.9688 107.283 67.2113 108.525 68.744 108.525Z" fill="#F9BF42"/>
<path d="M96.5018 108.525C98.0345 108.525 99.277 107.283 99.277 105.75C99.277 104.217 98.0345 102.975 96.5018 102.975C94.9691 102.975 93.7266 104.217 93.7266 105.75C93.7266 107.283 94.9691 108.525 96.5018 108.525Z" fill="#F9BF42"/>
<path d="M115.002 108.525C116.535 108.525 117.777 107.283 117.777 105.75C117.777 104.217 116.535 102.975 115.002 102.975C113.469 102.975 112.227 104.217 112.227 105.75C112.227 107.283 113.469 108.525 115.002 108.525Z" fill="#F9BF42"/>
<path d="M133.502 108.525C135.035 108.525 136.277 107.283 136.277 105.75C136.277 104.217 135.035 102.975 133.502 102.975C131.969 102.975 130.727 104.217 130.727 105.75C130.727 107.283 131.969 108.525 133.502 108.525Z" fill="#F9BF42"/>
<path d="M142.752 108.525C144.285 108.525 145.527 107.283 145.527 105.75C145.527 104.217 144.285 102.975 142.752 102.975C141.219 102.975 139.977 104.217 139.977 105.75C139.977 107.283 141.219 108.525 142.752 108.525Z" fill="#F9BF42"/>
<path d="M152.002 108.525C153.535 108.525 154.777 107.283 154.777 105.75C154.777 104.217 153.535 102.975 152.002 102.975C150.469 102.975 149.227 104.217 149.227 105.75C149.227 107.283 150.469 108.525 152.002 108.525Z" fill="#F9BF42"/>
<path d="M170.502 108.525C172.035 108.525 173.277 107.283 173.277 105.75C173.277 104.217 172.035 102.975 170.502 102.975C168.969 102.975 167.727 104.217 167.727 105.75C167.727 107.283 168.969 108.525 170.502 108.525Z" fill="#F9BF42"/>
<path d="M179.752 108.525C181.285 108.525 182.527 107.283 182.527 105.75C182.527 104.217 181.285 102.975 179.752 102.975C178.219 102.975 176.977 104.217 176.977 105.75C176.977 107.283 178.219 108.525 179.752 108.525Z" fill="#F9BF42"/>
<path d="M198.26 108.525C199.792 108.525 201.035 107.283 201.035 105.75C201.035 104.217 199.792 102.975 198.26 102.975C196.727 102.975 195.484 104.217 195.484 105.75C195.484 107.283 196.727 108.525 198.26 108.525Z" fill="#F9BF42"/>
<path d="M3.99399 117.775C5.52671 117.775 6.76922 116.533 6.76922 115C6.76922 113.467 5.52671 112.225 3.99399 112.225C2.46127 112.225 1.21875 113.467 1.21875 115C1.21875 116.533 2.46127 117.775 3.99399 117.775Z" fill="#F9BF42"/>
<path d="M22.494 117.775C24.0267 117.775 25.2692 116.533 25.2692 115C25.2692 113.467 24.0267 112.225 22.494 112.225C20.9613 112.225 19.7188 113.467 19.7188 115C19.7188 116.533 20.9613 117.775 22.494 117.775Z" fill="#F9BF42"/>
<path d="M50.244 117.775C51.7767 117.775 53.0192 116.533 53.0192 115C53.0192 113.467 51.7767 112.225 50.244 112.225C48.7113 112.225 47.4688 113.467 47.4688 115C47.4688 116.533 48.7113 117.775 50.244 117.775Z" fill="#F9BF42"/>
<path d="M59.494 117.775C61.0267 117.775 62.2692 116.533 62.2692 115C62.2692 113.467 61.0267 112.225 59.494 112.225C57.9613 112.225 56.7188 113.467 56.7188 115C56.7188 116.533 57.9613 117.775 59.494 117.775Z" fill="#F9BF42"/>
<path d="M68.744 117.775C70.2767 117.775 71.5192 116.533 71.5192 115C71.5192 113.467 70.2767 112.225 68.744 112.225C67.2113 112.225 65.9688 113.467 65.9688 115C65.9688 116.533 67.2113 117.775 68.744 117.775Z" fill="#F9BF42"/>
<path d="M87.244 117.775C88.7767 117.775 90.0192 116.533 90.0192 115C90.0192 113.467 88.7767 112.225 87.244 112.225C85.7113 112.225 84.4688 113.467 84.4688 115C84.4688 116.533 85.7113 117.775 87.244 117.775Z" fill="#F9BF42"/>
<path d="M105.752 117.775C107.285 117.775 108.527 116.533 108.527 115C108.527 113.467 107.285 112.225 105.752 112.225C104.219 112.225 102.977 113.467 102.977 115C102.977 116.533 104.219 117.775 105.752 117.775Z" fill="#F9BF42"/>
<path d="M115.002 117.775C116.535 117.775 117.777 116.533 117.777 115C117.777 113.467 116.535 112.225 115.002 112.225C113.469 112.225 112.227 113.467 112.227 115C112.227 116.533 113.469 117.775 115.002 117.775Z" fill="#F9BF42"/>
<path d="M152.002 117.775C153.535 117.775 154.777 116.533 154.777 115C154.777 113.467 153.535 112.225 152.002 112.225C150.469 112.225 149.227 113.467 149.227 115C149.227 116.533 150.469 117.775 152.002 117.775Z" fill="#F9BF42"/>
<path d="M170.502 117.775C172.035 117.775 173.277 116.533 173.277 115C173.277 113.467 172.035 112.225 170.502 112.225C168.969 112.225 167.727 113.467 167.727 115C167.727 116.533 168.969 117.775 170.502 117.775Z" fill="#F9BF42"/>
<path d="M226.01 117.775C227.542 117.775 228.785 116.533 228.785 115C228.785 113.467 227.542 112.225 226.01 112.225C224.477 112.225 223.234 113.467 223.234 115C223.234 116.533 224.477 117.775 226.01 117.775Z" fill="#F9BF42"/>
<path d="M31.744 127.025C33.2767 127.025 34.5192 125.783 34.5192 124.25C34.5192 122.717 33.2767 121.475 31.744 121.475C30.2113 121.475 28.9688 122.717 28.9688 124.25C28.9688 125.783 30.2113 127.025 31.744 127.025Z" fill="#F9BF42"/>
<path d="M50.244 127.025C51.7767 127.025 53.0192 125.783 53.0192 124.25C53.0192 122.717 51.7767 121.475 50.244 121.475C48.7113 121.475 47.4688 122.717 47.4688 124.25C47.4688 125.783 48.7113 127.025 50.244 127.025Z" fill="#F9BF42"/>
<path d="M77.994 127.025C79.5267 127.025 80.7692 125.783 80.7692 124.25C80.7692 122.717 79.5267 121.475 77.994 121.475C76.4613 121.475 75.2188 122.717 75.2188 124.25C75.2188 125.783 76.4613 127.025 77.994 127.025Z" fill="#F9BF42"/>
<path d="M87.244 127.025C88.7767 127.025 90.0192 125.783 90.0192 124.25C90.0192 122.717 88.7767 121.475 87.244 121.475C85.7113 121.475 84.4688 122.717 84.4688 124.25C84.4688 125.783 85.7113 127.025 87.244 127.025Z" fill="#F9BF42"/>
<path d="M115.002 127.025C116.535 127.025 117.777 125.783 117.777 124.25C117.777 122.717 116.535 121.475 115.002 121.475C113.469 121.475 112.227 122.717 112.227 124.25C112.227 125.783 113.469 127.025 115.002 127.025Z" fill="#F9BF42"/>
<path d="M124.252 127.025C125.785 127.025 127.027 125.783 127.027 124.25C127.027 122.717 125.785 121.475 124.252 121.475C122.719 121.475 121.477 122.717 121.477 124.25C121.477 125.783 122.719 127.025 124.252 127.025Z" fill="#F9BF42"/>
<path d="M142.752 127.025C144.285 127.025 145.527 125.783 145.527 124.25C145.527 122.717 144.285 121.475 142.752 121.475C141.219 121.475 139.977 122.717 139.977 124.25C139.977 125.783 141.219 127.025 142.752 127.025Z" fill="#F9BF42"/>
<path d="M152.002 127.025C153.535 127.025 154.777 125.783 154.777 124.25C154.777 122.717 153.535 121.475 152.002 121.475C150.469 121.475 149.227 122.717 149.227 124.25C149.227 125.783 150.469 127.025 152.002 127.025Z" fill="#F9BF42"/>
<path d="M170.502 127.025C172.035 127.025 173.277 125.783 173.277 124.25C173.277 122.717 172.035 121.475 170.502 121.475C168.969 121.475 167.727 122.717 167.727 124.25C167.727 125.783 168.969 127.025 170.502 127.025Z" fill="#F9BF42"/>
<path d="M179.752 127.025C181.285 127.025 182.527 125.783 182.527 124.25C182.527 122.717 181.285 121.475 179.752 121.475C178.219 121.475 176.977 122.717 176.977 124.25C176.977 125.783 178.219 127.025 179.752 127.025Z" fill="#F9BF42"/>
<path d="M216.76 127.025C218.292 127.025 219.535 125.783 219.535 124.25C219.535 122.717 218.292 121.475 216.76 121.475C215.227 121.475 213.984 122.717 213.984 124.25C213.984 125.783 215.227 127.025 216.76 127.025Z" fill="#F9BF42"/>
<path d="M226.01 127.025C227.542 127.025 228.785 125.783 228.785 124.25C228.785 122.717 227.542 121.475 226.01 121.475C224.477 121.475 223.234 122.717 223.234 124.25C223.234 125.783 224.477 127.025 226.01 127.025Z" fill="#F9BF42"/>
<path d="M3.99399 136.277C5.52671 136.277 6.76922 135.035 6.76922 133.502C6.76922 131.969 5.52671 130.727 3.99399 130.727C2.46127 130.727 1.21875 131.969 1.21875 133.502C1.21875 135.035 2.46127 136.277 3.99399 136.277Z" fill="#F9BF42"/>
<path d="M13.244 136.277C14.7767 136.277 16.0192 135.035 16.0192 133.502C16.0192 131.969 14.7767 130.727 13.244 130.727C11.7113 130.727 10.4688 131.969 10.4688 133.502C10.4688 135.035 11.7113 136.277 13.244 136.277Z" fill="#F9BF42"/>
<path d="M22.494 136.277C24.0267 136.277 25.2692 135.035 25.2692 133.502C25.2692 131.969 24.0267 130.727 22.494 130.727C20.9613 130.727 19.7188 131.969 19.7188 133.502C19.7188 135.035 20.9613 136.277 22.494 136.277Z" fill="#F9BF42"/>
<path d="M31.744 136.277C33.2767 136.277 34.5192 135.035 34.5192 133.502C34.5192 131.969 33.2767 130.727 31.744 130.727C30.2113 130.727 28.9688 131.969 28.9688 133.502C28.9688 135.035 30.2113 136.277 31.744 136.277Z" fill="#F9BF42"/>
<path d="M59.494 136.277C61.0267 136.277 62.2692 135.035 62.2692 133.502C62.2692 131.969 61.0267 130.727 59.494 130.727C57.9613 130.727 56.7188 131.969 56.7188 133.502C56.7188 135.035 57.9613 136.277 59.494 136.277Z" fill="#F9BF42"/>
<path d="M77.994 136.277C79.5267 136.277 80.7692 135.035 80.7692 133.502C80.7692 131.969 79.5267 130.727 77.994 130.727C76.4613 130.727 75.2188 131.969 75.2188 133.502C75.2188 135.035 76.4613 136.277 77.994 136.277Z" fill="#F9BF42"/>
<path d="M96.5018 136.277C98.0345 136.277 99.277 135.035 99.277 133.502C99.277 131.969 98.0345 130.727 96.5018 130.727C94.9691 130.727 93.7266 131.969 93.7266 133.502C93.7266 135.035 94.9691 136.277 96.5018 136.277Z" fill="#F9BF42"/>
<path d="M115.002 136.277C116.535 136.277 117.777 135.035 117.777 133.502C117.777 131.969 116.535 130.727 115.002 130.727C113.469 130.727 112.227 131.969 112.227 133.502C112.227 135.035 113.469 136.277 115.002 136.277Z" fill="#F9BF42"/>
<path d="M142.752 136.277C144.285 136.277 145.527 135.035 145.527 133.502C145.527 131.969 144.285 130.727 142.752 130.727C141.219 130.727 139.977 131.969 139.977 133.502C139.977 135.035 141.219 136.277 142.752 136.277Z" fill="#F9BF42"/>
<path d="M152.002 136.277C153.535 136.277 154.777 135.035 154.777 133.502C154.777 131.969 153.535 130.727 152.002 130.727C150.469 130.727 149.227 131.969 149.227 133.502C149.227 135.035 150.469 136.277 152.002 136.277Z" fill="#F9BF42"/>
<path d="M198.26 136.277C199.792 136.277 201.035 135.035 201.035 133.502C201.035 131.969 199.792 130.727 198.26 130.727C196.727 130.727 195.484 131.969 195.484 133.502C195.484 135.035 196.727 136.277 198.26 136.277Z" fill="#F9BF42"/>
<path d="M207.51 136.277C209.042 136.277 210.285 135.035 210.285 133.502C210.285 131.969 209.042 130.727 207.51 130.727C205.977 130.727 204.734 131.969 204.734 133.502C204.734 135.035 205.977 136.277 207.51 136.277Z" fill="#F9BF42"/>
<path d="M226.01 136.277C227.542 136.277 228.785 135.035 228.785 133.502C228.785 131.969 227.542 130.727 226.01 130.727C224.477 130.727 223.234 131.969 223.234 133.502C223.234 135.035 224.477 136.277 226.01 136.277Z" fill="#F9BF42"/>
<path d="M40.994 145.527C42.5267 145.527 43.7692 144.285 43.7692 142.752C43.7692 141.219 42.5267 139.977 40.994 139.977C39.4613 139.977 38.2188 141.219 38.2188 142.752C38.2188 144.285 39.4613 145.527 40.994 145.527Z" fill="#F9BF42"/>
<path d="M96.5018 145.527C98.0345 145.527 99.277 144.285 99.277 142.752C99.277 141.219 98.0345 139.977 96.5018 139.977C94.9691 139.977 93.7266 141.219 93.7266 142.752C93.7266 144.285 94.9691 145.527 96.5018 145.527Z" fill="#F9BF42"/>
<path d="M105.752 145.527C107.285 145.527 108.527 144.285 108.527 142.752C108.527 141.219 107.285 139.977 105.752 139.977C104.219 139.977 102.977 141.219 102.977 142.752C102.977 144.285 104.219 145.527 105.752 145.527Z" fill="#F9BF42"/>
<path d="M115.002 145.527C116.535 145.527 117.777 144.285 117.777 142.752C117.777 141.219 116.535 139.977 115.002 139.977C113.469 139.977 112.227 141.219 112.227 142.752C112.227 144.285 113.469 145.527 115.002 145.527Z" fill="#F9BF42"/>
<path d="M142.752 145.527C144.285 145.527 145.527 144.285 145.527 142.752C145.527 141.219 144.285 139.977 142.752 139.977C141.219 139.977 139.977 141.219 139.977 142.752C139.977 144.285 141.219 145.527 142.752 145.527Z" fill="#F9BF42"/>
<path d="M161.252 145.527C162.785 145.527 164.027 144.285 164.027 142.752C164.027 141.219 162.785 139.977 161.252 139.977C159.719 139.977 158.477 141.219 158.477 142.752C158.477 144.285 159.719 145.527 161.252 145.527Z" fill="#F9BF42"/>
<path d="M179.752 145.527C181.285 145.527 182.527 144.285 182.527 142.752C182.527 141.219 181.285 139.977 179.752 139.977C178.219 139.977 176.977 141.219 176.977 142.752C176.977 144.285 178.219 145.527 179.752 145.527Z" fill="#F9BF42"/>
<path d="M189.01 145.527C190.542 145.527 191.785 144.285 191.785 142.752C191.785 141.219 190.542 139.977 189.01 139.977C187.477 139.977 186.234 141.219 186.234 142.752C186.234 144.285 187.477 145.527 189.01 145.527Z" fill="#F9BF42"/>
<path d="M198.26 145.527C199.792 145.527 201.035 144.285 201.035 142.752C201.035 141.219 199.792 139.977 198.26 139.977C196.727 139.977 195.484 141.219 195.484 142.752C195.484 144.285 196.727 145.527 198.26 145.527Z" fill="#F9BF42"/>
<path d="M3.99399 154.779C5.52671 154.779 6.76922 153.536 6.76922 152.004C6.76922 150.471 5.52671 149.229 3.99399 149.229C2.46127 149.229 1.21875 150.471 1.21875 152.004C1.21875 153.536 2.46127 154.779 3.99399 154.779Z" fill="#F9BF42"/>
<path d="M13.244 154.779C14.7767 154.779 16.0192 153.536 16.0192 152.004C16.0192 150.471 14.7767 149.229 13.244 149.229C11.7113 149.229 10.4688 150.471 10.4688 152.004C10.4688 153.536 11.7113 154.779 13.244 154.779Z" fill="#F9BF42"/>
<path d="M31.744 154.779C33.2767 154.779 34.5192 153.536 34.5192 152.004C34.5192 150.471 33.2767 149.229 31.744 149.229C30.2113 149.229 28.9688 150.471 28.9688 152.004C28.9688 153.536 30.2113 154.779 31.744 154.779Z" fill="#F9BF42"/>
<path d="M50.244 154.779C51.7767 154.779 53.0192 153.536 53.0192 152.004C53.0192 150.471 51.7767 149.229 50.244 149.229C48.7113 149.229 47.4688 150.471 47.4688 152.004C47.4688 153.536 48.7113 154.779 50.244 154.779Z" fill="#F9BF42"/>
<path d="M59.494 154.779C61.0267 154.779 62.2692 153.536 62.2692 152.004C62.2692 150.471 61.0267 149.229 59.494 149.229C57.9613 149.229 56.7188 150.471 56.7188 152.004C56.7188 153.536 57.9613 154.779 59.494 154.779Z" fill="#F9BF42"/>
<path d="M96.5018 154.779C98.0345 154.779 99.277 153.536 99.277 152.004C99.277 150.471 98.0345 149.229 96.5018 149.229C94.9691 149.229 93.7266 150.471 93.7266 152.004C93.7266 153.536 94.9691 154.779 96.5018 154.779Z" fill="#F9BF42"/>
<path d="M124.252 154.779C125.785 154.779 127.027 153.536 127.027 152.004C127.027 150.471 125.785 149.229 124.252 149.229C122.719 149.229 121.477 150.471 121.477 152.004C121.477 153.536 122.719 154.779 124.252 154.779Z" fill="#F9BF42"/>
<path d="M133.502 154.779C135.035 154.779 136.277 153.536 136.277 152.004C136.277 150.471 135.035 149.229 133.502 149.229C131.969 149.229 130.727 150.471 130.727 152.004C130.727 153.536 131.969 154.779 133.502 154.779Z" fill="#F9BF42"/>
<path d="M142.752 154.779C144.285 154.779 145.527 153.536 145.527 152.004C145.527 150.471 144.285 149.229 142.752 149.229C141.219 149.229 139.977 150.471 139.977 152.004C139.977 153.536 141.219 154.779 142.752 154.779Z" fill="#F9BF42"/>
<path d="M152.002 154.779C153.535 154.779 154.777 153.536 154.777 152.004C154.777 150.471 153.535 149.229 152.002 149.229C150.469 149.229 149.227 150.471 149.227 152.004C149.227 153.536 150.469 154.779 152.002 154.779Z" fill="#F9BF42"/>
<path d="M161.252 154.779C162.785 154.779 164.027 153.536 164.027 152.004C164.027 150.471 162.785 149.229 161.252 149.229C159.719 149.229 158.477 150.471 158.477 152.004C158.477 153.536 159.719 154.779 161.252 154.779Z" fill="#F9BF42"/>
<path d="M170.502 154.779C172.035 154.779 173.277 153.536 173.277 152.004C173.277 150.471 172.035 149.229 170.502 149.229C168.969 149.229 167.727 150.471 167.727 152.004C167.727 153.536 168.969 154.779 170.502 154.779Z" fill="#F9BF42"/>
<path d="M179.752 154.779C181.285 154.779 182.527 153.536 182.527 152.004C182.527 150.471 181.285 149.229 179.752 149.229C178.219 149.229 176.977 150.471 176.977 152.004C176.977 153.536 178.219 154.779 179.752 154.779Z" fill="#F9BF42"/>
<path d="M189.01 154.779C190.542 154.779 191.785 153.536 191.785 152.004C191.785 150.471 190.542 149.229 189.01 149.229C187.477 149.229 186.234 150.471 186.234 152.004C186.234 153.536 187.477 154.779 189.01 154.779Z" fill="#F9BF42"/>
<path d="M216.76 154.779C218.292 154.779 219.535 153.536 219.535 152.004C219.535 150.471 218.292 149.229 216.76 149.229C215.227 149.229 213.984 150.471 213.984 152.004C213.984 153.536 215.227 154.779 216.76 154.779Z" fill="#F9BF42"/>
<path d="M77.994 164.029C79.5267 164.029 80.7692 162.786 80.7692 161.254C80.7692 159.721 79.5267 158.479 77.994 158.479C76.4613 158.479 75.2188 159.721 75.2188 161.254C75.2188 162.786 76.4613 164.029 77.994 164.029Z" fill="#F9BF42"/>
<path d="M87.244 164.029C88.7767 164.029 90.0192 162.786 90.0192 161.254C90.0192 159.721 88.7767 158.479 87.244 158.479C85.7113 158.479 84.4688 159.721 84.4688 161.254C84.4688 162.786 85.7113 164.029 87.244 164.029Z" fill="#F9BF42"/>
<path d="M96.5018 164.029C98.0345 164.029 99.277 162.786 99.277 161.254C99.277 159.721 98.0345 158.479 96.5018 158.479C94.9691 158.479 93.7266 159.721 93.7266 161.254C93.7266 162.786 94.9691 164.029 96.5018 164.029Z" fill="#F9BF42"/>
<path d="M124.252 164.029C125.785 164.029 127.027 162.786 127.027 161.254C127.027 159.721 125.785 158.479 124.252 158.479C122.719 158.479 121.477 159.721 121.477 161.254C121.477 162.786 122.719 164.029 124.252 164.029Z" fill="#F9BF42"/>
<path d="M152.002 164.029C153.535 164.029 154.777 162.786 154.777 161.254C154.777 159.721 153.535 158.479 152.002 158.479C150.469 158.479 149.227 159.721 149.227 161.254C149.227 162.786 150.469 164.029 152.002 164.029Z" fill="#F9BF42"/>
<path d="M189.01 164.029C190.542 164.029 191.785 162.786 191.785 161.254C191.785 159.721 190.542 158.479 189.01 158.479C187.477 158.479 186.234 159.721 186.234 161.254C186.234 162.786 187.477 164.029 189.01 164.029Z" fill="#F9BF42"/>
<path d="M226.01 164.029C227.542 164.029 228.785 162.786 228.785 161.254C228.785 159.721 227.542 158.479 226.01 158.479C224.477 158.479 223.234 159.721 223.234 161.254C223.234 162.786 224.477 164.029 226.01 164.029Z" fill="#F9BF42"/>
<path d="M77.994 173.281C79.5267 173.281 80.7692 172.038 80.7692 170.506C80.7692 168.973 79.5267 167.73 77.994 167.73C76.4613 167.73 75.2188 168.973 75.2188 170.506C75.2188 172.038 76.4613 173.281 77.994 173.281Z" fill="#F9BF42"/>
<path d="M87.244 173.281C88.7767 173.281 90.0192 172.038 90.0192 170.506C90.0192 168.973 88.7767 167.73 87.244 167.73C85.7113 167.73 84.4688 168.973 84.4688 170.506C84.4688 172.038 85.7113 173.281 87.244 173.281Z" fill="#F9BF42"/>
<path d="M105.752 173.281C107.285 173.281 108.527 172.038 108.527 170.506C108.527 168.973 107.285 167.73 105.752 167.73C104.219 167.73 102.977 168.973 102.977 170.506C102.977 172.038 104.219 173.281 105.752 173.281Z" fill="#F9BF42"/>
<path d="M152.002 173.281C153.535 173.281 154.777 172.038 154.777 170.506C154.777 168.973 153.535 167.73 152.002 167.73C150.469 167.73 149.227 168.973 149.227 170.506C149.227 172.038 150.469 173.281 152.002 173.281Z" fill="#F9BF42"/>
<path d="M170.502 173.281C172.035 173.281 173.277 172.038 173.277 170.506C173.277 168.973 172.035 167.73 170.502 167.73C168.969 167.73 167.727 168.973 167.727 170.506C167.727 172.038 168.969 173.281 170.502 173.281Z" fill="#F9BF42"/>
<path d="M189.01 173.281C190.542 173.281 191.785 172.038 191.785 170.506C191.785 168.973 190.542 167.73 189.01 167.73C187.477 167.73 186.234 168.973 186.234 170.506C186.234 172.038 187.477 173.281 189.01 173.281Z" fill="#F9BF42"/>
<path d="M226.01 173.281C227.542 173.281 228.785 172.038 228.785 170.506C228.785 168.973 227.542 167.73 226.01 167.73C224.477 167.73 223.234 168.973 223.234 170.506C223.234 172.038 224.477 173.281 226.01 173.281Z" fill="#F9BF42"/>
<path d="M87.244 182.531C88.7767 182.531 90.0192 181.288 90.0192 179.756C90.0192 178.223 88.7767 176.98 87.244 176.98C85.7113 176.98 84.4688 178.223 84.4688 179.756C84.4688 181.288 85.7113 182.531 87.244 182.531Z" fill="#F9BF42"/>
<path d="M96.5018 182.531C98.0345 182.531 99.277 181.288 99.277 179.756C99.277 178.223 98.0345 176.98 96.5018 176.98C94.9691 176.98 93.7266 178.223 93.7266 179.756C93.7266 181.288 94.9691 182.531 96.5018 182.531Z" fill="#F9BF42"/>
<path d="M124.252 182.531C125.785 182.531 127.027 181.288 127.027 179.756C127.027 178.223 125.785 176.98 124.252 176.98C122.719 176.98 121.477 178.223 121.477 179.756C121.477 181.288 122.719 182.531 124.252 182.531Z" fill="#F9BF42"/>
<path d="M142.752 182.531C144.285 182.531 145.527 181.288 145.527 179.756C145.527 178.223 144.285 176.98 142.752 176.98C141.219 176.98 139.977 178.223 139.977 179.756C139.977 181.288 141.219 182.531 142.752 182.531Z" fill="#F9BF42"/>
<path d="M152.002 182.531C153.535 182.531 154.777 181.288 154.777 179.756C154.777 178.223 153.535 176.98 152.002 176.98C150.469 176.98 149.227 178.223 149.227 179.756C149.227 181.288 150.469 182.531 152.002 182.531Z" fill="#F9BF42"/>
<path d="M189.01 182.531C190.542 182.531 191.785 181.288 191.785 179.756C191.785 178.223 190.542 176.98 189.01 176.98C187.477 176.98 186.234 178.223 186.234 179.756C186.234 181.288 187.477 182.531 189.01 182.531Z" fill="#F9BF42"/>
<path d="M216.76 182.531C218.292 182.531 219.535 181.288 219.535 179.756C219.535 178.223 218.292 176.98 216.76 176.98C215.227 176.98 213.984 178.223 213.984 179.756C213.984 181.288 215.227 182.531 216.76 182.531Z" fill="#F9BF42"/>
<path d="M105.752 191.781C107.285 191.781 108.527 190.538 108.527 189.006C108.527 187.473 107.285 186.23 105.752 186.23C104.219 186.23 102.977 187.473 102.977 189.006C102.977 190.538 104.219 191.781 105.752 191.781Z" fill="#F9BF42"/>
<path d="M115.002 191.781C116.535 191.781 117.777 190.538 117.777 189.006C117.777 187.473 116.535 186.23 115.002 186.23C113.469 186.23 112.227 187.473 112.227 189.006C112.227 190.538 113.469 191.781 115.002 191.781Z" fill="#F9BF42"/>
<path d="M124.252 191.781C125.785 191.781 127.027 190.538 127.027 189.006C127.027 187.473 125.785 186.23 124.252 186.23C122.719 186.23 121.477 187.473 121.477 189.006C121.477 190.538 122.719 191.781 124.252 191.781Z" fill="#F9BF42"/>
<path d="M142.752 191.781C144.285 191.781 145.527 190.538 145.527 189.006C145.527 187.473 144.285 186.23 142.752 186.23C141.219 186.23 139.977 187.473 139.977 189.006C139.977 190.538 141.219 191.781 142.752 191.781Z" fill="#F9BF42"/>
<path d="M152.002 191.781C153.535 191.781 154.777 190.538 154.777 189.006C154.777 187.473 153.535 186.23 152.002 186.23C150.469 186.23 149.227 187.473 149.227 189.006C149.227 190.538 150.469 191.781 152.002 191.781Z" fill="#F9BF42"/>
<path d="M161.252 191.781C162.785 191.781 164.027 190.538 164.027 189.006C164.027 187.473 162.785 186.23 161.252 186.23C159.719 186.23 158.477 187.473 158.477 189.006C158.477 190.538 159.719 191.781 161.252 191.781Z" fill="#F9BF42"/>
<path d="M170.502 191.781C172.035 191.781 173.277 190.538 173.277 189.006C173.277 187.473 172.035 186.23 170.502 186.23C168.969 186.23 167.727 187.473 167.727 189.006C167.727 190.538 168.969 191.781 170.502 191.781Z" fill="#F9BF42"/>
<path d="M179.752 191.781C181.285 191.781 182.527 190.538 182.527 189.006C182.527 187.473 181.285 186.23 179.752 186.23C178.219 186.23 176.977 187.473 176.977 189.006C176.977 190.538 178.219 191.781 179.752 191.781Z" fill="#F9BF42"/>
<path d="M189.01 191.781C190.542 191.781 191.785 190.538 191.785 189.006C191.785 187.473 190.542 186.23 189.01 186.23C187.477 186.23 186.234 187.473 186.234 189.006C186.234 190.538 187.477 191.781 189.01 191.781Z" fill="#F9BF42"/>
<path d="M226.01 191.781C227.542 191.781 228.785 190.538 228.785 189.006C228.785 187.473 227.542 186.23 226.01 186.23C224.477 186.23 223.234 187.473 223.234 189.006C223.234 190.538 224.477 191.781 226.01 191.781Z" fill="#F9BF42"/>
<path d="M96.5018 201.033C98.0345 201.033 99.277 199.79 99.277 198.258C99.277 196.725 98.0345 195.482 96.5018 195.482C94.9691 195.482 93.7266 196.725 93.7266 198.258C93.7266 199.79 94.9691 201.033 96.5018 201.033Z" fill="#F9BF42"/>
<path d="M115.002 201.033C116.535 201.033 117.777 199.79 117.777 198.258C117.777 196.725 116.535 195.482 115.002 195.482C113.469 195.482 112.227 196.725 112.227 198.258C112.227 199.79 113.469 201.033 115.002 201.033Z" fill="#F9BF42"/>
<path d="M142.752 201.033C144.285 201.033 145.527 199.79 145.527 198.258C145.527 196.725 144.285 195.482 142.752 195.482C141.219 195.482 139.977 196.725 139.977 198.258C139.977 199.79 141.219 201.033 142.752 201.033Z" fill="#F9BF42"/>
<path d="M152.002 201.033C153.535 201.033 154.777 199.79 154.777 198.258C154.777 196.725 153.535 195.482 152.002 195.482C150.469 195.482 149.227 196.725 149.227 198.258C149.227 199.79 150.469 201.033 152.002 201.033Z" fill="#F9BF42"/>
<path d="M161.252 201.033C162.785 201.033 164.027 199.79 164.027 198.258C164.027 196.725 162.785 195.482 161.252 195.482C159.719 195.482 158.477 196.725 158.477 198.258C158.477 199.79 159.719 201.033 161.252 201.033Z" fill="#F9BF42"/>
<path d="M189.01 201.033C190.542 201.033 191.785 199.79 191.785 198.258C191.785 196.725 190.542 195.482 189.01 195.482C187.477 195.482 186.234 196.725 186.234 198.258C186.234 199.79 187.477 201.033 189.01 201.033Z" fill="#F9BF42"/>
<path d="M207.51 201.033C209.042 201.033 210.285 199.79 210.285 198.258C210.285 196.725 209.042 195.482 207.51 195.482C205.977 195.482 204.734 196.725 204.734 198.258C204.734 199.79 205.977 201.033 207.51 201.033Z" fill="#F9BF42"/>
<path d="M216.76 201.033C218.292 201.033 219.535 199.79 219.535 198.258C219.535 196.725 218.292 195.482 216.76 195.482C215.227 195.482 213.984 196.725 213.984 198.258C213.984 199.79 215.227 201.033 216.76 201.033Z" fill="#F9BF42"/>
<path d="M77.994 210.283C79.5267 210.283 80.7692 209.04 80.7692 207.508C80.7692 205.975 79.5267 204.732 77.994 204.732C76.4613 204.732 75.2188 205.975 75.2188 207.508C75.2188 209.04 76.4613 210.283 77.994 210.283Z" fill="#F9BF42"/>
<path d="M87.244 210.283C88.7767 210.283 90.0192 209.04 90.0192 207.508C90.0192 205.975 88.7767 204.732 87.244 204.732C85.7113 204.732 84.4688 205.975 84.4688 207.508C84.4688 209.04 85.7113 210.283 87.244 210.283Z" fill="#F9BF42"/>
<path d="M115.002 210.283C116.535 210.283 117.777 209.04 117.777 207.508C117.777 205.975 116.535 204.732 115.002 204.732C113.469 204.732 112.227 205.975 112.227 207.508C112.227 209.04 113.469 210.283 115.002 210.283Z" fill="#F9BF42"/>
<path d="M124.252 210.283C125.785 210.283 127.027 209.04 127.027 207.508C127.027 205.975 125.785 204.732 124.252 204.732C122.719 204.732 121.477 205.975 121.477 207.508C121.477 209.04 122.719 210.283 124.252 210.283Z" fill="#F9BF42"/>
<path d="M133.502 210.283C135.035 210.283 136.277 209.04 136.277 207.508C136.277 205.975 135.035 204.732 133.502 204.732C131.969 204.732 130.727 205.975 130.727 207.508C130.727 209.04 131.969 210.283 133.502 210.283Z" fill="#F9BF42"/>
<path d="M161.252 210.283C162.785 210.283 164.027 209.04 164.027 207.508C164.027 205.975 162.785 204.732 161.252 204.732C159.719 204.732 158.477 205.975 158.477 207.508C158.477 209.04 159.719 210.283 161.252 210.283Z" fill="#F9BF42"/>
<path d="M179.752 210.283C181.285 210.283 182.527 209.04 182.527 207.508C182.527 205.975 181.285 204.732 179.752 204.732C178.219 204.732 176.977 205.975 176.977 207.508C176.977 209.04 178.219 210.283 179.752 210.283Z" fill="#F9BF42"/>
<path d="M189.01 210.283C190.542 210.283 191.785 209.04 191.785 207.508C191.785 205.975 190.542 204.732 189.01 204.732C187.477 204.732 186.234 205.975 186.234 207.508C186.234 209.04 187.477 210.283 189.01 210.283Z" fill="#F9BF42"/>
<path d="M198.26 210.283C199.792 210.283 201.035 209.04 201.035 207.508C201.035 205.975 199.792 204.732 198.26 204.732C196.727 204.732 195.484 205.975 195.484 207.508C195.484 209.04 196.727 210.283 198.26 210.283Z" fill="#F9BF42"/>
<path d="M216.76 210.283C218.292 210.283 219.535 209.04 219.535 207.508C219.535 205.975 218.292 204.732 216.76 204.732C215.227 204.732 213.984 205.975 213.984 207.508C213.984 209.04 215.227 210.283 216.76 210.283Z" fill="#F9BF42"/>
<path d="M226.01 210.283C227.542 210.283 228.785 209.04 228.785 207.508C228.785 205.975 227.542 204.732 226.01 204.732C224.477 204.732 223.234 205.975 223.234 207.508C223.234 209.04 224.477 210.283 226.01 210.283Z" fill="#F9BF42"/>
<path d="M87.244 219.535C88.7767 219.535 90.0192 218.292 90.0192 216.76C90.0192 215.227 88.7767 213.984 87.244 213.984C85.7113 213.984 84.4688 215.227 84.4688 216.76C84.4688 218.292 85.7113 219.535 87.244 219.535Z" fill="#F9BF42"/>
<path d="M105.752 219.535C107.285 219.535 108.527 218.292 108.527 216.76C108.527 215.227 107.285 213.984 105.752 213.984C104.219 213.984 102.977 215.227 102.977 216.76C102.977 218.292 104.219 219.535 105.752 219.535Z" fill="#F9BF42"/>
<path d="M115.002 219.535C116.535 219.535 117.777 218.292 117.777 216.76C117.777 215.227 116.535 213.984 115.002 213.984C113.469 213.984 112.227 215.227 112.227 216.76C112.227 218.292 113.469 219.535 115.002 219.535Z" fill="#F9BF42"/>
<path d="M133.502 219.535C135.035 219.535 136.277 218.292 136.277 216.76C136.277 215.227 135.035 213.984 133.502 213.984C131.969 213.984 130.727 215.227 130.727 216.76C130.727 218.292 131.969 219.535 133.502 219.535Z" fill="#F9BF42"/>
<path d="M152.002 219.535C153.535 219.535 154.777 218.292 154.777 216.76C154.777 215.227 153.535 213.984 152.002 213.984C150.469 213.984 149.227 215.227 149.227 216.76C149.227 218.292 150.469 219.535 152.002 219.535Z" fill="#F9BF42"/>
<path d="M161.252 219.535C162.785 219.535 164.027 218.292 164.027 216.76C164.027 215.227 162.785 213.984 161.252 213.984C159.719 213.984 158.477 215.227 158.477 216.76C158.477 218.292 159.719 219.535 161.252 219.535Z" fill="#F9BF42"/>
<path d="M179.752 219.535C181.285 219.535 182.527 218.292 182.527 216.76C182.527 215.227 181.285 213.984 179.752 213.984C178.219 213.984 176.977 215.227 176.977 216.76C176.977 218.292 178.219 219.535 179.752 219.535Z" fill="#F9BF42"/>
<path d="M189.01 219.535C190.542 219.535 191.785 218.292 191.785 216.76C191.785 215.227 190.542 213.984 189.01 213.984C187.477 213.984 186.234 215.227 186.234 216.76C186.234 218.292 187.477 219.535 189.01 219.535Z" fill="#F9BF42"/>
<path d="M77.994 228.785C79.5267 228.785 80.7692 227.542 80.7692 226.01C80.7692 224.477 79.5267 223.234 77.994 223.234C76.4613 223.234 75.2188 224.477 75.2188 226.01C75.2188 227.542 76.4613 228.785 77.994 228.785Z" fill="#F9BF42"/>
<path d="M87.244 228.785C88.7767 228.785 90.0192 227.542 90.0192 226.01C90.0192 224.477 88.7767 223.234 87.244 223.234C85.7113 223.234 84.4688 224.477 84.4688 226.01C84.4688 227.542 85.7113 228.785 87.244 228.785Z" fill="#F9BF42"/>
<path d="M124.252 228.785C125.785 228.785 127.027 227.542 127.027 226.01C127.027 224.477 125.785 223.234 124.252 223.234C122.719 223.234 121.477 224.477 121.477 226.01C121.477 227.542 122.719 228.785 124.252 228.785Z" fill="#F9BF42"/>
<path d="M133.502 228.785C135.035 228.785 136.277 227.542 136.277 226.01C136.277 224.477 135.035 223.234 133.502 223.234C131.969 223.234 130.727 224.477 130.727 226.01C130.727 227.542 131.969 228.785 133.502 228.785Z" fill="#F9BF42"/>
<path d="M142.752 228.785C144.285 228.785 145.527 227.542 145.527 226.01C145.527 224.477 144.285 223.234 142.752 223.234C141.219 223.234 139.977 224.477 139.977 226.01C139.977 227.542 141.219 228.785 142.752 228.785Z" fill="#F9BF42"/>
<path d="M152.002 228.785C153.535 228.785 154.777 227.542 154.777 226.01C154.777 224.477 153.535 223.234 152.002 223.234C150.469 223.234 149.227 224.477 149.227 226.01C149.227 227.542 150.469 228.785 152.002 228.785Z" fill="#F9BF42"/>
<path d="M170.502 228.785C172.035 228.785 173.277 227.542 173.277 226.01C173.277 224.477 172.035 223.234 170.502 223.234C168.969 223.234 167.727 224.477 167.727 226.01C167.727 227.542 168.969 228.785 170.502 228.785Z" fill="#F9BF42"/>
<path d="M198.26 228.785C199.792 228.785 201.035 227.542 201.035 226.01C201.035 224.477 199.792 223.234 198.26 223.234C196.727 223.234 195.484 224.477 195.484 226.01C195.484 227.542 196.727 228.785 198.26 228.785Z" fill="#F9BF42"/>
<path d="M226.01 228.785C227.542 228.785 228.785 227.542 228.785 226.01C228.785 224.477 227.542 223.234 226.01 223.234C224.477 223.234 223.234 224.477 223.234 226.01C223.234 227.542 224.477 228.785 226.01 228.785Z" fill="#F9BF42"/>
<path d="M31.7429 0C14.2126 0 0 14.2126 0 31.7429C0 49.2732 14.2126 63.4858 31.7429 63.4858C49.2732 63.4858 63.4858 49.2732 63.4858 31.7429C63.4858 14.2126 49.2732 0 31.7429 0ZM31.7429 53.9629C19.4908 53.9629 9.52287 43.995 9.52287 31.7429C9.52287 19.4908 19.4908 9.52287 31.7429 9.52287C43.995 9.52287 53.9629 19.4908 53.9629 31.7429C53.9629 43.995 43.995 53.9629 31.7429 53.9629Z" fill="#F9BF42"/>
<path d="M198.259 0C180.728 0 166.516 14.2126 166.516 31.7429C166.516 49.2732 180.728 63.4858 198.259 63.4858C215.789 63.4858 230.001 49.2732 230.001 31.7429C230.001 14.2126 215.789 0 198.259 0ZM198.259 53.9629C186.006 53.9629 176.038 43.995 176.038 31.7429C176.038 19.4908 186.006 9.52287 198.259 9.52287C210.511 9.52287 220.479 19.4908 220.479 31.7429C220.479 43.995 210.511 53.9629 198.259 53.9629Z" fill="#F9BF42"/>
<path d="M31.7429 166.514C14.2126 166.514 0 180.726 0 198.257C0 215.787 14.2126 229.999 31.7429 229.999C49.2732 229.999 63.4858 215.787 63.4858 198.257C63.4858 180.726 49.2732 166.514 31.7429 166.514ZM31.7429 220.477C19.4908 220.477 9.52287 210.509 9.52287 198.257C9.52287 186.004 19.4908 176.037 31.7429 176.037C43.995 176.037 53.9629 186.004 53.9629 198.257C53.9629 210.509 43.995 220.477 31.7429 220.477Z" fill="#F9BF42"/>
<path d="M31.4713 45.0754C38.9846 45.0754 45.0754 38.9846 45.0754 31.4713C45.0754 23.958 38.9846 17.8672 31.4713 17.8672C23.958 17.8672 17.8672 23.958 17.8672 31.4713C17.8672 38.9846 23.958 45.0754 31.4713 45.0754Z" fill="#F9BF42"/>
<path d="M197.987 45.0754C205.5 45.0754 211.591 38.9846 211.591 31.4713C211.591 23.958 205.5 17.8672 197.987 17.8672C190.474 17.8672 184.383 23.958 184.383 31.4713C184.383 38.9846 190.474 45.0754 197.987 45.0754Z" fill="#F9BF42"/>
<path d="M31.4713 211.589C38.9846 211.589 45.0754 205.498 45.0754 197.985C45.0754 190.472 38.9846 184.381 31.4713 184.381C23.958 184.381 17.8672 190.472 17.8672 197.985C17.8672 205.498 23.958 211.589 31.4713 211.589Z" fill="#F9BF42"/>
</svg>
