<svg width="408.000000" height="1080.000000" viewBox="0 0 408 1080" fill="none" xmlns="http://www.w3.org/2000/svg" xmlns:xlink="http://www.w3.org/1999/xlink">
	<desc>
			Created with Pixso.
	</desc>
	<defs>
		<clipPath id="clip2385_100301">
			<rect id="RIght" width="407.999817" height="1080.000122" transform="matrix(1 1.74846e-07 1.74846e-07 -1 0 1080)" fill="white" fill-opacity="0"/>
		</clipPath>
	</defs>
	<g clip-path="url(#clip2385_100301)">
		<path id="Vector 964" d="M501.914 1596.45C291.055 1269.78 465.242 1150.35 567.078 1113.05C799.812 1020.75 898.023 1370.39 455.93 1324.77C368.844 1312.32 -209.961 913.5 392.5 654.5C140 629 -40 337 593 195" stroke="#3E4146" stroke-opacity="1.000000" stroke-width="69.000000"/>
		<path id="Vector 965" d="M54.6953 -275.037C480.133 -88.8262 385.461 144.988 308.664 249.305C137.789 494.729 -190.633 211.352 279.688 -34.8301C374.609 -79.8809 1114.51 -429.934 685.43 225.365C907.969 177.826 1718.43 704.336 615.844 1058.09" stroke="#3E4146" stroke-opacity="1.000000" stroke-width="69.000000"/>
	</g>
</svg>
